<svg width="1152" height="1214" viewBox="0 0 1152 1214" fill="none" xmlns="http://www.w3.org/2000/svg">
<g clip-path="url(#clip0)">
<path opacity="0.1" d="M396.692 1051.58H460.431V1138.53H401.358C401.201 1139.42 401.051 1140.32 400.887 1141.22H460.431V1211.34C460.324 1211.31 460.23 1211.27 460.13 1211.23C458.446 1210.57 456.776 1209.86 455.105 1209.11L454.038 1208.63C452.363 1207.83 450.688 1207 449.013 1206.11C448.429 1205.8 447.845 1205.48 447.267 1205.16C437.97 1199.94 429.524 1193.34 422.222 1185.57C422.008 1185.36 421.807 1185.14 421.593 1184.94C420.576 1183.83 419.578 1182.72 418.61 1181.57L417.543 1180.32C416.4 1178.91 415.294 1177.47 414.22 1176.02C414.063 1175.8 413.913 1175.59 413.749 1175.39C409.382 1169.33 405.755 1162.76 402.947 1155.84C402.859 1155.63 402.784 1155.41 402.702 1155.21C401.84 1152.99 401.076 1150.75 400.41 1148.48C400.121 1147.54 399.845 1146.6 399.606 1145.61C399.518 1145.32 399.443 1145.04 399.374 1144.76C395.807 1130.82 395.386 1116.35 395.386 1101.97C395.386 1100.29 395.386 1098.61 395.386 1096.94C395.386 1091.13 395.455 1085.28 395.555 1079.43C395.555 1077.92 395.618 1076.41 395.65 1074.89C395.737 1071.03 395.863 1067.17 396.026 1063.31C396.064 1062.23 396.114 1061.16 396.171 1060.1C396.171 1059.48 396.202 1058.86 396.265 1058.25C396.416 1056.01 396.541 1053.79 396.692 1051.58Z" fill="#00B0FF"/>
<path opacity="0.1" d="M460.431 954.768H425.468C431.152 945.865 437.361 937.31 444.064 929.148C449.258 922.762 454.741 916.539 460.431 910.543V954.768Z" fill="#00B0FF"/>
<path opacity="0.1" d="M460.431 957.459V1048.89H396.893C396.893 1048.63 396.937 1048.35 396.956 1048.09C397.012 1047.37 397.069 1046.65 397.132 1045.93C397.201 1045.09 397.276 1044.24 397.358 1043.41C397.439 1042.59 397.527 1041.59 397.622 1040.67C397.716 1039.76 397.804 1038.84 397.91 1037.93C398.017 1037.02 398.111 1036.1 398.224 1035.2C398.338 1034.29 398.438 1033.38 398.557 1032.47C398.652 1031.72 398.752 1030.97 398.853 1030.21C398.997 1029.15 399.148 1028.08 399.311 1027.03C399.311 1026.87 399.355 1026.71 399.38 1026.56C400.526 1018.83 402.088 1011.16 404.059 1003.6C406.122 995.669 408.756 987.896 411.941 980.345C415.326 972.445 419.289 964.806 423.798 957.49L460.431 957.459Z" fill="#00B0FF"/>
<path opacity="0.1" d="M475.648 1051.57V1138.53H611.786V1051.57H475.648ZM475.648 1141.21V1215.89C476.427 1216.05 477.199 1216.21 477.965 1216.34C479.008 1216.54 480.044 1216.72 481.106 1216.88C481.307 1216.91 481.514 1216.94 481.734 1216.96C482.148 1217.03 482.575 1217.09 482.99 1217.14C484.038 1217.29 485.081 1217.41 486.13 1217.5C486.626 1217.55 487.128 1217.6 487.631 1217.63L488.843 1217.73C489.502 1217.78 490.155 1217.82 490.802 1217.83C491.204 1217.83 491.606 1217.87 492.021 1217.88C492.335 1217.88 492.649 1217.88 492.975 1217.88C493.302 1217.88 493.767 1217.88 494.162 1217.88C494.702 1217.88 495.243 1217.88 495.776 1217.88H496.499C497.039 1217.88 497.579 1217.88 498.113 1217.83H498.15C498.521 1217.83 498.898 1217.83 499.274 1217.78C499.379 1217.79 499.484 1217.79 499.589 1217.78C499.903 1217.78 500.217 1217.78 500.518 1217.74H500.738L502.842 1217.58C503.533 1217.51 504.23 1217.43 504.933 1217.36L506.365 1217.19C512.19 1216.37 517.951 1215.14 523.604 1213.52C536.303 1209.97 548.726 1205.01 561.418 1201.38C577.829 1196.7 595.96 1194.39 611.818 1200.12V1141.21H475.648ZM611.786 954.768V839.006C596.882 838.845 582.017 840.589 567.554 844.198C533.081 852.866 502.151 871.666 475.648 895.677V954.762H482.481V957.446H475.648V1048.89H611.786V957.452H510.535V954.768H611.786ZM786.649 915.666C778.121 915.364 769.642 912.661 761.974 908.487C747.309 900.505 735.597 888.179 722.508 877.776C695.315 856.109 661.589 843.035 626.991 839.792V954.768H821.335L821.819 954.259L786.649 915.666ZM804.353 912.523L823.125 933.14V907.117C816.839 907.897 811.331 909.751 804.379 912.498L804.353 912.523ZM823.125 1234.43V1141.21H783.126C783.019 1140.82 782.912 1140.41 782.787 1140.01C782.906 1140.41 783.007 1140.82 783.12 1141.21H627.016V1208.63C628.498 1209.73 629.962 1210.88 631.412 1212.06C632.976 1213.31 634.521 1214.64 636.072 1215.94L637.636 1217.24C638.383 1217.87 639.137 1218.49 639.897 1219.08C641.404 1220.31 642.926 1221.52 644.463 1222.71C645.223 1223.33 646.002 1223.9 646.774 1224.49C659.038 1233.87 671.974 1242.34 685.48 1249.83C688.507 1251.5 691.561 1253.14 694.643 1254.74C696.696 1255.79 698.762 1256.83 700.835 1257.84C703.95 1259.36 707.09 1260.83 710.255 1262.24C739.438 1275.35 770.296 1284.35 801.948 1288.97C808.978 1290.01 816.035 1290.83 823.119 1291.43V1234.42H823.747L823.125 1234.43ZM627.016 957.452V1048.89H823.15V957.452H627.016ZM627.016 1051.57V1138.53H823.15V1051.57H627.016ZM838.374 907.004V936.031L862.333 909.719C854.395 908.437 846.409 907.522 838.374 906.973V907.004ZM838.374 1051.6V1138.53H1029.14V1051.57L838.374 1051.6ZM1028.44 1241.33L1029.11 1141.21H838.374V1292.43C850.661 1292.94 862.968 1292.79 875.239 1291.99V1291.99H875.453C881.315 1291.62 887.149 1291.08 892.956 1290.38H893.088C924.069 1286.77 954.363 1278.68 983.022 1266.36L1028.44 1241.33ZM1065.92 1065.89C1065.21 1064.2 1064.46 1062.52 1063.7 1060.86C1062.28 1057.72 1060.78 1054.67 1059.23 1051.61H1044.35V1138.53H1081.98C1081.96 1113.91 1075.74 1088.77 1065.94 1065.86L1065.92 1065.89ZM1044.35 1141.24V1227.36C1054.95 1217.19 1063.91 1205.55 1070.36 1192.25C1078.11 1176.24 1081.66 1158.89 1081.95 1141.23L1044.35 1141.24ZM1044.35 1026.27V1048.9H1057.84C1053.76 1041.11 1049.26 1033.54 1044.37 1026.24L1044.35 1026.27ZM914.975 924.063C913.983 923.686 912.99 923.303 911.992 922.932C901.46 919.039 890.698 915.802 879.767 913.239L843.103 953.511L842.4 954.259L842.871 954.775H973.363C955.189 942.254 935.596 931.934 914.994 924.032L914.975 924.063ZM977.188 957.484H841.049L838.374 959.935V1048.89H861.825H861.862H1029.16V1005.8C1014.03 987.482 996.562 971.228 977.207 957.452L977.188 957.484Z" fill="#00B0FF"/>
<path opacity="0.1" d="M460.431 1003.58V1048.89H396.893C396.893 1048.63 396.937 1048.35 396.956 1048.09C397.012 1047.37 397.069 1046.65 397.132 1045.93C397.201 1045.09 397.276 1044.24 397.358 1043.41C397.439 1042.59 397.527 1041.59 397.622 1040.67C397.716 1039.76 397.804 1038.84 397.91 1037.93C398.017 1037.02 398.111 1036.1 398.224 1035.2C398.338 1034.29 398.438 1033.38 398.557 1032.47C398.652 1031.72 398.752 1030.97 398.853 1030.21C398.997 1029.15 399.148 1028.08 399.311 1027.03C399.311 1026.87 399.355 1026.71 399.38 1026.56C400.526 1018.83 402.088 1011.16 404.059 1003.6L460.431 1003.58Z" fill="#00B0FF"/>
<path opacity="0.1" d="M396.692 1051.58H460.431V1138.53H401.358C401.201 1139.42 401.051 1140.32 400.887 1141.22H460.431V1211.34C460.324 1211.31 460.23 1211.27 460.13 1211.23C458.446 1210.57 456.776 1209.86 455.105 1209.11L454.038 1208.63C452.363 1207.83 450.688 1207 449.013 1206.11C448.429 1205.8 447.845 1205.48 447.267 1205.16C437.97 1199.94 429.524 1193.34 422.222 1185.57C422.008 1185.36 421.807 1185.14 421.593 1184.94C420.576 1183.83 419.578 1182.72 418.61 1181.57L417.543 1180.32C416.4 1178.91 415.294 1177.47 414.22 1176.02C414.063 1175.8 413.913 1175.59 413.749 1175.39C409.382 1169.33 405.755 1162.76 402.947 1155.84C402.859 1155.63 402.784 1155.41 402.702 1155.21C401.84 1152.99 401.076 1150.75 400.41 1148.48C400.121 1147.54 399.845 1146.6 399.606 1145.61C399.518 1145.32 399.443 1145.04 399.374 1144.76C395.807 1130.82 395.386 1116.35 395.386 1101.97C395.386 1100.29 395.386 1098.61 395.386 1096.94C395.386 1091.13 395.455 1085.28 395.555 1079.43C395.555 1077.92 395.618 1076.41 395.65 1074.89C395.737 1071.03 395.863 1067.17 396.026 1063.31C396.064 1062.23 396.114 1061.16 396.171 1060.1C396.171 1059.48 396.202 1058.86 396.265 1058.25C396.416 1056.01 396.541 1053.79 396.692 1051.58Z" fill="#00B0FF"/>
<path opacity="0.1" d="M523.573 970.545V1048.89H475.648V970.545H482.481V944.02H510.529V970.545H523.573Z" fill="#00B0FF"/>
<path opacity="0.1" d="M523.573 1051.57H475.654V1138.52H523.573V1051.57Z" fill="#00B0FF"/>
<path opacity="0.1" d="M475.648 1141.22H523.573V1213.5C517.92 1215.13 512.159 1216.35 506.334 1217.17L504.902 1217.34C504.198 1217.43 503.501 1217.49 502.81 1217.56C502.119 1217.63 501.404 1217.68 500.706 1217.73H500.487C500.185 1217.73 499.859 1217.76 499.563 1217.77H499.243C498.866 1217.77 498.489 1217.81 498.113 1217.82C497.579 1217.85 497.045 1217.86 496.499 1217.87C496.266 1217.87 496.046 1217.87 495.814 1217.87C495.274 1217.87 494.74 1217.87 494.2 1217.87H493.013C492.693 1217.87 492.385 1217.87 492.052 1217.87L490.84 1217.82C490.212 1217.82 489.534 1217.75 488.881 1217.71L487.675 1217.62L486.174 1217.48C485.119 1217.39 484.07 1217.27 483.034 1217.12L481.778 1216.95L481.15 1216.86C480.101 1216.7 479.064 1216.52 478.009 1216.32C477.237 1216.19 476.471 1216.02 475.692 1215.87L475.648 1141.22Z" fill="#00B0FF"/>
<path opacity="0.1" d="M823.151 961.293H783.635V1048.88H823.151V961.293Z" fill="#00B0FF"/>
<path opacity="0.1" d="M823.157 1051.57V1138.53H627.016V1101.02H731.489V1123.15H783.635V1051.57H823.157Z" fill="#00B0FF"/>
<path opacity="0.1" d="M823.778 1234.45H823.15V1291.49C816.075 1290.89 809.02 1290.07 801.986 1289.04C770.318 1284.4 739.447 1275.39 710.255 1262.25C701.827 1258.46 693.571 1254.31 685.486 1249.82C671.981 1242.33 659.042 1233.86 646.774 1224.48C643.692 1222.12 640.651 1219.7 637.649 1217.23C635.57 1215.51 633.504 1213.75 631.412 1212.04C629.962 1210.87 628.498 1209.71 627.016 1208.61V1141.22H783.113C783.007 1140.82 782.9 1140.41 782.787 1140.02C782.906 1140.41 783.019 1140.82 783.126 1141.22H823.15V1234.41C823.364 1234.42 823.571 1234.43 823.778 1234.45Z" fill="#00B0FF"/>
<path opacity="0.1" d="M926.21 954.768H900.461V946.761H912.004V922.907C913.005 923.271 914.001 923.646 914.994 924.032V946.761H926.21V954.768Z" fill="#00B0FF"/>
<path opacity="0.1" d="M988.247 1048.89H861.837C861.837 1048.89 861.837 1048.89 861.881 1048.92L861.825 1048.89H838.374V961.299H845.019V1026.04H875.384V987.699H900.467V957.459H926.217V987.724H951.3V1026.07H988.247V1048.89Z" fill="#00B0FF"/>
<path opacity="0.1" d="M838.374 1051.57V1138.53H988.247V1051.57H838.374ZM1028.93 1240.88L1029.14 1172.06H988.247V1141.26H838.374V1292.43C850.661 1292.94 862.968 1292.79 875.239 1291.99V1291.99H875.453C881.315 1291.62 887.149 1291.08 892.956 1290.38H893.088C924.069 1286.77 954.363 1278.68 983.022 1266.36" fill="#00B0FF"/>
<path opacity="0.1" d="M1047.01 1141.22H1081.97C1081.67 1158.87 1078.12 1176.22 1070.38 1192.23C1063.93 1205.54 1054.96 1217.17 1044.37 1227.34V1172.02H1047.01V1141.22Z" fill="#00B0FF"/>
<path opacity="0.1" d="M1081.99 1138.53H1047.01V1065.86H1065.94C1075.74 1088.77 1081.96 1113.91 1081.99 1138.53Z" fill="#00B0FF"/>
<path opacity="0.1" d="M823.157 985.643H801.986V1013.11H823.157V985.643Z" fill="#00B0FF"/>
<path opacity="0.1" d="M823.157 1042.57H801.986V1048.89H823.157V1042.57Z" fill="#00B0FF"/>
<path opacity="0.1" d="M823.157 1051.57H801.986V1070.02H823.157V1051.57Z" fill="#00B0FF"/>
<path opacity="0.1" d="M823.157 1099.49H801.986V1126.95H823.157V1099.49Z" fill="#00B0FF"/>
<path opacity="0.1" d="M823.157 1156.41H801.986V1183.87H823.157V1156.41Z" fill="#00B0FF"/>
<path opacity="0.1" d="M823.151 1234.41C823.364 1234.41 823.571 1234.41 823.779 1234.45H823.151V1240.83H801.986V1213.33H823.151V1234.41Z" fill="#00B0FF"/>
<path opacity="0.1" d="M717.748 1136.51H627.016V1138.53H717.748V1136.51Z" fill="#00B0FF"/>
<path opacity="0.1" d="M717.748 1141.21H627.016V1148.94H717.748V1141.21Z" fill="#00B0FF"/>
<path opacity="0.1" d="M717.748 1174.29H627.016V1186.72H717.748V1174.29Z" fill="#00B0FF"/>
<path opacity="0.1" d="M717.742 1212.06V1224.5H646.774C643.693 1222.14 640.649 1219.72 637.643 1217.24C635.564 1215.53 633.504 1213.77 631.406 1212.06H717.742Z" fill="#00B0FF"/>
<path opacity="0.1" d="M893.107 1060H875.246V1077.88H893.107V1060Z" fill="#00B0FF"/>
<path opacity="0.1" d="M506.378 976.711H488.517V994.588H506.378V976.711Z" fill="#00B0FF"/>
<path opacity="0.1" d="M506.378 1018.23H488.517V1036.11H506.378V1018.23Z" fill="#00B0FF"/>
<path opacity="0.1" d="M506.378 1059.76H488.517V1077.63H506.378V1059.76Z" fill="#00B0FF"/>
<path opacity="0.1" d="M506.378 1101.27H488.517V1119.15H506.378V1101.27Z" fill="#00B0FF"/>
<path opacity="0.1" d="M506.378 1142.8H488.517V1160.67H506.378V1142.8Z" fill="#00B0FF"/>
<path opacity="0.1" d="M506.378 1184.32H488.517V1202.2H506.378V1184.32Z" fill="#00B0FF"/>
<path opacity="0.1" d="M961.292 1060H943.431V1077.88H961.292V1060Z" fill="#00B0FF"/>
<path opacity="0.1" d="M893.107 1104.1H875.246V1121.97H893.107V1104.1Z" fill="#00B0FF"/>
<path opacity="0.1" d="M961.292 1104.1H943.431V1121.97H961.292V1104.1Z" fill="#00B0FF"/>
<path opacity="0.1" d="M893.107 1148.18H875.246V1166.06H893.107V1148.18Z" fill="#00B0FF"/>
<path opacity="0.1" d="M961.292 1148.18H943.431V1166.06H961.292V1148.18Z" fill="#00B0FF"/>
<path opacity="0.1" d="M893.107 1192.28H875.246V1210.15H893.107V1192.28Z" fill="#00B0FF"/>
<path opacity="0.1" d="M961.292 1192.28H943.431V1210.15H961.292V1192.28Z" fill="#00B0FF"/>
<path opacity="0.1" d="M399.305 1026.54V1036.77H460.431V1026.54H399.305ZM405.397 1036.13H400.41V1027.17H405.434L405.397 1036.13ZM411.482 1036.13H406.458V1027.17H411.482V1036.13ZM417.555 1036.13H412.531V1027.17H417.555V1036.13ZM423.641 1036.13H418.623V1027.17H423.647L423.641 1036.13ZM429.72 1036.13H424.696V1027.17H429.72V1036.13ZM435.806 1036.13H430.782V1027.17H435.806V1036.13ZM441.892 1036.13H436.867V1027.17H441.892V1036.13ZM447.971 1036.13H442.947V1027.17H447.971V1036.13ZM454.05 1036.13H449.026V1027.17H454.05V1036.13ZM460.13 1036.13H455.105V1027.17H460.13V1036.13Z" fill="#00B0FF"/>
<path opacity="0.1" d="M399.305 1056.3V1066.53H460.431V1056.3H399.305ZM405.397 1065.88H400.41V1056.95H405.434L405.397 1065.88ZM411.482 1065.88H406.458V1056.95H411.482V1065.88ZM417.555 1065.88H412.531V1056.95H417.555V1065.88ZM423.641 1065.88H418.623V1056.95H423.647L423.641 1065.88ZM429.72 1065.88H424.696V1056.95H429.72V1065.88ZM435.806 1065.88H430.782V1056.95H435.806V1065.88ZM441.892 1065.88H436.867V1056.95H441.892V1065.88ZM447.971 1065.88H442.947V1056.95H447.971V1065.88ZM454.05 1065.88H449.026V1056.95H454.05V1065.88ZM460.13 1065.88H455.105V1056.95H460.13V1065.88Z" fill="#00B0FF"/>
<path opacity="0.1" d="M399.305 1086.07V1096.31H460.431V1086.07H399.305ZM405.397 1095.65H400.41V1086.71H405.434L405.397 1095.65ZM411.482 1095.65H406.458V1086.71H411.482V1095.65ZM417.555 1095.65H412.531V1086.71H417.555V1095.65ZM423.641 1095.65H418.623V1086.71H423.647L423.641 1095.65ZM429.72 1095.65H424.696V1086.71H429.72V1095.65ZM435.806 1095.65H430.782V1086.71H435.806V1095.65ZM441.892 1095.65H436.867V1086.71H441.892V1095.65ZM447.971 1095.65H442.947V1086.71H447.971V1095.65ZM454.05 1095.65H449.026V1086.71H454.05V1095.65ZM460.13 1095.65H455.105V1086.71H460.13V1095.65Z" fill="#00B0FF"/>
<path opacity="0.1" d="M399.305 1115.84V1126.05H460.431V1115.84H399.305ZM405.397 1125.42H400.41V1116.47H405.434L405.397 1125.42ZM411.482 1125.42H406.458V1116.47H411.482V1125.42ZM417.555 1125.42H412.531V1116.47H417.555V1125.42ZM423.641 1125.42H418.623V1116.47H423.647L423.641 1125.42ZM429.72 1125.42H424.696V1116.47H429.72V1125.42ZM435.806 1125.42H430.782V1116.47H435.806V1125.42ZM441.892 1125.42H436.867V1116.47H441.892V1125.42ZM447.971 1125.42H442.947V1116.47H447.971V1125.42ZM454.05 1125.42H449.026V1116.47H454.05V1125.42ZM460.13 1125.42H455.105V1116.47H460.13V1125.42Z" fill="#00B0FF"/>
<path opacity="0.1" d="M399.568 1145.6C399.813 1146.56 400.09 1147.52 400.379 1148.47V1146.24H405.403V1155.18H402.715C402.796 1155.39 402.878 1155.61 402.96 1155.81H460.431V1145.6H399.568ZM411.501 1155.18H406.477V1146.24H411.501V1155.18ZM417.574 1155.18H412.55V1146.24H417.574V1155.18ZM423.66 1155.18H418.623V1146.24H423.647L423.66 1155.18ZM429.739 1155.18H424.715V1146.24H429.739V1155.18ZM435.825 1155.18H430.8V1146.24H435.825V1155.18ZM441.91 1155.18H436.886V1146.24H441.91V1155.18ZM447.99 1155.18H442.965V1146.24H447.99V1155.18ZM454.069 1155.18H449.045V1146.24H454.069V1155.18ZM460.148 1155.18H455.124V1146.24H460.148V1155.18Z" fill="#00B0FF"/>
<path opacity="0.1" d="M413.762 1175.37C413.919 1175.57 414.069 1175.8 414.233 1176H417.555V1180.29C417.913 1180.72 418.265 1181.14 418.629 1181.55V1175.97H423.653V1184.94H421.618C421.819 1185.15 422.014 1185.37 422.246 1185.57H460.45V1175.37H413.762ZM429.72 1184.94H424.696V1176.01H429.72V1184.94ZM435.806 1184.94H430.781V1176.01H435.806V1184.94ZM441.891 1184.94H436.867V1176.01H441.891V1184.94ZM447.971 1184.94H442.946V1176.01H447.971V1184.94ZM454.05 1184.94H449.026V1176.01H454.05V1184.94ZM460.129 1184.94H455.105V1176.01H460.129V1184.94Z" fill="#00B0FF"/>
<path opacity="0.1" d="M447.292 1205.13C447.864 1205.46 448.448 1205.76 449.038 1206.09V1205.77H454.063V1208.6L455.13 1209.1V1205.77H460.155V1211.21C460.251 1211.26 460.352 1211.29 460.456 1211.32V1205.13H447.292Z" fill="#00B0FF"/>
<path opacity="0.1" d="M861.837 1048.89H861.875H861.837ZM823.151 1234.4H823.779H823.151ZM782.787 1140.01C782.906 1140.41 783.007 1140.82 783.12 1141.21C783.019 1140.82 782.913 1140.41 782.787 1140.01ZM861.837 1048.87H861.875H861.837ZM482.506 954.75V957.433H510.561V954.75H482.506ZM823.151 1234.4H823.779H823.151ZM782.787 1140.01C782.906 1140.41 783.007 1140.82 783.12 1141.21C783.019 1140.82 782.913 1140.41 782.787 1140.01ZM861.837 1048.87H861.875H861.837ZM823.151 1234.38H823.779H823.151ZM782.787 1140.01C782.906 1140.41 783.007 1140.82 783.12 1141.21C783.019 1140.82 782.913 1140.41 782.787 1140.01Z" fill="#00B0FF"/>
<path d="M677.9 1077.65C677.9 1077.65 675.425 1077.3 675.425 1073.69C675.425 1070.08 673.654 1063.35 673.654 1063.35C673.654 1063.31 672.122 1051.61 670.005 1049.75C667.889 1047.89 665.169 1036.97 665.169 1036.97C665.169 1036.97 664.705 1031.04 663.756 1029.76C662.808 1028.49 661.527 1025.36 659.636 1020.91C657.746 1016.45 649.864 1013.36 649.864 1013.36C649.864 1013.36 635.614 1005.09 631.576 1002.39C631.209 1002.17 630.866 1001.91 630.552 1001.62C629.849 1000.7 626.784 1000.68 626.784 1000.68C626.464 998.655 626.156 996.329 626.056 994.223C626.056 993.997 626.056 993.771 626.024 993.544C630.527 990.88 633.919 986.68 635.577 981.715C635.652 981.476 635.715 981.225 635.784 980.986C636.054 980.897 636.302 980.752 636.513 980.562C636.724 980.371 636.893 980.139 637.008 979.879C637.373 979.069 637.379 978.119 637.831 977.365C638.359 976.473 639.364 975.995 640.155 975.322C642.152 973.625 642.667 970.765 642.573 968.163C642.51 966.057 642.171 963.933 642.303 961.84L642.34 961.312C642.378 960.997 642.422 960.683 642.479 960.381C642.786 958.823 643.458 957.352 643.835 955.806C644.212 954.259 644.25 952.518 643.37 951.186C642.083 949.231 639.401 948.841 637.046 948.64C634.377 948.414 631.99 948.709 630.282 946.49C629.483 945.331 628.583 944.243 627.594 943.241C627.243 942.914 623.826 940.827 623.826 940.689C620.492 939.143 616.712 938.853 613.181 939.872C611.41 940.387 609.739 941.229 607.943 941.65C604.068 942.568 599.609 941.575 596.318 943.794C594.484 945.051 593.385 947.05 592.355 948.998C591.518 950.603 590.668 952.206 589.806 953.807C588.418 956.44 587.005 959.118 586.421 962.035C586.298 962.669 586.222 963.312 586.194 963.958V963.989C586.194 964.222 586.194 964.455 586.194 964.687V964.983C586.194 965.203 586.194 965.416 586.232 965.611C586.27 965.806 586.264 965.869 586.282 966.001C586.301 966.133 586.333 966.428 586.37 966.629C586.408 966.83 586.483 967.182 586.559 967.459C586.59 967.578 586.634 967.692 586.672 967.805C586.735 968.018 586.81 968.226 586.892 968.433C586.936 968.54 586.979 968.653 587.03 968.76C587.124 968.98 587.237 969.194 587.35 969.389C587.4 969.477 587.438 969.558 587.488 969.64C587.663 969.932 587.856 970.214 588.066 970.482C589.41 972.161 591.388 973.229 592.852 974.801C592.852 974.864 592.852 974.926 592.852 974.983C592.852 975.159 592.852 975.329 592.852 975.505C592.929 979.009 593.861 982.442 595.567 985.504C597.272 988.565 599.699 991.164 602.636 993.073C602.636 993.312 602.668 993.557 602.68 993.796C602.803 995.662 602.78 997.534 602.611 999.396C602.355 999.095 602.035 998.855 601.674 998.694C601.314 998.533 600.921 998.455 600.526 998.466C600.256 998.453 599.986 998.476 599.722 998.535L599.666 998.491V998.548C598.284 998.887 596.582 1000.33 594.955 1004.42C594.955 1004.42 590.007 1010 586.238 1009.77C582.47 1009.53 572.93 1015.58 572.93 1015.58C572.93 1015.58 563.623 1021.62 561.626 1027.78C560.51 1031.28 559.171 1034.69 557.619 1038.02L546.113 1061.74L543.991 1080.57C543.991 1080.57 545.165 1088.94 544.933 1090.22C544.7 1091.49 549.762 1103 549.762 1103C549.762 1103 566.487 1132.41 573.32 1133.92L573.81 1133.58C574.102 1133.73 574.412 1133.84 574.733 1133.92L576.14 1132.93C576.224 1134.03 576.188 1135.15 576.033 1136.25C575.091 1139.15 576.385 1158.1 578.03 1161.82C579.675 1165.53 579.091 1214.24 579.091 1214.24L578.859 1218.54C578.859 1218.54 578.859 1218.68 578.916 1218.91L578.859 1219.93L579.029 1220.02C579.205 1221.38 579.147 1222.77 578.859 1224.11C578.269 1226 578.03 1231.33 578.03 1231.33C578.03 1231.33 573.326 1261.42 575.556 1267.47C577.785 1273.52 579.682 1280.14 579.682 1280.14C579.682 1280.14 582.037 1287.69 579.795 1288.97C577.553 1290.26 571.178 1292.43 572.491 1295.57C573.684 1298.47 578.212 1306.25 578.884 1307.39L578.828 1307.99L577.904 1318C578.054 1319.32 578.412 1320.61 578.966 1321.82C579.977 1324 581.943 1326.27 585.679 1326.02C586.307 1325.98 587.036 1325.9 587.739 1325.81C594.579 1324.89 603.001 1321.84 603.001 1321.84C602.563 1321.56 602.162 1321.23 601.807 1320.85V1320.85C601.471 1320.52 601.205 1320.13 601.024 1319.7C600.844 1319.27 600.754 1318.8 600.759 1318.33C600.859 1316.51 597.449 1307.82 596.601 1305.69C596.469 1305.38 596.4 1305.2 596.4 1305.2C596.4 1305.2 604.175 1297.07 602.881 1289.86C602.881 1289.86 594.277 1284.83 597.11 1282.07C599.942 1279.31 605.004 1271.39 605.004 1271.39C605.004 1271.39 605.236 1241.75 605.004 1237.33C604.762 1234.25 604.907 1231.16 605.437 1228.13C605.532 1227.67 605.645 1227.22 605.764 1226.78C609.681 1227.37 613.635 1227.67 617.596 1227.68C619.041 1227.68 620.51 1227.68 621.992 1227.6C621.992 1228.01 622.011 1228.47 622.049 1228.95C622.375 1236.29 622.985 1249.17 623.481 1253.95C624.184 1260.81 628.072 1279.29 628.072 1279.29C628.072 1279.29 620.655 1284.05 629.365 1295.79C629.365 1295.79 629.365 1300.05 628.788 1300.67C628.171 1302.68 627.674 1304.73 627.299 1306.8C626.935 1309.01 626.784 1311.25 627.374 1312.41C628.788 1315.19 637.266 1314.97 637.266 1314.97L637.473 1314.93C639.074 1314.76 640.691 1314.92 642.232 1315.38C643.773 1315.85 645.206 1316.61 646.448 1317.64C649.67 1320.23 661.897 1319.09 668.517 1318.27C671.111 1317.94 672.844 1317.64 672.844 1317.64C672.928 1317.34 672.958 1317.04 672.932 1316.73C672.863 1315.1 671.588 1311.53 662.946 1308.35C662.946 1308.35 654.819 1302.88 654.932 1298.11H654.763H653.821C654.505 1298.08 654.945 1298.11 654.945 1298.11C654.945 1298.11 651.761 1286.49 653.061 1285.54C654.361 1284.6 650.467 1271.71 650.467 1271.71C650.467 1271.71 648.238 1250.09 648.118 1248.58C648.123 1247.28 648.32 1245.98 648.702 1244.74L648.118 1232.89C648.118 1232.89 648.005 1228.95 648.118 1227.66C648.099 1226.55 648.009 1225.44 647.848 1224.34C647.792 1223.9 647.735 1223.44 647.672 1222.99C650.718 1222.21 652.697 1221.5 652.697 1221.5L652.345 1180.23C654.932 1175.2 655.41 1164.17 655.397 1156.35C655.397 1151.32 655.171 1147.6 655.171 1147.6L658.707 1141.82C658.707 1141.82 659.523 1134.91 658.23 1133.39C657.658 1132.71 657.916 1132 658.387 1131.41C658.631 1131.22 658.889 1131.04 659.159 1130.88C659.159 1130.88 659.121 1130.83 659.078 1130.75C659.324 1130.54 659.587 1130.35 659.863 1130.19C659.863 1130.19 658.606 1128.24 659.731 1127.42C660.786 1128.13 661.728 1128.67 662.444 1129.11C662.394 1129.57 662.343 1129.84 662.343 1129.84L662.645 1129.21C663.336 1129.6 663.756 1129.84 663.756 1129.84C663.756 1129.84 669.296 1118.79 669.176 1117.16C669.057 1115.54 672.944 1108.68 672.944 1108.68C672.944 1108.68 673.415 1105.08 675.538 1103.57C677.661 1102.06 677.184 1091.13 677.184 1091.13C677.184 1091.13 677.774 1085.43 679.187 1083.11C680.6 1080.78 677.9 1077.65 677.9 1077.65ZM571.913 1072.8L572.02 1075.43C571.392 1074.42 570.94 1073.69 570.94 1073.69L571.913 1072.8Z" fill="url(#paint0_linear)"/>
<path d="M664.058 1125.06L662.701 1130.85C662.701 1130.85 651.836 1125.3 649.877 1118.24C647.917 1111.19 653.155 1108.51 653.155 1108.51L663.279 1112.81L664.058 1125.06Z" fill="white"/>
<path opacity="0.1" d="M664.058 1125.06L662.701 1130.85C662.701 1130.85 651.836 1125.3 649.877 1118.24C647.917 1111.19 653.155 1108.51 653.155 1108.51L663.279 1112.81L664.058 1125.06Z" fill="black"/>
<path d="M617.992 1024.03C609.702 1020.81 599.038 1010.15 601.7 1005.17C602.292 1003.92 602.643 1002.56 602.737 1001.18C602.908 999.294 602.933 997.403 602.812 995.518C602.625 992.431 602.254 989.358 601.7 986.316C601.7 986.316 627.582 986.9 626.074 990.716C625.635 991.835 625.566 993.777 625.685 995.952C625.804 998.127 626.118 1000.58 626.445 1002.66C626.897 1005.52 627.349 1007.69 627.349 1007.69C627.349 1007.69 625.767 1009.91 624.837 1010.03C623.908 1010.15 629.887 1028.62 617.992 1024.03Z" fill="#CF6F80"/>
<path d="M606.436 1225.43C606.015 1226.47 605.695 1227.55 605.481 1228.65C604.957 1231.67 604.812 1234.75 605.048 1237.8C605.28 1242.2 605.048 1271.69 605.048 1271.69C605.048 1271.69 600.08 1279.55 597.31 1282.32C594.541 1285.1 602.963 1290.07 602.963 1290.07C604.219 1297.24 596.607 1305.34 596.607 1305.34C588.87 1295.97 579.512 1307.65 579.512 1307.65C579.512 1307.65 574.425 1298.85 573.156 1295.71C571.888 1292.56 578.124 1290.39 580.316 1289.11C582.508 1287.84 580.209 1280.31 580.209 1280.31C580.209 1280.31 578.356 1273.72 576.158 1267.7C573.96 1261.69 578.583 1231.74 578.583 1231.74C578.583 1231.74 578.821 1226.43 579.393 1224.57C579.681 1223.23 579.738 1221.86 579.562 1220.5C579.525 1220.04 579.481 1219.66 579.449 1219.4C579.418 1219.14 579.393 1219.02 579.393 1219.02L579.481 1218.87L582.621 1213.01C582.621 1213.01 607.943 1221.74 606.436 1225.43Z" fill="#00B0FF"/>
<path opacity="0.1" d="M626.074 990.716C625.634 991.835 625.565 993.777 625.685 995.952C622.218 998.041 618.233 999.109 614.187 999.034C610.141 998.958 606.198 997.742 602.812 995.524C602.625 992.435 602.254 989.36 601.7 986.316C601.7 986.316 627.581 986.888 626.074 990.716Z" fill="black"/>
<path d="M636.079 976.825C636.084 979.09 635.727 981.341 635.023 983.494C633.45 988.317 630.223 992.428 625.914 995.101C621.605 997.774 616.49 998.836 611.474 998.099C606.458 997.363 601.864 994.876 598.503 991.077C595.142 987.278 593.232 982.412 593.109 977.34C593.109 977.164 593.109 977.001 593.109 976.825C593.06 973.969 593.58 971.133 594.638 968.481C595.696 965.829 597.271 963.414 599.271 961.378C601.271 959.342 603.656 957.724 606.288 956.62C608.919 955.516 611.744 954.948 614.597 954.948C617.45 954.948 620.275 955.516 622.906 956.62C625.537 957.724 627.922 959.342 629.923 961.378C631.923 963.414 633.498 965.829 634.556 968.481C635.614 971.133 636.134 973.969 636.085 976.825H636.079Z" fill="#CF6F80"/>
<path opacity="0.1" d="M617.992 1024.03C609.702 1020.81 599.038 1010.15 601.7 1005.17C602.292 1003.92 602.643 1002.56 602.737 1001.18L614.085 1010.51L621.107 1016.27L626.445 1002.67C626.897 1005.52 627.349 1007.7 627.349 1007.7C627.349 1007.7 625.767 1009.92 624.837 1010.04C623.908 1010.16 629.887 1028.62 617.992 1024.03Z" fill="black"/>
<path d="M647.339 1065.28L637.862 1224.62L625.503 1225.43L593.498 1133.04L598.748 1023.35L599.854 1000.18L614.085 1011.87L621.113 1017.64L626.608 1003.64L636.826 1012.55L647.339 1065.28Z" fill="#00B0FF"/>
<path opacity="0.1" d="M606.436 1225.43C606.015 1226.47 605.695 1227.55 605.481 1228.65C596.488 1227.26 587.753 1224.53 579.568 1220.55L579.399 1220.46L579.455 1219.45L579.487 1218.92L582.627 1213.06C582.627 1213.06 607.943 1221.74 606.436 1225.43Z" fill="black"/>
<path opacity="0.1" d="M629.428 1227.29C603.679 1231.69 580.096 1219.07 580.096 1219.07L580.322 1214.8C580.322 1214.8 580.906 1166.34 579.286 1162.63C577.666 1158.91 576.403 1140.07 577.32 1137.18C578.237 1134.29 573.973 1090.93 573.973 1090.93L573.282 1073.33L547.998 1063.08L559.302 1039.5C560.829 1036.19 562.142 1032.79 563.234 1029.32C565.199 1023.19 574.325 1017.18 574.325 1017.18C574.325 1017.18 583.682 1011.17 587.381 1011.4C591.081 1011.62 595.929 1006.08 595.929 1006.08C599.509 996.945 602.749 1001.08 602.749 1001.08C602.749 1001.51 602.749 1001.08 602.573 1002.43C601.317 1012.46 622.884 1044.14 623.192 1044.7L625.245 1094.77L627.324 1158.13L629.428 1227.29Z" fill="black"/>
<path d="M628.737 1227.29C602.988 1231.69 579.399 1219.07 579.399 1219.07L579.631 1214.8C579.631 1214.8 580.215 1166.34 578.589 1162.63C576.962 1158.91 575.706 1140.07 576.629 1137.18C577.552 1134.29 573.282 1090.93 573.282 1090.93L572.585 1073.33L547.288 1063.04L558.592 1039.46C560.116 1036.15 561.429 1032.75 562.524 1029.28C564.483 1023.16 573.615 1017.14 573.615 1017.14C573.615 1017.14 582.972 1011.13 586.665 1011.36C590.358 1011.58 595.213 1006.04 595.213 1006.04C598.799 996.907 602.749 1001.04 602.749 1001.04C602.749 1001.48 602.372 1001.67 602.573 1002.39C605.337 1012.12 622.193 1044.1 622.501 1044.66L624.579 1094.73L626.658 1158.1L628.737 1227.29Z" fill="white"/>
<path opacity="0.1" d="M621.797 1046.09C619.028 1044.93 604.357 1028.17 604.357 1028.17V1024.35C603.823 1023.09 600.652 1023.86 598.077 1024.74L599.182 1001.56L600.438 1002.61C603.189 1012.33 621.477 1045.53 621.797 1046.09Z" fill="black"/>
<path d="M622.495 1044.7C619.719 1043.54 605.048 1026.78 605.048 1026.78V1022.96C604.514 1021.7 601.343 1022.47 598.768 1023.35L599.879 1000.18L601.135 1001.22C603.892 1010.94 622.187 1044.14 622.495 1044.7Z" fill="white"/>
<path opacity="0.1" d="M580.096 1128.3C580.442 1128.3 598.001 1126.45 598.001 1126.45C598.001 1126.45 608.634 1147.38 607.937 1152.47C607.24 1157.56 605.977 1162.07 601.7 1161.27C597.424 1160.47 578.683 1161.9 578.683 1161.9L580.096 1128.3Z" fill="black"/>
<path d="M579.399 1126.91C579.744 1126.91 597.304 1125.06 597.304 1125.06C597.304 1125.06 607.93 1146 607.24 1151.08C606.549 1156.17 605.274 1160.68 601.003 1159.88C596.733 1159.08 577.986 1160.51 577.986 1160.51L579.399 1126.91Z" fill="white"/>
<path d="M592.631 1117.09C592.631 1117.09 608.747 1125.76 609.092 1128.4C609.438 1131.05 600.89 1127.25 599.044 1126.79C597.828 1126.49 596.591 1126.3 595.345 1126.21L583.029 1126.54L592.631 1117.09Z" fill="#CF6F80"/>
<path opacity="0.1" d="M617.301 1047.17C618.237 1047.17 618.996 1046.41 618.996 1045.47C618.996 1044.53 618.237 1043.77 617.301 1043.77C616.364 1043.77 615.605 1044.53 615.605 1045.47C615.605 1046.41 616.364 1047.17 617.301 1047.17Z" fill="black"/>
<path d="M617.301 1046.48C618.237 1046.48 618.996 1045.72 618.996 1044.78C618.996 1043.84 618.237 1043.08 617.301 1043.08C616.364 1043.08 615.605 1043.84 615.605 1044.78C615.605 1045.72 616.364 1046.48 617.301 1046.48Z" fill="#3F3D56"/>
<path opacity="0.1" d="M620.422 1120.63C621.358 1120.63 622.117 1119.87 622.117 1118.94C622.117 1118 621.358 1117.24 620.422 1117.24C619.485 1117.24 618.726 1118 618.726 1118.94C618.726 1119.87 619.485 1120.63 620.422 1120.63Z" fill="black"/>
<path d="M620.422 1119.94C621.358 1119.94 622.117 1119.18 622.117 1118.24C622.117 1117.3 621.358 1116.54 620.422 1116.54C619.485 1116.54 618.726 1117.3 618.726 1118.24C618.726 1119.18 619.485 1119.94 620.422 1119.94Z" fill="#3F3D56"/>
<path opacity="0.1" d="M618.99 1083.9C619.927 1083.9 620.686 1083.14 620.686 1082.2C620.686 1081.27 619.927 1080.51 618.99 1080.51C618.054 1080.51 617.294 1081.27 617.294 1082.2C617.294 1083.14 618.054 1083.9 618.99 1083.9Z" fill="black"/>
<path d="M618.99 1083.21C619.927 1083.21 620.686 1082.45 620.686 1081.51C620.686 1080.57 619.927 1079.81 618.99 1079.81C618.054 1079.81 617.294 1080.57 617.294 1081.51C617.294 1082.45 618.054 1083.21 618.99 1083.21Z" fill="#3F3D56"/>
<path d="M658.079 1125.86C658.079 1125.86 659.234 1127.59 658.079 1128.4C656.923 1129.21 658.192 1131.17 658.192 1131.17C658.192 1131.17 655.309 1132.86 656.578 1134.39C657.846 1135.91 657.042 1142.78 657.042 1142.78L653.576 1148.52C653.576 1148.52 653.783 1152.22 653.796 1157.23C653.796 1165.03 653.337 1176.01 650.8 1181.01L651.152 1222.06C651.152 1222.06 639.012 1226.5 628.85 1225.15L627.343 1159.28C627.343 1159.28 629.541 1121.92 630.351 1114.76C630.825 1111.04 631.018 1107.29 630.929 1103.54C630.929 1103.54 630.583 1092.32 629.422 1087.12C629.422 1087.12 628.166 1064.57 628.04 1058.33C627.983 1055.34 628.14 1046.63 628.316 1038.35C628.511 1029.29 628.731 1020.75 628.731 1020.75L626.438 1002.6C626.438 1002.6 628.731 1002.36 629.422 1003.29C629.731 1003.58 630.068 1003.84 630.426 1004.06V1004.06C634.383 1006.74 648.363 1014.97 648.363 1014.97C648.363 1014.97 656.1 1018.05 657.953 1022.46C659.806 1026.88 661.093 1030.01 661.991 1031.26C662.889 1032.52 663.379 1038.43 663.379 1038.43C663.379 1038.43 666.042 1049.3 668.121 1051.15C670.2 1052.99 671.72 1064.7 671.72 1064.7L653.35 1079.16C653.35 1079.16 651.736 1103.21 651.39 1104.14C651.045 1105.07 658.079 1125.86 658.079 1125.86Z" fill="white"/>
<path d="M658.776 1125.86C658.776 1125.86 659.925 1127.59 658.776 1128.4C657.627 1129.21 658.883 1131.17 658.883 1131.17C658.883 1131.17 656.019 1132.88 657.275 1134.4C658.531 1135.93 657.74 1142.8 657.74 1142.8L654.273 1148.54C654.273 1148.54 654.48 1152.24 654.499 1157.25C654.499 1165.05 654.04 1176.03 651.503 1181.03L651.849 1222.08C651.849 1222.08 639.69 1226.52 629.541 1225.17L628.04 1159.3C628.04 1159.3 630.238 1121.94 631.048 1114.77C631.523 1111.05 631.714 1107.3 631.62 1103.56C631.62 1103.56 631.274 1092.34 630.119 1087.14C630.119 1087.14 628.863 1064.59 628.731 1058.35C628.674 1055.36 628.838 1046.65 629.007 1038.37C629.202 1029.31 629.422 1020.77 629.422 1020.77L626.395 1002.37C626.395 1002.37 629.422 1002.37 630.119 1003.31C630.425 1003.6 630.762 1003.86 631.124 1004.08C635.08 1006.76 649.066 1014.99 649.066 1014.99C649.066 1014.99 656.798 1018.07 658.65 1022.48C660.503 1026.9 661.79 1030.03 662.695 1031.28C663.599 1032.54 664.076 1038.45 664.076 1038.45C664.076 1038.45 666.739 1049.32 668.818 1051.16C670.897 1053.01 672.398 1064.7 672.398 1064.7L654.028 1079.15C654.028 1079.15 652.414 1103.2 652.062 1104.13C651.71 1105.06 658.776 1125.86 658.776 1125.86Z" fill="white"/>
<path opacity="0.1" d="M636.776 1026.1L638.434 1030.94L629.704 1039.74C629.899 1030.69 630.119 1022.14 630.119 1022.14L627.092 1003.75C627.092 1003.75 630.119 1003.75 630.816 1004.68C631.122 1004.97 631.459 1005.23 631.821 1005.45L639.244 1026.88L636.776 1026.1Z" fill="black"/>
<path d="M636.079 1024.71L637.743 1029.55L629.013 1038.35C629.208 1029.3 629.428 1020.75 629.428 1020.75L626.395 1002.36C626.395 1002.36 629.428 1002.36 630.119 1003.29C630.427 1003.58 630.763 1003.84 631.124 1004.07L638.553 1025.49L636.079 1024.71Z" fill="white"/>
<path opacity="0.1" d="M636.079 976.825C636.084 979.09 635.727 981.341 635.023 983.494C634.905 983.512 634.784 983.507 634.667 983.478C634.551 983.448 634.441 983.396 634.345 983.324C634.182 977.667 631.4 972.356 627.977 967.836C627.016 966.472 625.851 965.263 624.523 964.253C623.18 963.244 621.51 962.771 619.838 962.927C617.954 963.185 616.289 964.467 614.386 964.631C611.874 964.838 609.626 963.097 607.133 963.009C606.119 963.018 605.119 963.244 604.2 963.671C603.28 964.098 602.462 964.717 601.801 965.485C600.491 967.036 599.518 968.843 598.943 970.79C597.956 973.744 597.418 976.829 597.348 979.942C597.316 981.702 597.147 983.909 595.514 984.55C595.637 983.255 595.49 981.949 595.082 980.715C594.675 979.48 594.016 978.344 593.146 977.378L593.109 977.34C593.109 977.164 593.109 977.001 593.109 976.825C593.06 973.969 593.58 971.133 594.638 968.481C595.696 965.829 597.271 963.414 599.271 961.378C601.271 959.342 603.656 957.724 606.288 956.62C608.919 955.516 611.744 954.948 614.597 954.948C617.45 954.948 620.275 955.516 622.906 956.62C625.537 957.724 627.922 959.342 629.923 961.378C631.923 963.414 633.498 965.829 634.556 968.481C635.614 971.133 636.134 973.969 636.085 976.825H636.079Z" fill="black"/>
<path d="M623.493 942.675C620.229 941.138 616.518 940.848 613.055 941.858C611.315 942.373 609.676 943.209 607.911 943.63C604.143 944.542 599.747 943.555 596.513 945.761C594.717 947.018 593.636 949.005 592.631 950.934L590.119 955.724C588.75 958.345 587.369 961.01 586.797 963.895C586.226 966.78 586.571 970.011 588.399 972.33C589.73 974.021 591.696 975.084 593.14 976.674C594.006 977.641 594.662 978.777 595.068 980.01C595.475 981.243 595.622 982.547 595.502 983.839C597.141 983.211 597.298 980.998 597.335 979.238C597.405 976.125 597.943 973.04 598.931 970.086C599.504 968.138 600.477 966.331 601.788 964.781C602.45 964.014 603.268 963.396 604.188 962.969C605.107 962.542 606.107 962.315 607.12 962.305C609.632 962.393 611.887 964.128 614.374 963.92C616.258 963.763 617.929 962.475 619.825 962.223C621.498 962.065 623.169 962.538 624.51 963.549C625.838 964.558 627.001 965.766 627.958 967.132C631.387 971.652 634.169 976.95 634.333 982.62C635.042 983.142 636.066 982.463 636.418 981.658C636.77 980.854 636.782 979.911 637.228 979.144C637.743 978.258 638.729 977.786 639.501 977.12C641.461 975.429 641.951 972.582 641.875 969.998C641.8 967.415 641.298 964.794 641.788 962.255C642.083 960.696 642.748 959.237 643.113 957.698C643.477 956.158 643.521 954.429 642.66 953.103C641.404 951.154 638.76 950.771 636.456 950.588C633.837 950.362 631.494 950.651 629.824 948.445C629.039 947.294 628.157 946.213 627.186 945.214C626.853 944.887 623.493 942.813 623.493 942.675Z" fill="#512E4E"/>
<path opacity="0.1" d="M555.232 1075.23L548.669 1063.08L546.59 1081.82C546.59 1081.82 547.746 1090.14 547.514 1091.42C547.281 1092.69 552.249 1104.13 552.249 1104.13C552.249 1104.13 568.659 1133.39 575.36 1134.9L598.001 1118.7L591.997 1111.07C591.997 1111.07 589.918 1110.26 589.397 1111.07C589.397 1111.07 578.249 1091.88 577.094 1090.49C575.938 1089.1 576.164 1086.33 576.164 1086.33C576.164 1086.33 574.431 1084.48 575.009 1082.74C575.587 1081.01 571.661 1074.99 571.661 1074.99L575.241 1071.64L555.232 1075.23Z" fill="black"/>
<path d="M549.015 1061.7L547.281 1063.08L545.203 1081.82C545.203 1081.82 546.358 1090.14 546.126 1091.42C545.893 1092.69 550.867 1104.13 550.867 1104.13C550.867 1104.13 567.272 1133.39 573.973 1134.9L596.62 1118.7L590.609 1111.07C590.609 1111.07 588.531 1110.26 588.009 1111.07C588.009 1111.07 576.862 1091.88 575.706 1090.49C574.551 1089.1 574.783 1086.33 574.783 1086.33C574.783 1086.33 573.05 1084.48 573.627 1082.74C574.205 1081.01 570.274 1074.99 570.274 1074.99L573.853 1071.64L549.015 1061.7Z" fill="white"/>
<path opacity="0.1" d="M656.578 1135.1C657.834 1136.63 657.043 1143.49 657.043 1143.49L653.576 1149.23C653.576 1149.23 653.783 1152.94 653.796 1157.94L647.968 1159.76C647.441 1159.93 646.883 1159.96 646.339 1159.87C645.795 1159.77 645.283 1159.55 644.843 1159.21C644.404 1158.88 644.05 1158.44 643.813 1157.95C643.575 1157.45 643.46 1156.9 643.477 1156.35L644.482 1123.91L658.079 1129.11C656.923 1129.92 658.192 1131.89 658.192 1131.89C658.192 1131.89 655.309 1133.58 656.578 1135.1Z" fill="black"/>
<path d="M657.275 1134.4C658.531 1135.93 657.739 1142.8 657.739 1142.8L654.273 1148.54C654.273 1148.54 654.48 1152.24 654.499 1157.25L648.564 1159.1C648.048 1159.26 647.501 1159.3 646.969 1159.2C646.437 1159.11 645.935 1158.89 645.505 1158.56C645.075 1158.24 644.729 1157.81 644.497 1157.32C644.264 1156.83 644.151 1156.3 644.168 1155.76L645.179 1123.22L658.782 1128.42C657.62 1129.23 658.889 1131.19 658.889 1131.19C658.889 1131.19 656.019 1132.88 657.275 1134.4Z" fill="white"/>
<path d="M661.778 1118.94C661.778 1118.94 660.855 1124.84 658.544 1125.19C656.232 1125.54 655.196 1134.74 652.891 1134.41C650.586 1134.08 652.112 1125.86 652.194 1124.26C652.276 1122.66 649.682 1116.05 651.623 1114.55C653.563 1113.05 659.705 1114.55 659.705 1114.55L661.778 1118.94Z" fill="#CF6F80"/>
<path opacity="0.1" d="M666.695 1073.49L671.054 1064.69C671.054 1064.69 672.787 1071.4 672.787 1074.98C672.787 1078.56 675.212 1078.92 675.212 1078.92C675.212 1078.92 677.868 1082.06 676.468 1084.35C675.067 1086.63 674.502 1092.33 674.502 1092.33C674.502 1092.33 674.96 1103.2 672.882 1104.7C670.803 1106.2 670.369 1109.79 670.369 1109.79C670.369 1109.79 666.551 1116.61 666.67 1118.23C666.79 1119.85 661.357 1130.83 661.357 1130.83C661.357 1130.83 664.014 1117.19 648.533 1111.29C648.533 1111.29 648.413 1106.66 649.569 1105.39C650.725 1104.12 652.527 1103.54 651.397 1097.12C650.266 1090.71 651.07 1083.04 651.07 1081.5C651.07 1079.96 654.537 1070.35 654.537 1070.35L666.695 1073.49Z" fill="black"/>
<path d="M668.579 1063.43L672.385 1064.69C672.385 1064.69 674.125 1071.4 674.125 1074.98C674.125 1078.56 676.549 1078.92 676.549 1078.92C676.549 1078.92 679.206 1082.06 677.805 1084.35C676.405 1086.63 675.846 1092.33 675.846 1092.33C675.846 1092.33 676.304 1103.2 674.225 1104.7C672.147 1106.2 671.682 1109.79 671.682 1109.79C671.682 1109.79 667.87 1116.61 667.989 1118.23C668.108 1119.85 662.67 1130.83 662.67 1130.83C662.67 1130.83 665.333 1117.19 649.845 1111.29C649.845 1111.29 649.732 1106.66 650.888 1105.39C652.043 1104.12 653.846 1103.54 652.715 1097.12C651.585 1090.71 652.389 1083.04 652.389 1081.5C652.389 1079.96 655.856 1070.35 655.856 1070.35L668.579 1063.43Z" fill="white"/>
<g opacity="0.1">
<path opacity="0.1" d="M639.514 975.743C638.742 976.41 637.749 976.887 637.234 977.774C636.795 978.534 636.782 979.471 636.431 980.288C636.079 981.105 635.055 981.771 634.345 981.256C634.182 975.599 631.394 970.288 627.971 965.762C627.014 964.396 625.851 963.187 624.523 962.179C623.179 961.168 621.506 960.695 619.832 960.853C617.948 961.111 616.29 962.393 614.387 962.55C611.875 962.764 609.62 961.023 607.127 960.935C606.113 960.945 605.114 961.171 604.196 961.6C603.277 962.028 602.461 962.648 601.801 963.417C600.49 964.965 599.516 966.77 598.943 968.716C597.956 971.67 597.419 974.755 597.348 977.868C597.31 979.622 597.147 981.809 595.527 982.463C595.565 982.927 595.565 983.394 595.527 983.858C597.16 983.23 597.323 981.017 597.361 979.257C597.431 976.144 597.968 973.059 598.956 970.105C599.529 968.157 600.502 966.35 601.813 964.8C602.474 964.033 603.291 963.415 604.21 962.988C605.128 962.561 606.127 962.334 607.139 962.324C609.651 962.412 611.912 964.147 614.399 963.939C616.283 963.782 617.954 962.493 619.844 962.242C621.518 962.084 623.191 962.557 624.536 963.568C625.863 964.577 627.027 965.785 627.984 967.151C631.406 971.67 634.195 976.969 634.358 982.639C635.068 983.161 636.091 982.482 636.443 981.677C636.795 980.873 636.807 979.93 637.247 979.163C637.762 978.277 638.754 977.805 639.527 977.139C641.486 975.448 641.976 972.601 641.901 970.017C641.901 969.936 641.901 969.854 641.901 969.778C641.781 972.016 641.185 974.298 639.514 975.743Z" fill="black"/>
<path opacity="0.1" d="M593.153 975.297C591.708 973.707 589.736 972.645 588.411 970.96C587.295 969.469 586.658 967.674 586.584 965.812C586.386 968.139 587.035 970.458 588.411 972.343C589.736 974.034 591.708 975.096 593.153 976.686C594.54 978.242 595.372 980.214 595.521 982.293C595.617 981.028 595.457 979.756 595.05 978.553C594.643 977.351 593.998 976.244 593.153 975.297V975.297Z" fill="black"/>
<path opacity="0.1" d="M643.125 956.321C642.755 957.861 642.095 959.325 641.794 960.878C641.615 961.915 641.55 962.969 641.599 964.021C641.62 963.422 641.685 962.825 641.794 962.236C642.095 960.677 642.755 959.219 643.125 957.679C643.341 956.829 643.411 955.949 643.333 955.076C643.294 955.496 643.224 955.912 643.125 956.321V956.321Z" fill="black"/>
</g>
<path d="M473.331 1118.8H469.393V1207.53H473.331V1118.8Z" fill="#535461"/>
<path d="M498.075 1207.26L497.83 1211.26L497.478 1216.92L497.334 1219.27L496.989 1224.92L496.838 1227.27L496.486 1232.93L492.517 1297.09C492.344 1299.85 491.127 1302.44 489.114 1304.33C487.1 1306.23 484.441 1307.28 481.677 1307.28H461.04C458.277 1307.28 455.619 1306.23 453.606 1304.33C451.593 1302.44 450.377 1299.85 450.206 1297.09L446.256 1232.89L445.904 1227.23L445.76 1224.88L445.408 1219.22L445.264 1216.87L444.912 1211.22L444.661 1207.22C444.617 1206.45 444.731 1205.68 444.996 1204.95C445.26 1204.23 445.67 1203.57 446.199 1203.01C446.728 1202.45 447.366 1202 448.074 1201.7C448.781 1201.39 449.543 1201.24 450.313 1201.24H492.523C493.29 1201.25 494.048 1201.41 494.749 1201.72C495.451 1202.03 496.081 1202.48 496.601 1203.05C497.121 1203.61 497.521 1204.28 497.774 1205C498.028 1205.73 498.13 1206.5 498.075 1207.26V1207.26Z" fill="#3F3D56"/>
<path d="M497.83 1211.26L497.479 1216.9H445.239L444.887 1211.26H497.83Z" fill="#9D9CB5"/>
<path d="M438.877 1152.05C461.806 1168.66 471.377 1194.63 471.377 1194.63C471.377 1194.63 443.744 1193.68 420.808 1177.08C397.873 1160.47 388.32 1134.51 388.32 1134.51C388.32 1134.51 415.941 1135.45 438.877 1152.05Z" fill="#00B0FF"/>
<path d="M388.301 1134.51C388.301 1134.51 416.99 1150.44 426.19 1163.63C435.391 1176.83 471.377 1194.63 471.377 1194.63" stroke="#535461" stroke-width="2" stroke-miterlimit="10"/>
<path d="M453.68 1118.6C466.159 1127.64 471.377 1141.77 471.377 1141.77C471.377 1141.77 456.336 1141.26 443.851 1132.22C431.366 1123.19 426.159 1109.05 426.159 1109.05C426.159 1109.05 441.194 1109.56 453.68 1118.6Z" fill="#00B0FF"/>
<path d="M426.159 1109.05C426.159 1109.05 441.772 1117.72 446.777 1124.9C451.783 1132.08 471.377 1141.77 471.377 1141.77" stroke="#535461" stroke-width="2" stroke-miterlimit="10"/>
<path d="M489.496 1141.06C475.158 1156.83 472.125 1177.44 472.125 1177.44C472.125 1177.44 492.341 1172.47 506.666 1156.69C520.992 1140.92 524.038 1120.31 524.038 1120.31C524.038 1120.31 503.834 1125.28 489.496 1141.06Z" fill="#00B0FF"/>
<path d="M524.05 1120.32C524.05 1120.32 505.373 1136.49 500.625 1147.62C495.877 1158.76 472.125 1177.44 472.125 1177.44" stroke="#535461" stroke-width="2" stroke-miterlimit="10"/>
<path d="M1015.82 1135.5C1015.82 1135.5 1005.46 1083.87 1009.42 1077.45C1009.42 1077.45 1009.57 1071.48 1009.33 1063.87C1009.33 1063.58 1009.33 1063.29 1009.33 1062.99C1010.03 1063.46 1010.76 1063.88 1011.51 1064.25C1015.17 1066.13 1019.37 1066.67 1023.38 1065.78L1020.24 1062.28C1019.49 1061.45 1018.7 1060.54 1018.54 1059.44C1018.37 1058.33 1018.83 1057.34 1019.22 1056.36C1022.2 1048.81 1022.36 1039.33 1016.61 1033.57C1011.75 1028.73 1010.57 1022.48 1005.3 1018.06C1001.45 1014.83 999.338 1010.08 997.341 1005.49C995.652 1001.62 993.95 997.705 992.983 993.595C992.229 990.383 991.928 987.058 990.891 983.921C989.855 980.785 987.914 977.736 984.881 976.334C983.801 975.838 982.601 975.555 981.615 974.895C980.321 974.021 979.543 972.601 978.607 971.356C973.853 965.071 957.932 968.773 950.396 971.325C948.347 971.967 946.45 973.019 944.819 974.417L944.888 974.304C944.944 974.21 945.014 974.116 945.076 974.021C944.251 974.689 943.539 975.485 942.966 976.378C941.867 978.119 941.409 980.15 940.492 982.035C939.386 984.267 933.238 990.496 935.882 993.004C936.067 993.172 936.28 993.308 936.51 993.406C937.503 993.82 938.595 993.929 939.65 993.72L939.537 993.991C938.634 996.203 938.171 998.571 938.174 1000.96C938.174 1011.29 946.684 1019.66 957.191 1019.66C959.166 1019.66 961.13 1019.36 963.013 1018.76C963.057 1019 963.095 1019.24 963.139 1019.48C963.139 1019.57 963.17 1019.67 963.183 1019.76L962.85 1020.23C962.833 1020.2 962.814 1020.17 962.793 1020.15L952.933 1033.94C951.426 1035 942.746 1041.28 942.256 1046C941.742 1051.16 941.227 1057.2 941.227 1057.2L941.157 1058.49C940.727 1058.85 940.223 1059.12 939.68 1059.26C939.138 1059.41 938.571 1059.44 938.017 1059.34C934.94 1058.84 934.94 1070.66 934.94 1070.66C934.94 1070.66 932.893 1072.54 931.486 1070.91C930.079 1069.27 926.361 1074.81 926.361 1074.81L903.061 1075.82L902.527 1075.85L901.271 1071.96C901.136 1071.55 900.844 1071.21 900.46 1071.01C900.075 1070.81 899.629 1070.78 899.217 1070.91C899.12 1070.94 899.026 1070.98 898.935 1071.03L898.847 1071.08L898.684 1071.19L898.602 1071.27C898.557 1071.31 898.515 1071.35 898.476 1071.4L898.401 1071.49L898.363 1071.52C898.218 1071.72 898.122 1071.96 898.083 1072.2C898.044 1072.45 898.062 1072.7 898.137 1072.93L899.217 1076.27C894.721 1077.17 890.124 1079.73 893.873 1086.75L874.869 1083.24L881.017 1088.41L912.758 1094.96C912.337 1095.72 912.613 1096.81 913.926 1098.35C919.578 1104.99 929.878 1106.8 934.023 1107.26C935.118 1109.71 936.485 1112.03 938.099 1114.18L937.741 1120.8C937.741 1120.8 927.247 1171.24 925.325 1173.8C926.295 1172.7 927.183 1171.53 927.981 1170.3C924.935 1180.67 920.677 1194.85 919.559 1196.98C917.763 1200.37 916.099 1214.11 918.146 1214.99C918.774 1215.26 920.571 1215.12 923.133 1214.93V1216.07L923.02 1259.18C923.02 1259.18 923.535 1285.62 922.122 1288.14C920.709 1290.67 920.332 1295.95 920.332 1295.95C920.332 1295.95 914.68 1306.38 910.202 1310.57C910.171 1310.6 910.138 1310.63 910.101 1310.66L909.963 1309.68C909.963 1309.68 904.581 1316.48 892.673 1316.1C892.673 1316.1 885.508 1320.76 896.134 1321.01C906.76 1321.26 920.332 1320.64 920.332 1320.64C920.332 1320.64 929.809 1306.18 937.747 1308.06V1319.02H940.178V1307.89C941.305 1307.15 942.27 1306.18 943.013 1305.05C943.757 1303.93 944.265 1302.66 944.505 1301.33C944.713 1299.96 944.56 1298.56 944.063 1297.27C943.565 1295.98 942.739 1294.83 941.666 1293.96C941.184 1293.52 940.798 1292.99 940.531 1292.4C940.264 1291.81 940.122 1291.16 940.115 1290.51L940.027 1290.59C940.027 1290.37 939.97 1290.14 939.945 1289.91C939.248 1284.25 938.375 1272.58 941.459 1263.95C945.686 1252.1 946.967 1235.61 943.889 1225.79C942.896 1222.65 942.081 1219.46 941.446 1216.23C941.371 1215.82 941.302 1215.43 941.239 1215.07C943.343 1215.35 945.426 1215.77 947.475 1216.33C954.604 1218.29 970.198 1218.66 983.512 1218.55C983.543 1218.91 983.581 1219.3 983.625 1219.68C983.862 1222.35 984.359 1224.98 985.107 1227.55C986.778 1232.58 987.544 1254.75 987.544 1254.75C987.544 1254.75 989.698 1272.98 988.524 1280.39C987.896 1284.52 987.268 1288.66 986.91 1292.82V1292.9C986.91 1292.9 983.38 1302.96 980.799 1308.42C980.736 1308.56 980.667 1308.7 980.604 1308.83C979.916 1308.89 979.239 1309.04 978.588 1309.28C978.588 1309.28 975.128 1316.19 971.68 1317.34C968.232 1318.48 969.375 1322.24 977.181 1320.86C984.988 1319.48 996.776 1318.35 996.776 1318.35L997.285 1311.29L999.684 1308.29L999.056 1315.32L1001.61 1314.82L1001.27 1306.27L1005.2 1301.35C1005.2 1301.35 1009.94 1297.13 1002.89 1288.82V1289C1002.82 1288.88 1002.75 1288.75 1002.67 1288.63V1288.6C1001.5 1286.79 1000.57 1283.41 1002.27 1277.42C1005.35 1266.6 1007.14 1256.77 1007.14 1256.77C1007.14 1256.77 1014.01 1230.46 1005.75 1218H1006.11C1005.27 1216.25 1004.67 1214.39 1004.34 1212.47C1004.3 1212.25 1004.26 1212.01 1004.22 1211.77C1010.34 1211.42 1016.33 1210.32 1021.23 1207.93C1021.21 1207.9 1018.26 1145.45 1015.82 1135.5ZM938.243 1091.95V1092.07L936.987 1092.13L938.243 1091.95ZM933.935 1092.54C933.729 1092.59 933.535 1092.68 933.37 1092.81C932.83 1093.58 932.491 1094.47 932.384 1095.4L930.424 1094.96C930.424 1094.96 929.049 1094.66 927.071 1094.33L926.135 1093.39C928.71 1093.17 931.385 1092.86 933.935 1092.54V1092.54Z" fill="url(#paint1_linear)"/>
<path d="M941.597 1264.06C938.576 1272.68 939.431 1284.3 940.109 1289.94C940.36 1292.03 940.592 1293.3 940.592 1293.3C940.592 1293.3 936.077 1303.59 935.7 1303.98C935.323 1304.37 922.411 1312.26 922.411 1312.26L913.386 1317.54C913.386 1317.54 904.229 1313.52 908.619 1312.14C909.516 1311.78 910.324 1311.23 910.987 1310.52C915.383 1306.34 920.904 1295.95 920.904 1295.95C920.904 1295.95 921.281 1290.68 922.662 1288.17C924.044 1285.66 923.541 1259.31 923.541 1259.31L923.648 1216.34V1210.74L940.825 1210.87C940.933 1212.77 941.181 1214.66 941.566 1216.53C942.182 1219.75 942.981 1222.93 943.959 1226.06C946.986 1235.85 945.73 1252.27 941.597 1264.06Z" fill="#FFB0B1"/>
<path d="M1001.15 1277.49C999.483 1283.46 1000.39 1286.82 1001.54 1288.63V1288.67C1003 1290.89 1004.02 1293.39 1004.54 1296L1004.64 1296.57L992.857 1313.76L986.464 1316.27C986.464 1316.27 976.183 1312.76 978.061 1311.75C978.532 1311.51 979.266 1310.2 980.108 1308.4C982.62 1302.96 986.087 1292.93 986.087 1292.93V1292.85C986.451 1288.7 987.029 1284.57 987.67 1280.46C988.819 1273.07 986.709 1254.91 986.709 1254.91C986.709 1254.91 985.955 1232.83 984.322 1227.8C983.585 1225.25 983.095 1222.63 982.859 1219.98C982.52 1216.84 982.444 1214.25 982.444 1214.25C982.444 1214.25 989.214 1204.82 1001.62 1215.01C1002.62 1215.82 1003.49 1216.77 1004.22 1217.82C1012.79 1230.03 1005.89 1256.92 1005.89 1256.92C1005.89 1256.92 1004.16 1266.7 1001.15 1277.49Z" fill="#FFB0B1"/>
<path opacity="0.1" d="M940.844 1210.86C940.952 1212.76 941.2 1214.65 941.585 1216.51C934.513 1215.48 927.95 1215.99 923.648 1216.33V1210.73L940.844 1210.86Z" fill="black"/>
<path opacity="0.1" d="M1004.92 1219.39C1004.92 1219.39 994.867 1219.88 982.884 1219.98C982.545 1216.83 982.47 1214.24 982.47 1214.24C982.47 1214.24 989.24 1204.82 1001.65 1215C1002.64 1215.81 1003.52 1216.76 1004.24 1217.81C1004.44 1218.35 1004.66 1218.88 1004.92 1219.39V1219.39Z" fill="black"/>
<path d="M1004.92 1218.25C1004.92 1218.25 960.903 1220.39 947.488 1216.62C934.074 1212.86 920.778 1216.12 918.775 1215.24C916.771 1214.37 918.398 1200.69 920.156 1197.3C921.915 1193.91 931.561 1159.65 931.561 1159.65L940.844 1111.21L950.622 1108.51L951.313 1108.32L968.352 1103.62L980.837 1100.17C980.837 1100.17 1005.66 1197.17 1003.53 1204.33C1002.76 1207.07 1002.64 1209.95 1003.17 1212.74C1003.49 1214.65 1004.08 1216.51 1004.92 1218.25V1218.25Z" fill="#1D2366"/>
<path d="M908.487 1078.09C908.487 1078.09 899.695 1087.51 906.352 1092.77C913.009 1098.02 917.387 1093.27 917.387 1093.27L908.487 1078.09Z" fill="#C7DAF5"/>
<path opacity="0.1" d="M908.487 1078.09C908.487 1078.09 899.695 1087.51 906.352 1092.77C913.009 1098.02 917.387 1093.27 917.387 1093.27L908.487 1078.09Z" fill="black"/>
<path d="M979.524 1016.1C979.524 1016.1 978.494 1017.08 976.943 1018.52C974.732 1020.59 971.46 1023.61 968.559 1026.15C964.539 1029.65 961.223 1032.22 962.41 1030.03C963.597 1027.83 963.371 1024.01 962.781 1020.43C962.737 1020.2 962.699 1019.96 962.655 1019.72C962.166 1017.1 961.518 1014.5 960.714 1011.95C960.714 1011.95 967.208 1003.56 970.801 1000.24C972.138 998.988 973.074 998.472 973.131 999.346C973.193 1000.52 974.073 1003.12 975.165 1005.87C975.197 1005.96 975.228 1006.04 975.266 1006.13C975.994 1008.01 976.817 1009.95 977.539 1011.62C978.645 1014.19 979.524 1016.1 979.524 1016.1Z" fill="#FFB0B1"/>
<path opacity="0.1" d="M975.266 1006.13C974.656 1009.41 973.175 1012.47 970.979 1014.99C968.782 1017.51 965.951 1019.39 962.781 1020.43C962.281 1017.56 961.591 1014.73 960.714 1011.95C960.714 1011.95 972.942 996.147 973.131 999.346C973.175 1000.56 974.129 1003.25 975.266 1006.13Z" fill="black"/>
<path opacity="0.1" d="M961.562 1024.66L963.145 1022.43C963.145 1022.43 964.194 1028.83 968.05 1026C971.906 1023.18 972.094 1047.24 972.094 1047.24L967.956 1109.17L938.049 1107.38L938.897 1077.46L942.282 1062.37L950.653 1040.44L955.634 1033.19L961.562 1024.66Z" fill="black"/>
<path d="M972.095 1047.63L968.326 1103.62L967.931 1109.56L951.257 1108.56L950.629 1108.52L938.068 1107.77L938.916 1077.83L942.301 1062.75L950.672 1040.82L955.653 1033.57L961.581 1025L963.164 1022.78C963.164 1022.78 964.213 1029.18 968.069 1026.36L968.151 1026.3C971.919 1023.91 972.095 1047.63 972.095 1047.63Z" fill="#1D2366"/>
<path d="M942.722 1057.51C942.722 1057.51 941.221 1060.65 938.206 1060.14C935.192 1059.63 935.198 1071.45 935.198 1071.45C935.198 1071.45 933.194 1073.34 931.813 1071.71C930.431 1070.07 926.789 1075.6 926.789 1075.6L903.966 1076.6C903.966 1076.6 914.121 1081.25 912.13 1095.3C912.13 1095.3 946.609 1093.16 947.74 1089.9C948.87 1086.64 942.722 1057.51 942.722 1057.51Z" fill="white"/>
<path opacity="0.03" d="M942.722 1057.51C942.722 1057.51 941.221 1060.65 938.206 1060.14C935.192 1059.63 935.198 1071.45 935.198 1071.45C935.198 1071.45 933.194 1073.34 931.813 1071.71C930.431 1070.07 926.789 1075.6 926.789 1075.6L903.966 1076.6C903.966 1076.6 914.121 1081.25 912.13 1095.3C912.13 1095.3 946.609 1093.16 947.74 1089.9C948.87 1086.64 942.722 1057.51 942.722 1057.51Z" fill="black"/>
<path d="M876.395 1083.99L882.412 1089.13L931.938 1099.54L925.796 1093.27L876.395 1083.99Z" fill="white"/>
<path d="M961.656 1026.64C960.834 1027.9 958.479 1034.33 956.513 1039.95C954.874 1044.63 953.505 1048.75 953.505 1048.75C953.505 1048.75 950.308 1069.58 948.675 1073.35C947.042 1077.11 947.928 1091.79 947.928 1091.79L941.842 1128.06C941.842 1128.06 939.085 1146.76 934.827 1157.93C930.626 1168.92 925.947 1174.07 925.802 1174.24C927.686 1171.68 937.955 1121.44 937.955 1121.44L941.346 1058.07C941.346 1058.07 941.842 1052.04 942.345 1046.9C942.847 1041.75 953.021 1034.72 953.021 1034.72L962.831 1020.76C963.817 1022.08 963.157 1024.38 961.656 1026.64Z" fill="white"/>
<path d="M936.077 1108.08C936.077 1108.08 921.632 1107.45 914.636 1099.04C907.64 1090.63 930.808 1095.69 930.808 1095.69L936.83 1097.07L936.077 1108.08Z" fill="#FFB0B1"/>
<path opacity="0.1" d="M1003.53 1204.33C1002.76 1207.07 1002.64 1209.95 1003.17 1212.75C987.412 1213.87 970.556 1209.61 970.556 1209.61C967.416 1212.5 959.144 1216.76 959.144 1216.76L954.635 1160.82C951.752 1153.27 950.622 1113.76 950.622 1113.76C950.622 1113.76 950.88 1111.69 951.25 1108.59C951.25 1108.51 951.25 1108.43 951.281 1108.36C952.406 1099.7 954.635 1083.45 955.728 1081.26C957.235 1078.24 951.093 1070.22 951.093 1070.22L953.888 1046.36L954.227 1043.48C960.118 1040.85 964.633 1032.44 964.633 1032.44L968.1 1026.36C971.868 1023.94 972.063 1047.66 972.063 1047.66L968.295 1103.66L980.78 1100.2C980.78 1100.2 1005.66 1197.18 1003.53 1204.33Z" fill="black"/>
<path d="M1019.71 1208.2C1002.53 1216.73 971.31 1208.83 971.31 1208.83C968.17 1211.72 959.898 1215.98 959.898 1215.98L955.383 1160.04C952.506 1152.49 951.376 1112.98 951.376 1112.98C951.376 1112.98 955.006 1083.49 956.513 1080.48C956.953 1079.6 956.739 1078.29 956.218 1076.89C953.655 1070.18 952.713 1062.97 953.467 1055.83L954.673 1045.58L955.006 1042.71C960.903 1040.07 965.419 1031.66 965.419 1031.66L968.559 1026.15L974.337 1016.01L977.075 1011.21L977.54 1011.63L981.088 1014.85C981.088 1014.85 982.595 1016.1 984.856 1017.99C989.774 1022.14 998.271 1029.44 1002.65 1033.91C1006.51 1037.85 1007.73 1053.15 1008.08 1064.67C1008.31 1072.26 1008.18 1078.21 1008.18 1078.21C1004.29 1084.61 1014.46 1136.03 1014.46 1136.03C1016.82 1145.97 1019.71 1208.2 1019.71 1208.2Z" fill="white"/>
<path opacity="0.03" d="M986.734 1031.53C986.734 1031.53 974.946 1053.99 976.315 1062.53C977.684 1071.06 981.578 1080.73 979.7 1082.98C979.055 1083.84 978.221 1084.53 977.263 1085.01C976.305 1085.49 975.25 1085.74 974.179 1085.74C972.295 1085.87 967.271 1089.38 967.271 1089.76C967.271 1090.14 962.63 1090.14 958.479 1091.9C954.327 1093.66 948.198 1094.65 948.198 1094.65C948.198 1094.65 936.265 1094.28 935.154 1095.41C934.042 1096.54 932.899 1103.31 935.279 1108.71C937.659 1114.11 940.303 1118.14 942.301 1118.87C944.298 1119.61 956.971 1115.36 967.252 1114.35C977.533 1113.35 988.693 1105.2 988.693 1105.2C988.693 1105.2 1000.98 1100.8 1003.14 1093.4C1005.29 1086 1000.51 1045.34 1000.51 1045.34C1000.51 1045.34 996.889 1026.39 986.734 1031.53Z" fill="black"/>
<path opacity="0.03" d="M985.227 1029.65C985.227 1029.65 973.439 1052.11 974.82 1060.64C976.202 1069.17 980.083 1078.84 978.199 1081.1C977.556 1081.96 976.724 1082.65 975.767 1083.13C974.81 1083.61 973.755 1083.86 972.685 1083.86C970.801 1083.99 965.777 1087.5 965.777 1087.88C965.777 1088.26 961.136 1088.26 956.984 1090.01C952.833 1091.76 946.703 1092.77 946.703 1092.77C946.703 1092.77 934.771 1092.39 933.665 1093.52C932.56 1094.65 931.405 1101.43 933.791 1106.82C936.178 1112.22 938.815 1116.25 940.812 1116.99C942.81 1117.72 955.483 1113.47 965.764 1112.47C976.045 1111.47 987.205 1103.31 987.205 1103.31C987.205 1103.31 999.489 1098.91 1001.62 1091.52C1003.75 1084.13 998.987 1043.45 998.987 1043.45C998.987 1043.45 995.382 1024.51 985.227 1029.65Z" fill="black"/>
<path d="M986.363 1030.4C986.363 1030.4 974.575 1052.87 975.957 1061.4C977.338 1069.93 981.22 1079.59 979.342 1081.85C978.699 1082.71 977.866 1083.41 976.908 1083.89C975.949 1084.37 974.893 1084.62 973.822 1084.62C971.937 1084.74 966.913 1088.26 966.913 1088.63C966.913 1089 962.278 1089 958.121 1090.76C953.963 1092.52 947.84 1093.52 947.84 1093.52C947.84 1093.52 935.907 1093.15 934.796 1094.28C933.684 1095.41 932.541 1102.18 934.921 1107.58C937.302 1112.97 939.946 1117.01 941.943 1117.74C943.94 1118.48 956.613 1114.23 966.894 1113.22C977.175 1112.22 988.335 1104.06 988.335 1104.06C988.335 1104.06 1000.63 1099.66 1002.78 1092.27C1004.93 1084.87 1000.18 1044.21 1000.18 1044.21C1000.18 1044.21 996.512 1025.29 986.363 1030.4Z" fill="white"/>
<path opacity="0.1" d="M986.106 1090.66C986.106 1090.66 976.685 1088.77 979.964 1091.91C983.242 1095.06 983.223 1097.81 987.236 1097.68C991.25 1097.56 986.106 1090.66 986.106 1090.66Z" fill="black"/>
<path opacity="0.1" d="M1002.03 1158.28C1002.03 1158.28 997.768 1161.16 1005.91 1167.81C1014.06 1174.46 1002.03 1158.28 1002.03 1158.28Z" fill="black"/>
<path opacity="0.1" d="M993.9 1181.99C993.9 1182.37 992.392 1195.82 998.032 1199.18C1003.67 1202.55 993.9 1181.99 993.9 1181.99Z" fill="black"/>
<path d="M904.355 1076.57C899.808 1076.73 889.985 1078.12 895.079 1087.63C899.582 1096.04 907.15 1090.42 911.408 1086.15C910.369 1082.17 907.845 1078.74 904.355 1076.57V1076.57Z" fill="#FFB0B1"/>
<path d="M911.464 1086.07L911.653 1085.88L911.464 1086.07Z" fill="#FFB0B1"/>
<path opacity="0.1" d="M984.856 1018.37C980.033 1021.67 975.988 1024.46 975.197 1025.04C973.037 1026.64 968.917 1036.05 966.26 1040.85C964.144 1044.72 957.267 1045.71 954.673 1045.95L955.006 1043.08C960.903 1040.44 965.419 1032.03 965.419 1032.03L977.075 1011.58L981.088 1015.23C981.088 1015.23 982.595 1016.49 984.856 1018.37Z" fill="black"/>
<path d="M984.856 1018C980.033 1021.3 975.988 1024.08 975.197 1024.66C973.037 1026.26 968.917 1035.67 966.26 1040.47C964.144 1044.34 957.267 1045.33 954.673 1045.58L955.006 1042.7C960.903 1040.06 965.419 1031.65 965.419 1031.65L977.075 1011.2L981.088 1014.84C981.088 1014.84 982.595 1016.08 984.856 1018Z" fill="#DCE7FF"/>
<path d="M975.574 1001.98C975.576 1005.75 974.433 1009.44 972.295 1012.55C969.771 1016.22 966.014 1018.87 961.706 1020.01C957.397 1021.15 952.824 1020.7 948.815 1018.76C944.806 1016.81 941.627 1013.49 939.855 1009.4C938.083 1005.31 937.835 1000.71 939.157 996.454C940.478 992.195 943.281 988.551 947.058 986.184C950.834 983.816 955.333 982.882 959.738 983.55C964.144 984.219 968.164 986.446 971.069 989.827C973.975 993.208 975.573 997.52 975.574 1001.98V1001.98Z" fill="#FFB0B1"/>
<path opacity="0.1" d="M1008.08 1064.68C1005.53 1063.11 1003.45 1060.88 1002.07 1058.22C1001.02 1056.14 1000.32 1053.75 998.534 1052.28C996.92 1050.96 994.766 1050.64 992.756 1050.05C986.15 1048.09 980.61 1042.06 980.403 1035.17C980.303 1031.92 981.314 1028.69 980.855 1025.48C980.595 1023.66 979.872 1021.94 978.758 1020.48C978.204 1019.78 977.597 1019.13 976.943 1018.52C976.063 1017.69 975.14 1016.89 974.336 1016.01C973.83 1015.46 973.387 1014.86 973.017 1014.22C972.719 1013.69 972.477 1013.13 972.295 1012.55C971.039 1008.71 972.182 1004.14 970.8 1000.25L970.725 1000.04C970.204 998.654 969.142 997.272 967.667 997.165C966.191 997.058 964.928 998.284 963.522 998.83C960.576 999.974 957.398 998.026 954.943 996.04C952.487 994.053 949.717 991.784 946.596 992.224C944.53 992.52 942.897 993.928 940.994 994.657C940.564 994.823 940.121 994.952 939.669 995.04C941.279 991.021 944.238 987.688 948.037 985.614C951.836 983.541 956.238 982.856 960.486 983.678C964.734 984.5 968.564 986.777 971.318 990.118C974.071 993.459 975.576 997.655 975.573 1001.99C975.576 1003.29 975.439 1004.6 975.165 1005.88C975.197 1005.96 975.228 1006.05 975.266 1006.13C975.994 1008.02 976.817 1009.96 977.539 1011.63L981.088 1014.85C981.088 1014.85 982.595 1016.1 984.856 1017.99C989.773 1022.14 998.27 1029.44 1002.65 1033.91C1006.51 1037.86 1007.72 1053.16 1008.08 1064.68Z" fill="black"/>
<path d="M940.774 983.173C941.672 981.344 942.118 979.295 943.192 977.56C944.769 975.046 947.519 973.437 950.346 972.462C957.725 969.917 973.319 966.221 977.979 972.462C978.896 973.72 979.656 975.115 980.924 975.982C981.892 976.642 983.06 976.925 984.121 977.422C987.092 978.817 988.988 981.859 989.999 984.964C991.011 988.07 991.312 991.401 992.053 994.6C993.001 998.705 994.666 1002.6 996.324 1006.46C998.277 1011.02 1000.35 1015.76 1004.12 1018.98C1009.26 1023.38 1010.4 1029.61 1015.17 1034.44C1020.82 1040.17 1020.64 1049.63 1017.73 1057.14C1017.34 1058.13 1016.91 1059.16 1017.06 1060.21C1017.21 1061.26 1017.99 1062.21 1018.73 1063.05L1021.82 1066.54C1014.51 1068.31 1006.23 1064.48 1002.83 1057.78C1001.78 1055.7 1001.08 1053.31 999.288 1051.84C997.68 1050.52 995.52 1050.2 993.516 1049.61C986.91 1047.65 981.37 1041.61 981.163 1034.72C981.063 1031.48 982.074 1028.25 981.615 1025.04C981.36 1023.21 980.635 1021.48 979.511 1020.01C977.784 1017.76 975.178 1016.24 973.771 1013.73C971.391 1009.52 973.2 1004.06 971.485 999.547C970.958 998.164 969.902 996.781 968.427 996.675C966.951 996.568 965.688 997.793 964.275 998.34C961.336 999.484 958.158 997.542 955.703 995.549C953.247 993.557 950.477 991.294 947.35 991.74C945.284 992.03 943.657 993.437 941.754 994.173C940.347 994.713 937.496 995.197 936.265 994.009C933.665 991.615 939.688 985.411 940.774 983.173Z" fill="#591D4B"/>
<path opacity="0.1" d="M1004.58 1055.7C1003.52 1053.63 1002.83 1051.24 1001.03 1049.77C999.426 1048.45 997.266 1048.13 995.256 1047.54C988.656 1045.58 983.116 1039.54 982.903 1032.65C982.802 1029.42 983.813 1026.17 983.361 1022.97C983.098 1021.15 982.374 1019.43 981.257 1017.97C979.524 1015.71 976.918 1014.2 975.517 1011.68C973.137 1007.49 974.946 1002.02 973.225 997.504C972.704 996.128 971.642 994.745 970.173 994.632C968.703 994.519 967.428 995.757 966.021 996.304C963.082 997.448 959.898 995.499 957.449 993.513C954.999 991.527 952.217 989.258 949.096 989.698C947.03 989.993 945.397 991.401 943.5 992.13C942.093 992.671 939.236 993.161 938.005 991.973C935.417 989.459 941.44 983.267 942.52 981.042C943.419 979.207 943.864 977.164 944.945 975.429C945.001 975.335 945.064 975.241 945.127 975.146C944.319 975.816 943.621 976.61 943.061 977.497C941.987 979.232 941.541 981.269 940.643 983.11C939.556 985.335 933.533 991.546 936.127 994.041C937.383 995.235 940.209 994.745 941.616 994.204C943.5 993.469 945.146 992.061 947.212 991.772C950.352 991.326 953.115 993.595 955.565 995.581C958.014 997.567 961.217 999.516 964.144 998.372C965.55 997.825 966.781 996.593 968.289 996.706C969.796 996.819 970.801 998.196 971.347 999.579C973.062 1004.09 971.253 1009.55 973.633 1013.76C975.04 1016.23 977.646 1017.78 979.373 1020.04C980.497 1021.51 981.222 1023.24 981.477 1025.07C981.936 1028.28 980.925 1031.52 981.025 1034.75C981.232 1041.67 986.772 1047.68 993.378 1049.64C995.369 1050.23 997.542 1050.55 999.15 1051.87C1000.95 1053.35 1001.66 1055.73 1002.69 1057.81C1006.1 1064.52 1014.37 1068.34 1021.68 1066.57L1020.22 1064.92C1013.88 1065.02 1007.47 1061.41 1004.58 1055.7Z" fill="black"/>
<path opacity="0.1" d="M961.28 1027.02C960.457 1028.27 958.102 1034.71 956.136 1040.33C954.296 1039.61 952.625 1035.04 952.625 1035.04L962.435 1021.08C963.44 1022.46 962.781 1024.75 961.28 1027.02Z" fill="black"/>
<path d="M961.657 1026.64C960.834 1027.9 958.479 1034.33 956.513 1039.95C954.673 1039.24 953.002 1034.66 953.002 1034.66L962.812 1020.7C963.817 1022.08 963.158 1024.38 961.657 1026.64Z" fill="#DCE7FF"/>
<path d="M904.619 1090.85L899.18 1073.69C899.116 1073.48 899.092 1073.27 899.109 1073.06C899.127 1072.85 899.186 1072.65 899.282 1072.46C899.379 1072.27 899.512 1072.11 899.674 1071.97C899.835 1071.83 900.021 1071.73 900.223 1071.67V1071.67C900.627 1071.54 901.066 1071.58 901.442 1071.78C901.818 1071.97 902.102 1072.31 902.232 1072.71L907.671 1089.86L907.131 1093.45L904.619 1090.85Z" fill="#BE8B87"/>
<path opacity="0.1" d="M899.695 1072.18C900.101 1072.05 900.541 1072.09 900.919 1072.28C901.296 1072.48 901.581 1072.82 901.711 1073.22L907.15 1090.37L906.742 1093.06L907.137 1093.47L907.677 1089.88L902.207 1072.74C902.078 1072.33 901.793 1072 901.417 1071.8C901.041 1071.61 900.602 1071.57 900.198 1071.69V1071.69C899.857 1071.8 899.563 1072.03 899.362 1072.32C899.469 1072.26 899.58 1072.22 899.695 1072.18V1072.18Z" fill="white"/>
<path d="M904.619 1090.85L907.671 1089.88L907.225 1092.83L907.131 1093.47L906.239 1092.54L904.619 1090.85Z" fill="#EFC8C4"/>
<path d="M906.239 1092.54C906.292 1092.48 906.358 1092.42 906.433 1092.38C906.478 1092.35 906.529 1092.34 906.581 1092.34C906.633 1092.34 906.685 1092.35 906.729 1092.38C906.771 1092.43 906.807 1092.49 906.835 1092.55C906.877 1092.62 906.934 1092.68 907.001 1092.72C907.068 1092.77 907.145 1092.8 907.225 1092.81L907.131 1093.44L906.239 1092.54Z" fill="#727A9C"/>
<path d="M899.148 1079.78C899.148 1079.78 910.057 1079.72 907.489 1084.37C904.92 1089.01 900.907 1089.57 900.907 1089.57L899.148 1079.78Z" fill="#FFB0B1"/>
<path d="M831.302 871.321H830.831C812.091 871.321 795.517 881.246 785.984 895.891C776.45 881.246 759.876 871.321 741.136 871.321H740.665C726.601 871.455 713.158 877.139 703.257 887.137C693.357 897.135 687.799 910.64 687.791 924.717C687.791 942.197 695.44 967 710.356 987.41C738.775 1026.3 785.984 1060.32 785.984 1060.32C785.984 1060.32 833.193 1026.3 861.605 987.41C876.527 967 884.17 942.197 884.17 924.717C884.163 910.641 878.605 897.137 868.706 887.139C858.807 877.141 845.366 871.456 831.302 871.321V871.321ZM824.564 990.402C822.429 990.393 820.347 989.74 818.591 988.526C816.835 987.312 815.486 985.595 814.722 983.6H803.518C802.781 983.596 802.063 983.361 801.465 982.928C800.867 982.495 800.419 981.887 800.184 981.187L796.742 970.809L785.852 1008.89C785.64 1009.63 785.196 1010.27 784.587 1010.73C783.977 1011.19 783.236 1011.44 782.473 1011.44H782.253C781.458 1011.4 780.699 1011.09 780.105 1010.56C779.51 1010.03 779.116 1009.31 778.987 1008.52L767.765 940.965L759.562 980.942C759.374 981.701 758.938 982.376 758.322 982.858C757.706 983.339 756.947 983.601 756.165 983.6H740.382C739.909 983.621 739.437 983.545 738.994 983.377C738.551 983.21 738.146 982.954 737.805 982.627C737.463 982.299 737.191 981.905 737.005 981.469C736.819 981.033 736.723 980.564 736.723 980.09C736.723 979.616 736.819 979.147 737.005 978.711C737.191 978.275 737.463 977.881 737.805 977.553C738.146 977.226 738.551 976.97 738.994 976.803C739.437 976.635 739.909 976.559 740.382 976.579H753.401L765.02 922.831C765.211 922.037 765.671 921.333 766.323 920.84C766.975 920.348 767.777 920.098 768.593 920.132C769.409 920.166 770.188 920.483 770.796 921.028C771.404 921.573 771.805 922.313 771.928 923.12L783.39 992.036L793.15 957.961C793.353 957.244 793.782 956.611 794.374 956.158C794.966 955.705 795.689 955.456 796.434 955.447H796.503C797.241 955.447 797.961 955.681 798.558 956.114C799.156 956.548 799.602 957.159 799.832 957.861L806.056 976.598H814.584C815.191 974.755 816.294 973.114 817.773 971.859C819.252 970.603 821.049 969.78 822.966 969.482C824.882 969.184 826.844 969.422 828.634 970.169C830.424 970.916 831.973 972.144 833.11 973.716C834.247 975.289 834.928 977.145 835.077 979.08C835.226 981.016 834.839 982.955 833.956 984.684C833.074 986.412 831.732 987.863 830.078 988.877C828.424 989.89 826.522 990.427 824.583 990.427L824.564 990.402Z" fill="#00B0FF"/>
</g>
<path opacity="0.1" d="M242.072 199.256C217.903 217.577 189.314 228.222 161.186 237.304C133.059 246.386 104.388 254.416 77.8494 268.703C60.783 277.884 43.5814 291.229 38.1448 308.832C32.9089 325.772 39.9279 341.939 47.8813 355.767C53.867 366.171 60.8713 376.544 71.9637 381.817C79.6698 385.469 88.8066 386.376 96.9571 389.25C125.312 399.252 136.704 430.786 139.367 460.956C140.622 475.112 140.527 489.63 143.663 503.215C146.799 516.8 153.644 529.714 165.875 536.213C177.991 542.648 193.846 542.002 208.739 538.492C238.978 531.355 266.969 513.564 293.28 495.006C351.487 453.884 405.585 407.11 459.532 360.459C479.494 343.191 499.546 325.845 517.085 306.284C526.827 295.422 536.094 283.232 538.72 269.885C542.049 252.941 532.808 236.374 517.166 231.264C490.935 222.697 455.285 244.291 431.464 231.569C418.356 224.565 413.285 208.997 411.73 193.866C408.392 161.413 416.558 123.902 398.095 98.728C385.417 81.4353 360.688 73.9213 336.987 80.1527C312.142 86.6749 287.843 108.194 285.561 132.711C283.217 157.965 263.407 183.08 242.072 199.256Z" fill="#05ACF7"/>
<defs>
<linearGradient id="paint0_linear" x1="611.787" y1="1326.05" x2="611.787" y2="939.274" gradientUnits="userSpaceOnUse">
<stop stop-color="#808080" stop-opacity="0.25"/>
<stop offset="0.54" stop-color="#808080" stop-opacity="0.12"/>
<stop offset="1" stop-color="#808080" stop-opacity="0.1"/>
</linearGradient>
<linearGradient id="paint1_linear" x1="140574" y1="292669" x2="140574" y2="94131.9" gradientUnits="userSpaceOnUse">
<stop stop-color="#808080" stop-opacity="0.25"/>
<stop offset="0.54" stop-color="#808080" stop-opacity="0.12"/>
<stop offset="1" stop-color="#808080" stop-opacity="0.1"/>
</linearGradient>
<clipPath id="clip0">
<rect width="694" height="492" fill="white" transform="translate(388 839)"/>
</clipPath>
</defs>
</svg>
