<svg width="694" height="375" viewBox="0 0 694 375" fill="none" xmlns="http://www.w3.org/2000/svg">
<g clip-path="url(#clip0)">
<path opacity="0.1" d="M8.69205 212.579H72.431V299.528H13.3583C13.2013 300.421 13.0506 301.32 12.8873 302.219H72.431V372.341C72.3242 372.309 72.23 372.272 72.1295 372.234C70.4464 371.568 68.7758 370.864 67.1053 370.109L66.0376 369.625C64.3629 368.833 62.6881 367.995 61.0134 367.111C60.4293 366.803 59.8452 366.483 59.2674 366.156C49.9699 360.943 41.5237 354.338 34.2215 346.57C34.008 346.362 33.807 346.142 33.5935 345.941C32.5761 344.835 31.5775 343.716 30.6103 342.572L29.5427 341.315C28.3997 339.913 27.2943 338.474 26.2204 337.016C26.0634 336.802 25.9127 336.588 25.7494 336.387C21.3817 330.326 17.7552 323.763 14.9472 316.839C14.8593 316.631 14.784 316.405 14.7023 316.21C13.8398 313.989 13.0757 311.747 12.41 309.485C12.1211 308.536 11.8448 307.599 11.6061 306.612C11.5182 306.323 11.4428 306.04 11.3737 305.757C7.80652 291.822 7.38574 277.346 7.38574 262.971C7.38574 261.293 7.38574 259.608 7.38574 257.943C7.38574 252.128 7.45483 246.277 7.55531 240.431C7.55531 238.916 7.61811 237.408 7.64951 235.886C7.73744 232.027 7.86305 228.168 8.02633 224.308C8.06402 223.234 8.11426 222.165 8.17078 221.096C8.17078 220.48 8.20218 219.864 8.26499 219.248C8.41571 217.011 8.54132 214.792 8.69205 212.579Z" fill="#00B0FF"/>
<path opacity="0.1" d="M72.4308 115.768H37.4683C43.1516 106.865 49.3613 98.31 56.0643 90.1483C61.2581 83.7621 66.7408 77.5393 72.4308 71.5428V115.768Z" fill="#00B0FF"/>
<path opacity="0.1" d="M72.431 118.459V209.889H8.89307C8.89307 209.625 8.93703 209.355 8.95587 209.091C9.01239 208.368 9.06891 207.645 9.13172 206.929C9.2008 206.086 9.27616 205.238 9.35781 204.414C9.43945 203.591 9.52738 202.585 9.62158 201.674C9.71579 200.762 9.80371 199.838 9.91048 198.927C10.0172 198.016 10.1114 197.104 10.2245 196.199C10.3375 195.294 10.438 194.376 10.5574 193.471C10.6516 192.717 10.752 191.969 10.8525 191.215C10.997 190.152 11.1477 189.084 11.311 188.028C11.311 187.871 11.3549 187.707 11.3801 187.556C12.5263 179.826 14.0882 172.163 16.0589 164.601C18.1217 156.669 20.7559 148.896 23.9407 141.345C27.3256 133.445 31.2888 125.806 35.7979 118.49L72.431 118.459Z" fill="#00B0FF"/>
<path opacity="0.1" d="M87.6479 212.573V299.528H223.786V212.573H87.6479ZM87.6479 302.212V376.885C88.4267 377.049 89.1992 377.206 89.9654 377.338C91.0079 377.539 92.0442 377.721 93.1055 377.878C93.3065 377.91 93.5138 377.941 93.7336 377.96C94.1481 378.029 94.5751 378.086 94.9896 378.142C96.0385 378.287 97.081 378.406 98.1298 378.501C98.6259 378.551 99.1284 378.595 99.6308 378.633L100.843 378.727C101.502 378.777 102.155 378.815 102.802 378.834C103.204 378.834 103.606 378.872 104.021 378.884C104.335 378.884 104.649 378.884 104.975 378.884C105.302 378.884 105.767 378.884 106.162 378.884C106.702 378.884 107.243 378.884 107.776 378.884H108.499C109.039 378.884 109.579 378.884 110.113 378.834H110.15C110.521 378.834 110.898 378.834 111.274 378.784C111.379 378.79 111.484 378.79 111.589 378.784C111.903 378.784 112.217 378.784 112.518 378.74H112.738L114.842 378.576C115.533 378.513 116.23 378.432 116.933 378.356L118.365 378.186C124.19 377.369 129.951 376.143 135.604 374.516C148.303 370.971 160.726 366.011 173.418 362.378C189.829 357.695 207.96 355.395 223.818 361.121V302.212H87.6479ZM223.786 115.768V0.0063121C208.882 -0.155306 194.017 1.58946 179.554 5.19823C145.081 13.8661 114.151 32.6664 87.6479 56.6774V115.762H94.4809V118.446H87.6479V209.889H223.786V118.452H122.535V115.768H223.786ZM398.649 76.6656C390.121 76.3639 381.642 73.6611 373.974 69.4875C359.309 61.5047 347.597 49.1787 334.508 38.776C307.315 17.1095 273.589 4.03539 238.991 0.792014V115.768H433.335L433.819 115.259L398.649 76.6656ZM416.353 73.5228L435.125 94.1396V68.1172C428.839 68.8966 423.331 70.7509 416.379 73.4977L416.353 73.5228ZM435.125 395.428V302.212H395.126C395.019 301.816 394.912 301.414 394.787 301.012C394.906 301.414 395.007 301.816 395.12 302.212H239.016V369.625C240.498 370.725 241.962 371.882 243.412 373.057C244.976 374.315 246.521 375.641 248.072 376.942L249.636 378.237C250.383 378.865 251.137 379.494 251.897 380.085C253.404 381.308 254.926 382.515 256.463 383.705C257.223 384.334 258.002 384.899 258.774 385.49C271.038 394.875 283.974 403.343 297.48 410.828C300.507 412.504 303.561 414.14 306.643 415.737C308.696 416.786 310.762 417.83 312.835 418.842C315.95 420.363 319.09 421.83 322.255 423.242C351.438 436.352 382.296 445.349 413.948 449.974C420.978 451.014 428.035 451.831 435.119 452.426V395.422H435.747L435.125 395.428ZM239.016 118.452V209.889H435.15V118.452H239.016ZM239.016 212.573V299.528H435.15V212.573H239.016ZM450.374 68.0041V97.031L474.333 70.7195C466.395 69.4372 458.409 68.5216 450.374 67.9726V68.0041ZM450.374 212.605V299.528H641.138V212.573L450.374 212.605ZM640.441 402.329L641.113 302.212H450.374V453.425C462.661 453.942 474.968 453.795 487.239 452.985H487.453C493.315 452.616 499.149 452.08 504.956 451.376H505.088C536.069 447.767 566.363 439.677 595.022 427.359L640.441 402.329ZM677.922 226.892C677.206 225.201 676.459 223.523 675.699 221.863C674.28 218.72 672.779 215.666 671.234 212.611H656.349V299.528H693.981C693.962 274.914 687.738 249.771 677.941 226.86L677.922 226.892ZM656.349 302.244V388.357C666.951 378.186 675.906 366.552 682.356 353.251C690.112 337.236 693.661 319.894 693.95 302.231L656.349 302.244ZM656.349 187.267V209.895H669.84C665.759 202.106 661.262 194.542 656.368 187.236L656.349 187.267ZM526.975 85.0632C525.983 84.6861 524.99 84.3027 523.992 83.9318C513.46 80.0393 502.698 76.8023 491.767 74.2394L455.103 114.511L454.4 115.259L454.871 115.775H585.363C567.189 103.254 547.596 92.9344 526.994 85.0318L526.975 85.0632ZM589.188 118.484H453.049L450.374 120.935V209.889H473.825H473.862H641.164V166.801C626.029 148.482 608.562 132.228 589.207 118.452L589.188 118.484Z" fill="#00B0FF"/>
<path opacity="0.1" d="M72.431 164.576V209.889H8.89307C8.89307 209.625 8.93703 209.355 8.95587 209.091C9.01239 208.368 9.06891 207.645 9.13172 206.929C9.2008 206.086 9.27616 205.238 9.35781 204.414C9.43945 203.591 9.52738 202.585 9.62158 201.674C9.71579 200.762 9.80371 199.838 9.91048 198.927C10.0172 198.016 10.1114 197.104 10.2245 196.199C10.3375 195.294 10.438 194.376 10.5574 193.471C10.6516 192.717 10.752 191.969 10.8525 191.215C10.997 190.152 11.1477 189.084 11.311 188.028C11.311 187.871 11.3549 187.707 11.3801 187.556C12.5263 179.826 14.0882 172.163 16.0589 164.601L72.431 164.576Z" fill="#00B0FF"/>
<path opacity="0.1" d="M8.69205 212.579H72.431V299.528H13.3583C13.2013 300.421 13.0506 301.32 12.8873 302.219H72.431V372.341C72.3242 372.309 72.23 372.272 72.1295 372.234C70.4464 371.568 68.7758 370.864 67.1053 370.109L66.0376 369.625C64.3629 368.833 62.6881 367.995 61.0134 367.111C60.4293 366.803 59.8452 366.483 59.2674 366.156C49.9699 360.943 41.5237 354.338 34.2215 346.57C34.008 346.362 33.807 346.142 33.5935 345.941C32.5761 344.835 31.5775 343.716 30.6103 342.572L29.5427 341.315C28.3997 339.913 27.2943 338.474 26.2204 337.016C26.0634 336.802 25.9127 336.588 25.7494 336.387C21.3817 330.326 17.7552 323.763 14.9472 316.839C14.8593 316.631 14.784 316.405 14.7023 316.21C13.8398 313.989 13.0757 311.747 12.41 309.485C12.1211 308.536 11.8448 307.599 11.6061 306.612C11.5182 306.323 11.4428 306.04 11.3737 305.757C7.80652 291.822 7.38574 277.346 7.38574 262.971C7.38574 261.293 7.38574 259.608 7.38574 257.943C7.38574 252.128 7.45483 246.277 7.55531 240.431C7.55531 238.916 7.61811 237.408 7.64951 235.886C7.73744 232.027 7.86305 228.168 8.02633 224.308C8.06402 223.234 8.11426 222.165 8.17078 221.096C8.17078 220.48 8.20218 219.864 8.26499 219.248C8.41571 217.011 8.54132 214.792 8.69205 212.579Z" fill="#00B0FF"/>
<path opacity="0.1" d="M135.573 131.545V209.889H87.6479V131.545H94.4809V105.02H122.529V131.545H135.573Z" fill="#00B0FF"/>
<path opacity="0.1" d="M135.573 212.573H87.6543V299.522H135.573V212.573Z" fill="#00B0FF"/>
<path opacity="0.1" d="M87.6479 302.219H135.573V374.503C129.92 376.129 124.159 377.353 118.334 378.168L116.902 378.344C116.198 378.425 115.501 378.494 114.81 378.564C114.119 378.633 113.404 378.683 112.706 378.727H112.487C112.185 378.727 111.859 378.765 111.563 378.771H111.243C110.866 378.771 110.489 378.809 110.113 378.821C109.579 378.853 109.045 378.859 108.499 378.865C108.266 378.865 108.046 378.865 107.814 378.865C107.274 378.865 106.74 378.865 106.2 378.865H105.013C104.693 378.865 104.385 378.865 104.052 378.865L102.84 378.821C102.212 378.821 101.534 378.752 100.881 378.708L99.6748 378.62L98.1738 378.482C97.1187 378.388 96.0698 378.268 95.0336 378.124L93.7775 377.948L93.1495 377.86C92.1007 377.696 91.0644 377.52 90.0093 377.319C89.2369 377.187 88.4707 377.024 87.6919 376.866L87.6479 302.219Z" fill="#00B0FF"/>
<path opacity="0.1" d="M435.151 122.293H395.635V209.883H435.151V122.293Z" fill="#00B0FF"/>
<path opacity="0.1" d="M435.157 212.573V299.528H239.016V262.022H343.489V284.147H395.635V212.573H435.157Z" fill="#00B0FF"/>
<path opacity="0.1" d="M435.778 395.447H435.15V452.489C428.075 451.889 421.02 451.074 413.986 450.044C382.318 445.403 351.447 436.388 322.255 423.254C313.827 419.458 305.571 415.313 297.486 410.821C283.981 403.333 271.042 394.865 258.774 385.484C255.692 383.121 252.651 380.703 249.649 378.23C247.57 376.514 245.504 374.754 243.412 373.045C241.962 371.869 240.498 370.713 239.016 369.607V302.218H395.113C395.007 301.816 394.9 301.414 394.787 301.018C394.906 301.414 395.019 301.816 395.126 302.218H435.15V395.409C435.364 395.415 435.571 395.434 435.778 395.447Z" fill="#00B0FF"/>
<path opacity="0.1" d="M538.21 115.768H512.461V107.761H524.004V83.9066C525.005 84.2712 526.001 84.6462 526.994 85.0317V107.761H538.21V115.768Z" fill="#00B0FF"/>
<path opacity="0.1" d="M600.247 209.889H473.837C473.837 209.889 473.837 209.889 473.881 209.921L473.825 209.889H450.374V122.299H457.019V187.041H487.384V148.699H512.467V118.459H538.217V148.724H563.3V187.066H600.247V209.889Z" fill="#00B0FF"/>
<path opacity="0.1" d="M450.374 212.573V299.528H600.247V212.573H450.374ZM640.931 401.883L641.139 333.056H600.247V302.256H450.374V453.425C462.661 453.942 474.968 453.795 487.239 452.985H487.453C493.315 452.616 499.149 452.08 504.956 451.376H505.088C536.069 447.767 566.363 439.677 595.022 427.359" fill="#00B0FF"/>
<path opacity="0.1" d="M659.012 302.219H693.975C693.667 319.875 690.125 337.217 682.375 353.233C675.925 366.539 666.963 378.174 656.375 388.338V333.024H659.012V302.219Z" fill="#00B0FF"/>
<path opacity="0.1" d="M693.994 299.528H659.012V226.86H677.941C687.738 249.771 693.962 274.914 693.994 299.528Z" fill="#00B0FF"/>
<path opacity="0.1" d="M435.157 146.643H413.986V174.105H435.157V146.643Z" fill="#00B0FF"/>
<path opacity="0.1" d="M435.157 203.566H413.986V209.889H435.157V203.566Z" fill="#00B0FF"/>
<path opacity="0.1" d="M435.157 212.573H413.986V231.021H435.157V212.573Z" fill="#00B0FF"/>
<path opacity="0.1" d="M435.157 260.488H413.986V287.95H435.157V260.488Z" fill="#00B0FF"/>
<path opacity="0.1" d="M435.157 317.411H413.986V344.873H435.157V317.411Z" fill="#00B0FF"/>
<path opacity="0.1" d="M435.151 395.409C435.364 395.409 435.571 395.409 435.779 395.447H435.151V401.827H413.986V374.333H435.151V395.409Z" fill="#00B0FF"/>
<path opacity="0.1" d="M329.748 297.511H239.016V299.528H329.748V297.511Z" fill="#00B0FF"/>
<path opacity="0.1" d="M329.748 302.212H239.016V309.944H329.748V302.212Z" fill="#00B0FF"/>
<path opacity="0.1" d="M329.748 335.287H239.016V347.72H329.748V335.287Z" fill="#00B0FF"/>
<path opacity="0.1" d="M329.742 373.064V385.497H258.774C255.693 383.142 252.649 380.724 249.643 378.243C247.564 376.527 245.504 374.767 243.406 373.064H329.742Z" fill="#00B0FF"/>
<path opacity="0.1" d="M505.107 221.002H487.246V238.878H505.107V221.002Z" fill="#00B0FF"/>
<path opacity="0.1" d="M118.378 137.711H100.517V155.588H118.378V137.711Z" fill="#00B0FF"/>
<path opacity="0.1" d="M118.378 179.234H100.517V197.11H118.378V179.234Z" fill="#00B0FF"/>
<path opacity="0.1" d="M118.378 220.757H100.517V238.633H118.378V220.757Z" fill="#00B0FF"/>
<path opacity="0.1" d="M118.378 262.273H100.517V280.15H118.378V262.273Z" fill="#00B0FF"/>
<path opacity="0.1" d="M118.378 303.796H100.517V321.673H118.378V303.796Z" fill="#00B0FF"/>
<path opacity="0.1" d="M118.378 345.319H100.517V363.195H118.378V345.319Z" fill="#00B0FF"/>
<path opacity="0.1" d="M573.292 221.002H555.431V238.878H573.292V221.002Z" fill="#00B0FF"/>
<path opacity="0.1" d="M505.107 265.096H487.246V282.972H505.107V265.096Z" fill="#00B0FF"/>
<path opacity="0.1" d="M573.292 265.096H555.431V282.972H573.292V265.096Z" fill="#00B0FF"/>
<path opacity="0.1" d="M505.107 309.183H487.246V327.059H505.107V309.183Z" fill="#00B0FF"/>
<path opacity="0.1" d="M573.292 309.183H555.431V327.059H573.292V309.183Z" fill="#00B0FF"/>
<path opacity="0.1" d="M505.107 353.276H487.246V371.153H505.107V353.276Z" fill="#00B0FF"/>
<path opacity="0.1" d="M573.292 353.276H555.431V371.153H573.292V353.276Z" fill="#00B0FF"/>
<path opacity="0.1" d="M11.3047 187.544V197.771H72.431V187.544H11.3047ZM17.3966 197.129H12.41V188.172H17.4343L17.3966 197.129ZM23.4822 197.129H18.458V188.172H23.4822V197.129ZM29.5553 197.129H24.531V188.172H29.5553V197.129ZM35.6409 197.129H30.6229V188.172H35.6472L35.6409 197.129ZM41.7203 197.129H36.696V188.172H41.7203V197.129ZM47.8059 197.129H42.7816V188.172H47.8059V197.129ZM53.8915 197.129H48.8673V188.172H53.8915V197.129ZM59.9708 197.129H54.9466V188.172H59.9708V197.129ZM66.0502 197.129H61.0259V188.172H66.0502V197.129ZM72.1295 197.129H67.1053V188.172H72.1295V197.129Z" fill="#00B0FF"/>
<path opacity="0.1" d="M11.3047 217.3V227.527H72.431V217.3H11.3047ZM17.3966 226.879H12.41V217.947H17.4343L17.3966 226.879ZM23.4822 226.879H18.458V217.947H23.4822V226.879ZM29.5553 226.879H24.531V217.947H29.5553V226.879ZM35.6409 226.879H30.6229V217.947H35.6472L35.6409 226.879ZM41.7203 226.879H36.696V217.947H41.7203V226.879ZM47.8059 226.879H42.7816V217.947H47.8059V226.879ZM53.8915 226.879H48.8673V217.947H53.8915V226.879ZM59.9708 226.879H54.9466V217.947H59.9708V226.879ZM66.0502 226.879H61.0259V217.947H66.0502V226.879ZM72.1295 226.879H67.1053V217.947H72.1295V226.879Z" fill="#00B0FF"/>
<path opacity="0.1" d="M11.3047 247.069V257.314H72.431V247.069H11.3047ZM17.3966 256.648H12.41V247.71H17.4343L17.3966 256.648ZM23.4822 256.648H18.458V247.71H23.4822V256.648ZM29.5553 256.648H24.531V247.71H29.5553V256.648ZM35.6409 256.648H30.6229V247.71H35.6472L35.6409 256.648ZM41.7203 256.648H36.696V247.71H41.7203V256.648ZM47.8059 256.648H42.7816V247.71H47.8059V256.648ZM53.8915 256.648H48.8673V247.71H53.8915V256.648ZM59.9708 256.648H54.9466V247.71H59.9708V256.648ZM66.0502 256.648H61.0259V247.71H66.0502V256.648ZM72.1295 256.648H67.1053V247.71H72.1295V256.648Z" fill="#00B0FF"/>
<path opacity="0.1" d="M11.3047 276.837V287.051H72.431V276.837H11.3047ZM17.3966 286.416H12.41V277.472H17.4343L17.3966 286.416ZM23.4822 286.416H18.458V277.472H23.4822V286.416ZM29.5553 286.416H24.531V277.472H29.5553V286.416ZM35.6409 286.416H30.6229V277.472H35.6472L35.6409 286.416ZM41.7203 286.416H36.696V277.472H41.7203V286.416ZM47.8059 286.416H42.7816V277.472H47.8059V286.416ZM53.8915 286.416H48.8673V277.472H53.8915V286.416ZM59.9708 286.416H54.9466V277.472H59.9708V286.416ZM66.0502 286.416H61.0259V277.472H66.0502V286.416ZM72.1295 286.416H67.1053V277.472H72.1295V286.416Z" fill="#00B0FF"/>
<path opacity="0.1" d="M11.5684 306.6C11.8133 307.561 12.0896 308.523 12.3785 309.472V307.241H17.4028V316.179H14.7148C14.7964 316.386 14.8781 316.613 14.9597 316.807H72.4309V306.6H11.5684ZM23.501 316.179H18.4767V307.241H23.501V316.179ZM29.574 316.179H24.5498V307.241H29.574V316.179ZM35.6596 316.179H30.6228V307.241H35.6471L35.6596 316.179ZM41.739 316.179H36.7147V307.241H41.739V316.179ZM47.8246 316.179H42.8004V307.241H47.8246V316.179ZM53.9102 316.179H48.886V307.241H53.9102V316.179ZM59.9896 316.179H54.9653V307.241H59.9896V316.179ZM66.0689 316.179H61.0447V307.241H66.0689V316.179ZM72.1483 316.179H67.124V307.241H72.1483V316.179Z" fill="#00B0FF"/>
<path opacity="0.1" d="M25.7617 336.368C25.9187 336.569 26.0695 336.796 26.2327 336.997H29.555V341.29C29.913 341.717 30.2647 342.145 30.629 342.547V336.972H35.6532V345.941H33.6184C33.8194 346.149 34.014 346.369 34.2464 346.57H72.4496V336.368H25.7617ZM41.72 345.941H36.6957V337.009H41.72V345.941ZM47.8056 345.941H42.7814V337.009H47.8056V345.941ZM53.8912 345.941H48.867V337.009H53.8912V345.941ZM59.9706 345.941H54.9463V337.009H59.9706V345.941ZM66.0499 345.941H61.0257V337.009H66.0499V345.941ZM72.1293 345.941H67.105V337.009H72.1293V345.941Z" fill="#00B0FF"/>
<path opacity="0.1" d="M59.2925 366.131C59.864 366.457 60.4481 366.759 61.0384 367.086V366.772H66.0627V369.6L67.1303 370.097V366.772H72.1546V372.209C72.2509 372.257 72.3519 372.295 72.456 372.322V366.131H59.2925Z" fill="#00B0FF"/>
<path opacity="0.1" d="M473.837 209.889H473.875H473.837ZM435.151 395.403H435.779H435.151ZM394.787 301.012C394.906 301.414 395.007 301.816 395.12 302.212C395.019 301.816 394.913 301.414 394.787 301.012ZM473.837 209.87H473.875H473.837ZM94.5063 115.75V118.433H122.561V115.75H94.5063ZM435.151 395.403H435.779H435.151ZM394.787 301.012C394.906 301.414 395.007 301.816 395.12 302.212C395.019 301.816 394.913 301.414 394.787 301.012ZM473.837 209.87H473.875H473.837ZM435.151 395.384H435.779H435.151ZM394.787 301.012C394.906 301.414 395.007 301.816 395.12 302.212C395.019 301.816 394.913 301.414 394.787 301.012Z" fill="#00B0FF"/>
<path d="M289.9 238.646C289.9 238.646 287.425 238.3 287.425 234.692C287.425 231.084 285.654 224.346 285.654 224.346C285.654 224.315 284.122 212.611 282.005 210.75C279.889 208.89 277.169 197.965 277.169 197.965C277.169 197.965 276.705 192.038 275.756 190.762C274.808 189.486 273.527 186.362 271.636 181.906C269.746 177.449 261.864 174.363 261.864 174.363C261.864 174.363 247.614 166.091 243.576 163.394C243.209 163.173 242.866 162.914 242.552 162.621C241.849 161.697 238.784 161.679 238.784 161.679C238.464 159.655 238.156 157.329 238.056 155.223C238.056 154.997 238.056 154.771 238.024 154.544C242.527 151.88 245.919 147.68 247.577 142.715C247.652 142.476 247.715 142.225 247.784 141.986C248.054 141.897 248.302 141.752 248.513 141.562C248.724 141.371 248.893 141.139 249.008 140.879C249.373 140.069 249.379 139.119 249.831 138.365C250.359 137.473 251.364 136.995 252.155 136.322C254.152 134.625 254.667 131.765 254.573 129.163C254.51 127.057 254.171 124.933 254.303 122.84L254.34 122.312C254.378 121.997 254.422 121.683 254.479 121.381C254.786 119.823 255.458 118.352 255.835 116.806C256.212 115.259 256.25 113.518 255.37 112.186C254.083 110.231 251.401 109.841 249.046 109.64C246.377 109.414 243.991 109.709 242.282 107.49C241.483 106.331 240.583 105.243 239.594 104.241C239.243 103.914 235.826 101.827 235.826 101.689C232.492 100.143 228.712 99.8528 225.181 100.872C223.41 101.387 221.739 102.229 219.943 102.65C216.068 103.568 211.609 102.575 208.318 104.794C206.484 106.051 205.385 108.05 204.355 109.998C203.518 111.603 202.668 113.206 201.806 114.807C200.418 117.44 199.005 120.118 198.421 123.035C198.298 123.669 198.222 124.312 198.194 124.958V124.989C198.194 125.222 198.194 125.455 198.194 125.687V125.983C198.194 126.203 198.194 126.416 198.232 126.611C198.27 126.806 198.264 126.869 198.282 127.001C198.301 127.133 198.333 127.428 198.37 127.629C198.408 127.83 198.483 128.182 198.559 128.459C198.59 128.578 198.634 128.692 198.672 128.805C198.735 129.018 198.81 129.226 198.892 129.433C198.936 129.54 198.979 129.653 199.03 129.76C199.124 129.98 199.237 130.194 199.35 130.389C199.4 130.477 199.438 130.558 199.488 130.64C199.663 130.932 199.856 131.214 200.066 131.482C201.41 133.161 203.388 134.229 204.852 135.801C204.852 135.864 204.852 135.926 204.852 135.983C204.852 136.159 204.852 136.329 204.852 136.505C204.929 140.009 205.861 143.442 207.567 146.504C209.272 149.565 211.699 152.164 214.636 154.073C214.636 154.312 214.668 154.557 214.68 154.796C214.803 156.662 214.78 158.534 214.611 160.396C214.355 160.095 214.035 159.855 213.674 159.694C213.314 159.533 212.921 159.455 212.526 159.466C212.256 159.453 211.986 159.476 211.722 159.535L211.666 159.491V159.548C210.284 159.887 208.582 161.327 206.955 165.418C206.955 165.418 202.007 171 198.238 170.768C194.47 170.535 184.93 176.575 184.93 176.575C184.93 176.575 175.623 182.622 173.626 188.782C172.51 192.275 171.171 195.693 169.619 199.015L158.113 222.743L155.991 241.569C155.991 241.569 157.165 249.941 156.933 251.217C156.7 252.493 161.762 264.002 161.762 264.002C161.762 264.002 178.487 293.412 185.32 294.921L185.81 294.575C186.102 294.728 186.412 294.844 186.733 294.921L188.14 293.928C188.224 295.035 188.188 296.147 188.033 297.247C187.091 300.151 188.385 319.102 190.03 322.816C191.675 326.531 191.091 375.238 191.091 375.238L190.859 379.538C190.859 379.538 190.859 379.676 190.916 379.915L190.859 380.933L191.029 381.021C191.205 382.385 191.147 383.769 190.859 385.113C190.269 386.999 190.03 392.329 190.03 392.329C190.03 392.329 185.326 422.425 187.556 428.471C189.785 434.518 191.682 441.143 191.682 441.143C191.682 441.143 194.037 448.686 191.795 449.974C189.553 451.263 183.178 453.425 184.491 456.568C185.684 459.472 190.212 467.254 190.884 468.391L190.828 468.988L189.904 479.001C190.054 480.323 190.412 481.613 190.966 482.823C191.977 485.004 193.943 487.267 197.679 487.022C198.307 486.978 199.036 486.902 199.739 486.808C206.579 485.89 215.001 482.836 215.001 482.836C214.563 482.558 214.162 482.226 213.807 481.849C213.471 481.523 213.205 481.132 213.024 480.7C212.844 480.267 212.754 479.803 212.759 479.335C212.859 477.512 209.449 468.825 208.601 466.688C208.469 466.38 208.4 466.204 208.4 466.204C208.4 466.204 216.175 458.07 214.881 450.861C214.881 450.861 206.277 445.832 209.11 443.073C211.942 440.313 217.004 432.387 217.004 432.387C217.004 432.387 217.236 402.751 217.004 398.326C216.762 395.254 216.907 392.165 217.437 389.13C217.532 388.671 217.645 388.225 217.764 387.785C221.681 388.37 225.635 388.67 229.596 388.683C231.041 388.683 232.51 388.683 233.992 388.595C233.992 389.014 234.011 389.467 234.049 389.953C234.375 397.295 234.985 410.168 235.481 414.951C236.184 421.809 240.072 440.288 240.072 440.288C240.072 440.288 232.655 445.053 241.365 456.794C241.365 456.794 241.365 461.05 240.788 461.666C240.171 463.679 239.674 465.728 239.299 467.8C238.935 470.013 238.784 472.251 239.374 473.413C240.788 476.192 249.266 475.965 249.266 475.965L249.473 475.928C251.074 475.762 252.691 475.916 254.232 476.381C255.773 476.846 257.206 477.613 258.448 478.637C261.67 481.227 273.897 480.089 280.517 479.265C283.111 478.939 284.844 478.637 284.844 478.637C284.928 478.343 284.958 478.036 284.932 477.732C284.863 476.104 283.588 472.534 274.946 469.347C274.946 469.347 266.819 463.878 266.932 459.114H266.763H265.821C266.505 459.076 266.945 459.114 266.945 459.114C266.945 459.114 263.761 447.485 265.061 446.542C266.361 445.6 262.467 432.714 262.467 432.714C262.467 432.714 260.238 411.092 260.118 409.577C260.123 408.277 260.32 406.985 260.702 405.743L260.118 393.888C260.118 393.888 260.005 389.947 260.118 388.665C260.099 387.552 260.009 386.441 259.848 385.339C259.792 384.899 259.735 384.441 259.672 383.988C262.718 383.215 264.697 382.498 264.697 382.498L264.345 341.233C266.932 336.205 267.41 325.174 267.397 317.348C267.397 312.32 267.171 308.598 267.171 308.598L270.707 302.822C270.707 302.822 271.523 295.908 270.23 294.393C269.658 293.708 269.916 292.998 270.387 292.413C270.631 292.219 270.889 292.042 271.159 291.885C271.159 291.885 271.121 291.828 271.078 291.747C271.324 291.54 271.587 291.353 271.863 291.187C271.863 291.187 270.606 289.239 271.731 288.415C272.786 289.132 273.728 289.672 274.444 290.112C274.394 290.571 274.343 290.835 274.343 290.835L274.645 290.207C275.336 290.596 275.756 290.835 275.756 290.835C275.756 290.835 281.296 279.791 281.176 278.163C281.057 276.536 284.944 269.678 284.944 269.678C284.944 269.678 285.415 266.076 287.538 264.568C289.661 263.059 289.184 252.128 289.184 252.128C289.184 252.128 289.774 246.434 291.187 244.108C292.6 241.782 289.9 238.646 289.9 238.646ZM183.913 233.8L184.02 236.433C183.392 235.421 182.94 234.692 182.94 234.692L183.913 233.8Z" fill="url(#paint0_linear)"/>
<path d="M276.058 286.064L274.701 291.847C274.701 291.847 263.836 286.297 261.877 279.245C259.917 272.192 265.155 269.514 265.155 269.514L275.279 273.808L276.058 286.064Z" fill="white"/>
<path opacity="0.1" d="M276.058 286.064L274.701 291.847C274.701 291.847 263.836 286.297 261.877 279.245C259.917 272.192 265.155 269.514 265.155 269.514L275.279 273.808L276.058 286.064Z" fill="black"/>
<path d="M229.992 185.03C221.702 181.805 211.038 171.151 213.7 166.173C214.292 164.917 214.643 163.561 214.737 162.175C214.908 160.294 214.933 158.403 214.812 156.518C214.625 153.431 214.254 150.358 213.7 147.316C213.7 147.316 239.582 147.9 238.074 151.716C237.635 152.835 237.566 154.777 237.685 156.952C237.804 159.127 238.118 161.584 238.445 163.665C238.897 166.518 239.349 168.693 239.349 168.693C239.349 168.693 237.767 170.912 236.837 171.032C235.908 171.151 241.887 189.624 229.992 185.03Z" fill="#CF6F80"/>
<path d="M218.436 386.427C218.015 387.468 217.695 388.548 217.481 389.651C216.957 392.672 216.812 395.746 217.048 398.803C217.28 403.203 217.048 432.689 217.048 432.689C217.048 432.689 212.08 440.552 209.31 443.324C206.541 446.096 214.963 451.074 214.963 451.074C216.219 458.24 208.607 466.336 208.607 466.336C200.87 456.97 191.512 468.649 191.512 468.649C191.512 468.649 186.425 459.849 185.156 456.706C183.888 453.563 190.124 451.389 192.316 450.113C194.508 448.837 192.209 441.313 192.209 441.313C192.209 441.313 190.356 434.719 188.158 428.704C185.96 422.689 190.583 392.744 190.583 392.744C190.583 392.744 190.821 387.426 191.393 385.572C191.681 384.234 191.738 382.856 191.562 381.499C191.525 381.04 191.481 380.657 191.449 380.399C191.418 380.141 191.393 380.022 191.393 380.022L191.481 379.871L194.621 374.013C194.621 374.013 219.943 382.737 218.436 386.427Z" fill="#00B0FF"/>
<path opacity="0.1" d="M238.074 151.716C237.634 152.835 237.565 154.777 237.685 156.952C234.218 159.041 230.233 160.109 226.187 160.034C222.141 159.958 218.198 158.742 214.812 156.524C214.625 153.435 214.254 150.36 213.7 147.316C213.7 147.316 239.581 147.888 238.074 151.716Z" fill="black"/>
<path d="M248.079 137.825C248.084 140.09 247.727 142.341 247.023 144.494C245.45 149.317 242.223 153.428 237.914 156.101C233.605 158.774 228.49 159.836 223.474 159.099C218.458 158.363 213.864 155.876 210.503 152.077C207.142 148.278 205.232 143.412 205.109 138.34C205.109 138.164 205.109 138.001 205.109 137.825C205.06 134.969 205.58 132.133 206.638 129.481C207.696 126.829 209.271 124.414 211.271 122.378C213.271 120.342 215.656 118.724 218.288 117.62C220.919 116.516 223.744 115.948 226.597 115.948C229.45 115.948 232.275 116.516 234.906 117.62C237.537 118.724 239.922 120.342 241.923 122.378C243.923 124.414 245.498 126.829 246.556 129.481C247.614 132.133 248.134 134.969 248.085 137.825H248.079Z" fill="#CF6F80"/>
<path opacity="0.1" d="M229.992 185.03C221.702 181.805 211.038 171.151 213.7 166.173C214.292 164.916 214.643 163.561 214.737 162.175L226.085 171.509L233.107 177.273L238.445 163.671C238.897 166.525 239.349 168.7 239.349 168.7C239.349 168.7 237.767 170.918 236.837 171.038C235.908 171.157 241.887 189.624 229.992 185.03Z" fill="black"/>
<path d="M259.339 226.282L249.862 385.622L237.503 386.433L205.498 294.041L210.748 184.351L211.854 161.176L226.085 172.873L233.113 178.637L238.608 164.639L248.826 173.552L259.339 226.282Z" fill="#00B0FF"/>
<path opacity="0.1" d="M218.436 386.427C218.015 387.468 217.695 388.548 217.481 389.651C208.488 388.262 199.753 385.531 191.568 381.549L191.399 381.461L191.455 380.449L191.487 379.921L194.627 374.063C194.627 374.063 219.943 382.737 218.436 386.427Z" fill="black"/>
<path opacity="0.1" d="M241.428 388.287C215.679 392.687 192.096 380.072 192.096 380.072L192.322 375.798C192.322 375.798 192.906 327.342 191.286 323.627C189.666 319.913 188.403 301.075 189.32 298.183C190.237 295.292 185.973 251.934 185.973 251.934L185.282 234.334L159.998 224.082L171.302 200.498C172.829 197.192 174.142 193.791 175.234 190.316C177.199 184.194 186.325 178.178 186.325 178.178C186.325 178.178 195.682 172.169 199.381 172.395C203.081 172.622 207.929 167.078 207.929 167.078C211.509 157.945 214.749 162.081 214.749 162.081C214.749 162.515 214.749 162.081 214.573 163.432C213.317 173.458 234.884 205.137 235.192 205.697L237.245 255.768L239.324 319.133L241.428 388.287Z" fill="black"/>
<path d="M240.737 388.287C214.988 392.687 191.399 380.072 191.399 380.072L191.631 375.798C191.631 375.798 192.215 327.342 190.589 323.627C188.962 319.913 187.706 301.075 188.629 298.183C189.552 295.292 185.282 251.934 185.282 251.934L184.585 234.334L159.288 224.044L170.592 200.461C172.116 197.153 173.429 193.752 174.524 190.278C176.483 184.156 185.615 178.141 185.615 178.141C185.615 178.141 194.972 172.131 198.665 172.358C202.358 172.584 207.213 167.04 207.213 167.04C210.799 157.907 214.749 162.043 214.749 162.043C214.749 162.477 214.372 162.672 214.573 163.394C217.337 173.118 234.193 205.1 234.501 205.659L236.579 255.73L238.658 319.095L240.737 388.287Z" fill="white"/>
<path opacity="0.1" d="M233.797 207.086C231.028 205.929 216.357 189.166 216.357 189.166V185.35C215.823 184.093 212.652 184.86 210.077 185.74L211.182 162.565L212.438 163.608C215.189 173.326 233.477 206.526 233.797 207.086Z" fill="black"/>
<path d="M234.495 205.697C231.719 204.54 217.048 187.776 217.048 187.776V183.961C216.514 182.704 213.343 183.471 210.768 184.351L211.879 161.176L213.135 162.219C215.892 171.937 234.187 205.144 234.495 205.697Z" fill="white"/>
<path opacity="0.1" d="M192.096 289.302C192.442 289.302 210.001 287.454 210.001 287.454C210.001 287.454 220.634 308.378 219.937 313.47C219.24 318.561 217.977 323.068 213.7 322.27C209.424 321.471 190.683 322.898 190.683 322.898L192.096 289.302Z" fill="black"/>
<path d="M191.399 287.912C191.744 287.912 209.304 286.064 209.304 286.064C209.304 286.064 219.93 306.996 219.24 312.081C218.549 317.166 217.274 321.679 213.003 320.88C208.733 320.082 189.986 321.509 189.986 321.509L191.399 287.912Z" fill="white"/>
<path d="M204.631 278.088C204.631 278.088 220.747 286.756 221.092 289.402C221.438 292.048 212.89 288.246 211.044 287.787C209.828 287.494 208.591 287.3 207.345 287.208L195.029 287.542L204.631 278.088Z" fill="#CF6F80"/>
<path opacity="0.1" d="M229.301 208.167C230.237 208.167 230.996 207.407 230.996 206.47C230.996 205.532 230.237 204.773 229.301 204.773C228.364 204.773 227.605 205.532 227.605 206.47C227.605 207.407 228.364 208.167 229.301 208.167Z" fill="black"/>
<path d="M229.301 207.475C230.237 207.475 230.996 206.716 230.996 205.778C230.996 204.841 230.237 204.081 229.301 204.081C228.364 204.081 227.605 204.841 227.605 205.778C227.605 206.716 228.364 207.475 229.301 207.475Z" fill="#3F3D56"/>
<path opacity="0.1" d="M232.422 281.633C233.358 281.633 234.117 280.873 234.117 279.936C234.117 278.999 233.358 278.239 232.422 278.239C231.485 278.239 230.726 278.999 230.726 279.936C230.726 280.873 231.485 281.633 232.422 281.633Z" fill="black"/>
<path d="M232.422 280.935C233.358 280.935 234.117 280.176 234.117 279.238C234.117 278.301 233.358 277.541 232.422 277.541C231.485 277.541 230.726 278.301 230.726 279.238C230.726 280.176 231.485 280.935 232.422 280.935Z" fill="#3F3D56"/>
<path opacity="0.1" d="M230.99 244.9C231.927 244.9 232.686 244.14 232.686 243.203C232.686 242.266 231.927 241.506 230.99 241.506C230.054 241.506 229.294 242.266 229.294 243.203C229.294 244.14 230.054 244.9 230.99 244.9Z" fill="black"/>
<path d="M230.99 244.209C231.927 244.209 232.686 243.449 232.686 242.512C232.686 241.574 231.927 240.814 230.99 240.814C230.054 240.814 229.294 241.574 229.294 242.512C229.294 243.449 230.054 244.209 230.99 244.209Z" fill="#3F3D56"/>
<path d="M270.079 286.857C270.079 286.857 271.234 288.591 270.079 289.402C268.923 290.213 270.192 292.174 270.192 292.174C270.192 292.174 267.309 293.865 268.578 295.386C269.846 296.907 269.042 303.777 269.042 303.777L265.576 309.522C265.576 309.522 265.783 313.225 265.796 318.228C265.796 326.035 265.337 337.009 262.8 342.013L263.152 383.064C263.152 383.064 251.012 387.502 240.85 386.15L239.343 320.277C239.343 320.277 241.541 282.922 242.351 275.756C242.825 272.036 243.018 268.285 242.929 264.536C242.929 264.536 242.583 253.323 241.422 248.118C241.422 248.118 240.166 225.572 240.04 219.33C239.983 216.345 240.14 207.633 240.316 199.348C240.511 190.291 240.731 181.749 240.731 181.749L238.438 163.596C238.438 163.596 240.731 163.363 241.422 164.287C241.731 164.576 242.068 164.835 242.426 165.06C246.383 167.738 260.363 175.972 260.363 175.972C260.363 175.972 268.1 179.052 269.953 183.464C271.806 187.877 273.093 191.007 273.991 192.264C274.889 193.521 275.379 199.43 275.379 199.43C275.379 199.43 278.042 210.304 280.121 212.146C282.2 213.987 283.72 225.704 283.72 225.704L265.35 240.161C265.35 240.161 263.736 264.209 263.39 265.14C263.045 266.07 270.079 286.857 270.079 286.857Z" fill="white"/>
<path d="M270.776 286.856C270.776 286.856 271.925 288.591 270.776 289.402C269.627 290.213 270.883 292.174 270.883 292.174C270.883 292.174 268.019 293.884 269.275 295.405C270.531 296.926 269.74 303.796 269.74 303.796L266.273 309.541C266.273 309.541 266.48 313.243 266.499 318.247C266.499 326.054 266.04 337.028 263.503 342.032L263.849 383.083C263.849 383.083 251.69 387.521 241.541 386.169L240.04 320.296C240.04 320.296 242.238 282.941 243.048 275.775C243.523 272.055 243.714 268.304 243.62 264.555C243.62 264.555 243.274 253.342 242.119 248.137C242.119 248.137 240.863 225.591 240.731 219.349C240.674 216.363 240.838 207.651 241.007 199.367C241.202 190.309 241.422 181.767 241.422 181.767L238.395 163.369C238.395 163.369 241.422 163.369 242.119 164.306C242.425 164.599 242.762 164.858 243.124 165.079C247.08 167.757 261.066 175.991 261.066 175.991C261.066 175.991 268.798 179.071 270.65 183.483C272.503 187.896 273.79 191.026 274.695 192.283C275.599 193.54 276.076 199.449 276.076 199.449C276.076 199.449 278.739 210.323 280.818 212.165C282.897 214.006 284.398 225.697 284.398 225.697L266.028 240.154C266.028 240.154 264.414 264.203 264.062 265.133C263.71 266.064 270.776 286.856 270.776 286.856Z" fill="white"/>
<path opacity="0.1" d="M248.776 187.104L250.434 191.944L241.704 200.744C241.899 191.692 242.119 183.144 242.119 183.144L239.092 164.746C239.092 164.746 242.119 164.746 242.816 165.682C243.122 165.974 243.459 166.232 243.821 166.449L251.244 187.883L248.776 187.104Z" fill="black"/>
<path d="M248.079 185.715L249.743 190.555L241.013 199.354C241.208 190.297 241.428 181.755 241.428 181.755L238.395 163.357C238.395 163.357 241.428 163.357 242.119 164.293C242.427 164.584 242.763 164.843 243.124 165.066L250.553 186.494L248.079 185.715Z" fill="white"/>
<path opacity="0.1" d="M248.079 137.825C248.084 140.09 247.727 142.341 247.023 144.494C246.905 144.512 246.784 144.507 246.667 144.478C246.551 144.448 246.441 144.396 246.345 144.324C246.182 138.667 243.4 133.356 239.977 128.836C239.016 127.472 237.851 126.263 236.523 125.253C235.18 124.244 233.51 123.771 231.838 123.927C229.954 124.185 228.289 125.467 226.386 125.631C223.874 125.838 221.626 124.097 219.133 124.009C218.119 124.018 217.119 124.244 216.2 124.671C215.28 125.098 214.462 125.717 213.801 126.485C212.491 128.036 211.518 129.843 210.943 131.79C209.956 134.744 209.418 137.829 209.348 140.942C209.316 142.702 209.147 144.909 207.514 145.55C207.637 144.255 207.49 142.949 207.082 141.715C206.675 140.48 206.016 139.344 205.146 138.378L205.109 138.34C205.109 138.164 205.109 138.001 205.109 137.825C205.06 134.969 205.58 132.133 206.638 129.481C207.696 126.829 209.271 124.414 211.271 122.378C213.271 120.342 215.656 118.724 218.288 117.62C220.919 116.516 223.744 115.948 226.597 115.948C229.45 115.948 232.275 116.516 234.906 117.62C237.537 118.724 239.922 120.342 241.923 122.378C243.923 124.414 245.498 126.829 246.556 129.481C247.614 132.133 248.134 134.969 248.085 137.825H248.079Z" fill="black"/>
<path d="M235.493 103.675C232.229 102.138 228.518 101.848 225.055 102.858C223.315 103.373 221.676 104.209 219.911 104.63C216.143 105.542 211.747 104.555 208.513 106.761C206.717 108.018 205.636 110.005 204.631 111.934L202.119 116.724C200.75 119.345 199.369 122.01 198.797 124.895C198.226 127.78 198.571 131.011 200.399 133.33C201.73 135.021 203.696 136.084 205.14 137.674C206.006 138.641 206.662 139.777 207.068 141.01C207.475 142.243 207.622 143.547 207.502 144.839C209.141 144.211 209.298 141.998 209.335 140.238C209.405 137.125 209.943 134.04 210.931 131.086C211.504 129.138 212.477 127.331 213.788 125.781C214.45 125.014 215.268 124.396 216.188 123.969C217.107 123.542 218.107 123.315 219.12 123.305C221.632 123.393 223.887 125.128 226.374 124.92C228.258 124.763 229.929 123.475 231.825 123.223C233.498 123.065 235.169 123.538 236.51 124.549C237.838 125.558 239.001 126.766 239.958 128.132C243.387 132.652 246.169 137.95 246.333 143.62C247.042 144.142 248.066 143.463 248.418 142.658C248.77 141.854 248.782 140.911 249.228 140.144C249.743 139.258 250.729 138.786 251.501 138.12C253.461 136.429 253.951 133.582 253.875 130.998C253.8 128.415 253.298 125.794 253.788 123.255C254.083 121.696 254.748 120.237 255.113 118.698C255.477 117.158 255.521 115.429 254.66 114.103C253.404 112.154 250.76 111.771 248.456 111.588C245.837 111.362 243.494 111.651 241.824 109.445C241.039 108.294 240.157 107.213 239.186 106.214C238.853 105.887 235.493 103.813 235.493 103.675Z" fill="#512E4E"/>
<path opacity="0.1" d="M167.232 236.226L160.669 224.082L158.59 242.82C158.59 242.82 159.746 251.142 159.514 252.418C159.281 253.694 164.249 265.133 164.249 265.133C164.249 265.133 180.659 294.387 187.36 295.895L210.001 279.703L203.997 272.073C203.997 272.073 201.918 271.262 201.397 272.073C201.397 272.073 190.249 252.876 189.094 251.487C187.938 250.098 188.164 247.326 188.164 247.326C188.164 247.326 186.431 245.478 187.009 243.743C187.587 242.009 183.661 235.993 183.661 235.993L187.241 232.643L167.232 236.226Z" fill="black"/>
<path d="M161.015 222.699L159.281 224.082L157.203 242.819C157.203 242.819 158.358 251.142 158.126 252.418C157.893 253.694 162.867 265.133 162.867 265.133C162.867 265.133 179.272 294.387 185.973 295.895L208.62 279.703L202.609 272.073C202.609 272.073 200.531 271.262 200.009 272.073C200.009 272.073 188.862 252.876 187.706 251.487C186.551 250.098 186.783 247.326 186.783 247.326C186.783 247.326 185.05 245.478 185.627 243.743C186.205 242.009 182.274 235.993 182.274 235.993L185.853 232.643L161.015 222.699Z" fill="white"/>
<path opacity="0.1" d="M268.578 296.103C269.834 297.63 269.043 304.488 269.043 304.488L265.576 310.233C265.576 310.233 265.783 313.941 265.796 318.938L259.968 320.761C259.441 320.926 258.883 320.962 258.339 320.867C257.795 320.771 257.283 320.547 256.843 320.213C256.404 319.879 256.05 319.445 255.813 318.947C255.575 318.448 255.46 317.9 255.477 317.348L256.482 284.908L270.079 290.112C268.923 290.917 270.192 292.891 270.192 292.891C270.192 292.891 267.309 294.575 268.578 296.103Z" fill="black"/>
<path d="M269.275 295.405C270.531 296.932 269.739 303.796 269.739 303.796L266.273 309.541C266.273 309.541 266.48 313.244 266.499 318.247L260.564 320.101C260.048 320.262 259.501 320.296 258.969 320.203C258.437 320.109 257.935 319.889 257.505 319.562C257.075 319.235 256.729 318.81 256.497 318.322C256.264 317.834 256.151 317.298 256.168 316.757L257.179 284.217L270.782 289.421C269.62 290.226 270.889 292.193 270.889 292.193C270.889 292.193 268.019 293.884 269.275 295.405Z" fill="white"/>
<path d="M273.778 279.942C273.778 279.942 272.855 285.844 270.544 286.19C268.232 286.536 267.196 295.738 264.891 295.411C262.586 295.084 264.112 286.856 264.194 285.26C264.276 283.663 261.682 277.051 263.623 275.549C265.563 274.046 271.705 275.549 271.705 275.549L273.778 279.942Z" fill="#CF6F80"/>
<path opacity="0.1" d="M278.695 234.491L283.054 225.691C283.054 225.691 284.787 232.398 284.787 235.981C284.787 239.564 287.212 239.916 287.212 239.916C287.212 239.916 289.868 243.058 288.468 245.346C287.067 247.634 286.502 253.329 286.502 253.329C286.502 253.329 286.96 264.197 284.882 265.699C282.803 267.201 282.369 270.79 282.369 270.79C282.369 270.79 278.551 277.61 278.67 279.232C278.79 280.854 273.357 291.835 273.357 291.835C273.357 291.835 276.014 278.189 260.533 272.293C260.533 272.293 260.413 267.66 261.569 266.391C262.725 265.121 264.527 264.543 263.397 258.125C262.266 251.707 263.07 244.039 263.07 242.499C263.07 240.959 266.537 231.355 266.537 231.355L278.695 234.491Z" fill="black"/>
<path d="M280.579 224.434L284.385 225.691C284.385 225.691 286.125 232.398 286.125 235.981C286.125 239.564 288.549 239.916 288.549 239.916C288.549 239.916 291.206 243.058 289.805 245.346C288.405 247.634 287.846 253.329 287.846 253.329C287.846 253.329 288.304 264.197 286.225 265.699C284.147 267.201 283.682 270.79 283.682 270.79C283.682 270.79 279.87 277.61 279.989 279.232C280.108 280.854 274.67 291.835 274.67 291.835C274.67 291.835 277.333 278.189 261.845 272.293C261.845 272.293 261.732 267.66 262.888 266.391C264.043 265.121 265.846 264.543 264.715 258.125C263.585 251.707 264.389 244.039 264.389 242.499C264.389 240.959 267.856 231.355 267.856 231.355L280.579 224.434Z" fill="white"/>
<g opacity="0.1">
<path opacity="0.1" d="M251.514 136.743C250.742 137.41 249.749 137.887 249.234 138.774C248.795 139.534 248.782 140.471 248.431 141.288C248.079 142.105 247.055 142.771 246.345 142.256C246.182 136.599 243.394 131.288 239.971 126.762C239.014 125.396 237.851 124.187 236.523 123.179C235.179 122.168 233.506 121.695 231.832 121.853C229.948 122.111 228.29 123.393 226.387 123.55C223.875 123.764 221.62 122.023 219.127 121.935C218.113 121.945 217.114 122.171 216.196 122.6C215.277 123.028 214.461 123.648 213.801 124.417C212.49 125.965 211.516 127.77 210.943 129.716C209.956 132.67 209.419 135.755 209.348 138.868C209.31 140.622 209.147 142.809 207.527 143.463C207.565 143.927 207.565 144.394 207.527 144.858C209.16 144.23 209.323 142.017 209.361 140.257C209.431 137.144 209.968 134.059 210.956 131.105C211.529 129.157 212.502 127.35 213.813 125.8C214.474 125.033 215.291 124.415 216.21 123.988C217.128 123.561 218.127 123.334 219.139 123.324C221.651 123.412 223.912 125.147 226.399 124.939C228.283 124.782 229.954 123.493 231.844 123.242C233.518 123.084 235.191 123.557 236.536 124.568C237.863 125.577 239.027 126.785 239.984 128.151C243.406 132.67 246.195 137.969 246.358 143.639C247.068 144.161 248.091 143.482 248.443 142.677C248.795 141.873 248.807 140.93 249.247 140.163C249.762 139.277 250.754 138.805 251.527 138.139C253.486 136.448 253.976 133.601 253.901 131.017C253.901 130.936 253.901 130.854 253.901 130.778C253.781 133.016 253.185 135.298 251.514 136.743Z" fill="black"/>
<path opacity="0.1" d="M205.153 136.297C203.708 134.707 201.736 133.645 200.411 131.96C199.295 130.469 198.658 128.674 198.584 126.812C198.386 129.139 199.035 131.458 200.411 133.343C201.736 135.034 203.708 136.096 205.153 137.686C206.54 139.242 207.372 141.214 207.521 143.293C207.617 142.028 207.457 140.756 207.05 139.553C206.643 138.351 205.998 137.244 205.153 136.297Z" fill="black"/>
<path opacity="0.1" d="M255.125 117.321C254.755 118.861 254.095 120.325 253.794 121.878C253.615 122.915 253.55 123.969 253.599 125.021C253.62 124.422 253.685 123.825 253.794 123.236C254.095 121.677 254.755 120.219 255.125 118.679C255.341 117.829 255.411 116.949 255.333 116.076C255.294 116.496 255.224 116.912 255.125 117.321Z" fill="black"/>
</g>
<path d="M85.3308 279.798H81.3931V368.532H85.3308V279.798Z" fill="#535461"/>
<path d="M110.075 368.261L109.83 372.259L109.478 377.916L109.334 380.267L108.989 385.924L108.838 388.275L108.486 393.932L104.517 458.089C104.344 460.85 103.127 463.44 101.114 465.334C99.0998 467.228 96.4406 468.283 93.6771 468.284H73.04C70.2772 468.283 67.6187 467.228 65.6059 465.334C63.5931 463.44 62.3774 460.849 62.2064 458.089L58.2561 393.888L57.9044 388.231L57.76 385.88L57.4083 380.223L57.2638 377.872L56.9121 372.215L56.6609 368.217C56.6173 367.448 56.7312 366.678 56.9957 365.954C57.2601 365.23 57.6695 364.568 58.1988 364.008C58.7281 363.449 59.366 363.003 60.0736 362.699C60.7811 362.395 61.5432 362.239 62.3132 362.24H104.523C105.29 362.246 106.048 362.41 106.749 362.721C107.451 363.032 108.081 363.484 108.601 364.048C109.121 364.613 109.521 365.277 109.774 366.002C110.028 366.727 110.13 367.496 110.075 368.261Z" fill="#3F3D56"/>
<path d="M109.83 372.259L109.479 377.897H57.2389L56.8872 372.259H109.83Z" fill="#9D9CB5"/>
<path d="M50.8769 313.055C73.8063 329.661 83.3775 355.634 83.3775 355.634C83.3775 355.634 55.7441 354.685 32.8084 338.078C9.87267 321.471 0.320312 295.505 0.320312 295.505C0.320312 295.505 27.9411 296.448 50.8769 313.055Z" fill="#00B0FF"/>
<path d="M0.30127 295.505C0.30127 295.505 28.9898 311.439 38.1904 324.633C47.3911 337.826 83.3773 355.634 83.3773 355.634" stroke="#535461" stroke-width="2" stroke-miterlimit="10"/>
<path d="M65.6795 279.603C78.1585 288.635 83.3774 302.772 83.3774 302.772C83.3774 302.772 68.3361 302.256 55.8508 293.224C43.3656 284.191 38.1592 270.049 38.1592 270.049C38.1592 270.049 53.1943 270.564 65.6795 279.603Z" fill="#00B0FF"/>
<path d="M38.1592 270.049C38.1592 270.049 53.772 278.723 58.7775 285.901C63.7829 293.079 83.3774 302.772 83.3774 302.772" stroke="#535461" stroke-width="2" stroke-miterlimit="10"/>
<path d="M101.496 302.055C87.1579 317.826 84.1245 338.436 84.1245 338.436C84.1245 338.436 104.341 333.471 118.666 317.694C132.992 301.917 136.038 281.312 136.038 281.312C136.038 281.312 115.834 286.284 101.496 302.055Z" fill="#00B0FF"/>
<path d="M136.05 281.319C136.05 281.319 117.373 297.485 112.625 308.624C107.877 319.762 84.1245 338.436 84.1245 338.436" stroke="#535461" stroke-width="2" stroke-miterlimit="10"/>
<path d="M627.824 296.505C627.824 296.505 617.455 244.875 621.424 238.451C621.424 238.451 621.569 232.48 621.33 224.868C621.33 224.579 621.33 224.289 621.33 223.994C622.029 224.46 622.757 224.88 623.51 225.251C627.167 227.132 631.365 227.674 635.379 226.785L632.239 223.284C631.486 222.448 630.7 221.543 630.537 220.436C630.374 219.33 630.826 218.343 631.216 217.356C634.199 209.814 634.356 200.329 628.609 194.571C623.754 189.731 622.574 183.483 617.305 179.065C613.455 175.827 611.338 171.082 609.341 166.493C607.652 162.615 605.95 158.705 604.983 154.595C604.229 151.383 603.928 148.058 602.891 144.921C601.855 141.785 599.914 138.736 596.881 137.334C595.801 136.838 594.601 136.555 593.615 135.895C592.321 135.021 591.543 133.601 590.607 132.356C585.853 126.071 569.932 129.773 562.396 132.325C560.347 132.967 558.45 134.019 556.819 135.417L556.888 135.304C556.944 135.21 557.014 135.116 557.076 135.021C556.251 135.689 555.539 136.485 554.966 137.378C553.867 139.119 553.409 141.15 552.492 143.035C551.386 145.267 545.238 151.496 547.882 154.004C548.067 154.172 548.28 154.308 548.51 154.406C549.503 154.82 550.595 154.929 551.65 154.72L551.537 154.991C550.634 157.203 550.171 159.571 550.174 161.961C550.174 172.289 558.684 180.661 569.191 180.661C571.166 180.663 573.13 180.36 575.013 179.762C575.057 180.001 575.095 180.24 575.139 180.479C575.139 180.573 575.17 180.667 575.183 180.762L574.85 181.227C574.833 181.198 574.814 181.171 574.793 181.145L564.933 194.936C563.426 195.998 554.746 202.284 554.256 206.998C553.742 212.158 553.227 218.199 553.227 218.199L553.157 219.494C552.727 219.854 552.223 220.116 551.68 220.263C551.138 220.409 550.571 220.436 550.017 220.342C546.94 219.839 546.94 231.656 546.94 231.656C546.94 231.656 544.893 233.542 543.486 231.908C542.079 230.273 538.361 235.811 538.361 235.811L515.061 236.817L514.527 236.848L513.271 232.957C513.136 232.547 512.844 232.207 512.46 232.01C512.075 231.813 511.629 231.777 511.217 231.908C511.12 231.94 511.026 231.98 510.935 232.027L510.847 232.077L510.684 232.191L510.602 232.266C510.557 232.307 510.515 232.351 510.476 232.398L510.401 232.486L510.363 232.524C510.218 232.724 510.122 232.956 510.083 233.201C510.044 233.445 510.062 233.696 510.137 233.932L511.217 237.269C506.721 238.174 502.124 240.726 505.873 247.754L486.869 244.24L493.017 249.407L524.758 255.963C524.337 256.717 524.613 257.811 525.926 259.351C531.578 265.995 541.878 267.799 546.023 268.264C547.118 270.714 548.485 273.034 550.099 275.178L549.741 281.797C549.741 281.797 539.247 332.245 537.325 334.803C538.295 333.703 539.183 332.533 539.981 331.302C536.935 341.667 532.677 355.854 531.559 357.978C529.763 361.372 528.099 375.106 530.146 375.986C530.774 376.257 532.571 376.125 535.133 375.93V377.068L535.02 420.181C535.02 420.181 535.535 446.624 534.122 449.145C532.709 451.665 532.332 456.951 532.332 456.951C532.332 456.951 526.68 467.379 522.202 471.572C522.171 471.604 522.138 471.634 522.101 471.66L521.963 470.679C521.963 470.679 516.581 477.48 504.673 477.097C504.673 477.097 497.508 481.761 508.134 482.012C518.76 482.264 532.332 481.635 532.332 481.635C532.332 481.635 541.809 467.178 549.747 469.064V480.02H552.178V468.888C553.305 468.145 554.27 467.181 555.013 466.054C555.757 464.927 556.265 463.661 556.505 462.332C556.713 460.962 556.56 459.561 556.063 458.269C555.565 456.976 554.739 455.835 553.666 454.959C553.184 454.523 552.798 453.992 552.531 453.399C552.264 452.806 552.122 452.165 552.115 451.514L552.027 451.59C552.027 451.37 551.97 451.144 551.945 450.911C551.248 445.254 550.375 433.582 553.459 424.945C557.686 413.103 558.967 396.61 555.889 386.791C554.896 383.653 554.081 380.461 553.446 377.231C553.371 376.822 553.302 376.433 553.239 376.068C555.343 376.353 557.426 376.773 559.475 377.325C566.604 379.293 582.198 379.657 595.512 379.55C595.543 379.915 595.581 380.298 595.625 380.682C595.862 383.347 596.359 385.983 597.107 388.551C598.778 393.58 599.544 415.749 599.544 415.749C599.544 415.749 601.698 433.978 600.524 441.395C599.896 445.518 599.268 449.66 598.91 453.821V453.903C598.91 453.903 595.38 463.96 592.799 469.422C592.736 469.56 592.667 469.699 592.604 469.831C591.916 469.893 591.239 470.043 590.588 470.277C590.588 470.277 587.128 477.191 583.68 478.335C580.232 479.479 581.375 483.244 589.181 481.861C596.988 480.478 608.776 479.347 608.776 479.347L609.285 472.295L611.684 469.29L611.056 476.324L613.612 475.821L613.273 467.266L617.198 462.351C617.198 462.351 621.939 458.127 614.893 449.817V450C614.818 449.88 614.748 449.754 614.667 449.635V449.597C613.499 447.787 612.569 444.412 614.271 438.421C617.349 427.598 619.138 417.773 619.138 417.773C619.138 417.773 626.009 391.455 617.75 379.004H618.115C617.268 377.251 616.67 375.39 616.337 373.472C616.296 373.246 616.258 373.013 616.224 372.775C622.335 372.423 628.333 371.316 633.225 368.928C633.206 368.903 630.261 306.449 627.824 296.505ZM550.243 252.946V253.071L548.987 253.134L550.243 252.946ZM545.935 253.543C545.729 253.589 545.535 253.681 545.37 253.813C544.83 254.578 544.491 255.466 544.384 256.396L542.424 255.956C542.424 255.956 541.049 255.661 539.071 255.328L538.135 254.385C540.71 254.171 543.385 253.857 545.935 253.543Z" fill="url(#paint1_linear)"/>
<path d="M553.597 425.065C550.576 433.676 551.431 445.298 552.109 450.942C552.36 453.029 552.592 454.299 552.592 454.299C552.592 454.299 548.077 464.595 547.7 464.984C547.323 465.374 534.411 473.263 534.411 473.263L525.386 478.536C525.386 478.536 516.229 474.52 520.619 473.137C521.516 472.777 522.324 472.225 522.987 471.521C527.383 467.342 532.904 456.951 532.904 456.951C532.904 456.951 533.281 451.678 534.662 449.17C536.044 446.662 535.541 420.306 535.541 420.306L535.648 377.344V371.744L552.825 371.869C552.933 373.771 553.181 375.661 553.566 377.526C554.182 380.746 554.981 383.927 555.959 387.055C558.986 396.855 557.73 413.266 553.597 425.065Z" fill="#FFB0B1"/>
<path d="M613.153 438.491C611.483 444.462 612.393 447.825 613.536 449.629V449.666C615.002 451.894 616.022 454.385 616.538 457.002L616.639 457.567L604.857 474.759L598.464 477.273C598.464 477.273 588.183 473.759 590.061 472.753C590.532 472.508 591.266 471.201 592.108 469.397C594.62 463.96 598.087 453.928 598.087 453.928V453.846C598.451 449.704 599.029 445.574 599.67 441.464C600.819 434.066 598.709 415.906 598.709 415.906C598.709 415.906 597.955 393.825 596.322 388.803C595.585 386.249 595.095 383.631 594.859 380.984C594.52 377.841 594.444 375.251 594.444 375.251C594.444 375.251 601.214 365.823 613.624 376.005C614.617 376.817 615.49 377.765 616.218 378.821C624.791 391.028 617.889 417.918 617.889 417.918C617.889 417.918 616.162 427.698 613.153 438.491Z" fill="#FFB0B1"/>
<path opacity="0.1" d="M552.844 371.857C552.952 373.758 553.2 375.649 553.585 377.514C546.513 376.477 539.95 376.992 535.648 377.332V371.731L552.844 371.857Z" fill="black"/>
<path opacity="0.1" d="M616.916 380.386C616.916 380.386 606.867 380.877 594.884 380.977C594.545 377.834 594.47 375.245 594.47 375.245C594.47 375.245 601.24 365.816 613.65 375.999C614.642 376.811 615.515 377.759 616.244 378.815C616.438 379.351 616.663 379.875 616.916 380.386Z" fill="black"/>
<path d="M616.916 379.255C616.916 379.255 572.903 381.386 559.488 377.621C546.074 373.856 532.778 377.118 530.775 376.244C528.771 375.37 530.398 361.687 532.156 358.299C533.915 354.911 543.561 320.648 543.561 320.648L552.844 272.211L562.622 269.514L563.313 269.32L580.352 264.618L592.837 261.167C592.837 261.167 617.663 358.173 615.534 365.326C614.761 368.065 614.636 370.947 615.17 373.742C615.495 375.652 616.082 377.507 616.916 379.255Z" fill="#1D2366"/>
<path d="M520.487 239.086C520.487 239.086 511.695 248.514 518.352 253.769C525.009 259.024 529.387 254.272 529.387 254.272L520.487 239.086Z" fill="#C7DAF5"/>
<path opacity="0.1" d="M520.487 239.086C520.487 239.086 511.695 248.514 518.352 253.769C525.009 259.024 529.387 254.272 529.387 254.272L520.487 239.086Z" fill="black"/>
<path d="M591.524 177.097C591.524 177.097 590.494 178.078 588.943 179.523C586.732 181.591 583.46 184.615 580.559 187.148C576.539 190.649 573.223 193.22 574.41 191.026C575.597 188.832 575.371 185.011 574.781 181.434C574.737 181.195 574.699 180.956 574.655 180.724C574.166 178.097 573.518 175.503 572.714 172.955C572.714 172.955 579.208 164.557 582.801 161.245C584.138 159.988 585.074 159.472 585.131 160.346C585.193 161.521 586.073 164.117 587.165 166.87C587.197 166.958 587.228 167.04 587.266 167.128C587.994 169.014 588.817 170.95 589.539 172.622C590.645 175.186 591.524 177.097 591.524 177.097Z" fill="#FFB0B1"/>
<path opacity="0.1" d="M587.266 167.128C586.656 170.413 585.175 173.474 582.979 175.991C580.782 178.507 577.951 180.387 574.781 181.434C574.281 178.565 573.591 175.732 572.714 172.955C572.714 172.955 584.942 157.147 585.131 160.346C585.175 161.559 586.129 164.249 587.266 167.128Z" fill="black"/>
<path opacity="0.1" d="M573.562 185.658L575.145 183.427C575.145 183.427 576.194 189.826 580.05 187.003C583.906 184.181 584.094 208.242 584.094 208.242L579.956 270.174L550.049 268.383L550.897 238.457L554.282 223.372L562.653 201.441L567.634 194.194L573.562 185.658Z" fill="black"/>
<path d="M584.095 208.626L580.326 264.624L579.931 270.558L563.257 269.558L562.629 269.521L550.068 268.767L550.916 238.834L554.301 223.749L562.672 201.818L567.653 194.571L573.581 186.004L575.164 183.779C575.164 183.779 576.213 190.178 580.069 187.355L580.151 187.299C583.919 184.91 584.095 208.626 584.095 208.626Z" fill="#1D2366"/>
<path d="M554.722 218.507C554.722 218.507 553.221 221.65 550.206 221.14C547.192 220.631 547.198 232.454 547.198 232.454C547.198 232.454 545.194 234.34 543.813 232.706C542.431 231.072 538.789 236.597 538.789 236.597L515.966 237.602C515.966 237.602 526.121 242.247 524.13 256.302C524.13 256.302 558.609 254.165 559.74 250.903C560.87 247.641 554.722 218.507 554.722 218.507Z" fill="white"/>
<path opacity="0.03" d="M554.722 218.507C554.722 218.507 553.221 221.65 550.206 221.14C547.192 220.631 547.198 232.454 547.198 232.454C547.198 232.454 545.194 234.34 543.813 232.706C542.431 231.072 538.789 236.597 538.789 236.597L515.966 237.602C515.966 237.602 526.121 242.247 524.13 256.302C524.13 256.302 558.609 254.165 559.74 250.903C560.87 247.641 554.722 218.507 554.722 218.507Z" fill="black"/>
<path d="M488.395 244.988L494.412 250.13L543.938 260.545L537.796 254.272L488.395 244.988Z" fill="white"/>
<path d="M573.656 187.638C572.834 188.895 570.479 195.332 568.513 200.951C566.874 205.634 565.505 209.751 565.505 209.751C565.505 209.751 562.308 230.581 560.675 234.346C559.042 238.112 559.928 252.795 559.928 252.795L553.842 289.056C553.842 289.056 551.085 307.756 546.827 318.926C542.626 329.919 537.947 335.073 537.802 335.237C539.686 332.685 549.955 282.438 549.955 282.438L553.346 219.066C553.346 219.066 553.842 213.045 554.345 207.897C554.847 202.749 565.021 195.721 565.021 195.721L574.831 181.761C575.817 183.081 575.157 185.382 573.656 187.638Z" fill="white"/>
<path d="M548.077 269.081C548.077 269.081 533.632 268.452 526.636 260.042C519.64 251.632 542.808 256.686 542.808 256.686L548.83 258.068L548.077 269.081Z" fill="#FFB0B1"/>
<path opacity="0.1" d="M615.534 365.332C614.76 368.071 614.636 370.953 615.169 373.749C599.412 374.868 582.556 370.606 582.556 370.606C579.416 373.497 571.144 377.759 571.144 377.759L566.635 321.817C563.752 314.274 562.622 274.757 562.622 274.757C562.622 274.757 562.88 272.689 563.25 269.59C563.25 269.514 563.25 269.433 563.281 269.357C564.406 260.702 566.635 244.454 567.728 242.26C569.235 239.243 563.093 231.216 563.093 231.216L565.888 207.362L566.227 204.483C572.118 201.85 576.633 193.44 576.633 193.44L580.1 187.361C583.868 184.942 584.063 208.657 584.063 208.657L580.295 264.656L592.78 261.205C592.78 261.205 617.663 358.179 615.534 365.332Z" fill="black"/>
<path d="M631.706 369.198C614.529 377.734 583.31 369.827 583.31 369.827C580.17 372.718 571.898 376.98 571.898 376.98L567.383 321.038C564.506 313.495 563.376 273.977 563.376 273.977C563.376 273.977 567.006 244.491 568.513 241.481C568.953 240.601 568.739 239.293 568.218 237.885C565.655 231.184 564.713 223.971 565.467 216.835L566.673 206.583L567.006 203.71C572.903 201.07 577.419 192.66 577.419 192.66L580.559 187.154L586.337 177.009L589.075 172.207L589.54 172.628L593.088 175.846C593.088 175.846 594.595 177.103 596.856 178.989C601.774 183.138 610.271 190.441 614.655 194.911C618.511 198.845 619.729 214.151 620.081 225.672C620.313 233.259 620.175 239.205 620.175 239.205C616.288 245.61 626.455 297.033 626.455 297.033C628.823 306.97 631.706 369.198 631.706 369.198Z" fill="white"/>
<path opacity="0.03" d="M598.734 192.535C598.734 192.535 586.946 214.993 588.315 223.529C589.684 232.065 593.578 241.726 591.7 243.982C591.055 244.837 590.221 245.531 589.263 246.01C588.305 246.489 587.25 246.739 586.179 246.742C584.295 246.867 579.271 250.381 579.271 250.758C579.271 251.135 574.63 251.135 570.479 252.895C566.327 254.655 560.198 255.655 560.198 255.655C560.198 255.655 548.265 255.278 547.154 256.409C546.042 257.54 544.899 264.31 547.279 269.709C549.659 275.109 552.303 279.138 554.301 279.873C556.298 280.609 568.971 276.36 579.252 275.354C589.533 274.348 600.693 266.196 600.693 266.196C600.693 266.196 612.984 261.796 615.138 254.398C617.292 246.999 612.507 206.338 612.507 206.338C612.507 206.338 608.889 187.387 598.734 192.535Z" fill="black"/>
<path opacity="0.03" d="M597.227 190.649C597.227 190.649 585.439 213.114 586.82 221.643C588.202 230.173 592.083 239.84 590.199 242.103C589.556 242.959 588.724 243.653 587.767 244.132C586.81 244.611 585.755 244.861 584.685 244.862C582.801 244.988 577.777 248.502 577.777 248.879C577.777 249.256 573.136 249.256 568.984 251.01C564.833 252.763 558.703 253.769 558.703 253.769C558.703 253.769 546.771 253.392 545.665 254.523C544.56 255.655 543.405 262.431 545.791 267.824C548.178 273.217 550.815 277.252 552.812 277.987C554.81 278.723 567.483 274.474 577.764 273.474C588.045 272.475 599.205 264.31 599.205 264.31C599.205 264.31 611.489 259.91 613.618 252.518C615.748 245.126 610.987 204.452 610.987 204.452C610.987 204.452 607.382 185.507 597.227 190.649Z" fill="black"/>
<path d="M598.363 191.403C598.363 191.403 586.575 213.868 587.957 222.398C589.338 230.927 593.22 240.594 591.342 242.851C590.699 243.709 589.866 244.405 588.908 244.885C587.949 245.365 586.893 245.616 585.822 245.617C583.937 245.742 578.913 249.256 578.913 249.627C578.913 249.998 574.278 250.004 570.121 251.764C565.963 253.524 559.84 254.523 559.84 254.523C559.84 254.523 547.907 254.146 546.796 255.278C545.684 256.409 544.541 263.185 546.921 268.578C549.302 273.971 551.946 278.006 553.943 278.742C555.94 279.477 568.613 275.228 578.894 274.222C589.175 273.217 600.335 265.064 600.335 265.064C600.335 265.064 612.626 260.664 614.78 253.266C616.934 245.868 612.18 205.206 612.18 205.206C612.18 205.206 608.512 186.287 598.363 191.403Z" fill="white"/>
<path opacity="0.1" d="M598.106 251.657C598.106 251.657 588.685 249.771 591.964 252.914C595.242 256.057 595.223 258.81 599.236 258.684C603.25 258.559 598.106 251.657 598.106 251.657Z" fill="black"/>
<path opacity="0.1" d="M614.026 319.278C614.026 319.278 609.768 322.163 617.914 328.813C626.06 335.463 614.026 319.278 614.026 319.278Z" fill="black"/>
<path opacity="0.1" d="M605.9 342.993C605.9 343.37 604.392 356.822 610.032 360.184C615.672 363.547 605.9 342.993 605.9 342.993Z" fill="black"/>
<path d="M516.355 237.571C511.808 237.728 501.985 239.117 507.079 248.627C511.582 257.044 519.15 251.418 523.408 247.15C522.369 243.171 519.845 239.742 516.355 237.571Z" fill="#FFB0B1"/>
<path d="M523.464 247.075L523.653 246.88L523.464 247.075Z" fill="#FFB0B1"/>
<path opacity="0.1" d="M596.856 179.373C592.033 182.672 587.988 185.457 587.197 186.035C585.037 187.638 580.917 197.048 578.26 201.85C576.144 205.716 569.267 206.709 566.673 206.954L567.006 204.081C572.903 201.441 577.419 193.031 577.419 193.031L589.075 172.578L593.088 176.23C593.088 176.23 594.595 177.487 596.856 179.373Z" fill="black"/>
<path d="M596.856 178.995C592.033 182.295 587.988 185.08 587.197 185.664C585.037 187.261 580.917 196.671 578.26 201.473C576.144 205.338 569.267 206.331 566.673 206.577L567.006 203.704C572.903 201.064 577.419 192.654 577.419 192.654L589.075 172.201L593.088 175.84C593.088 175.84 594.595 177.085 596.856 178.995Z" fill="#DCE7FF"/>
<path d="M587.574 162.98C587.576 166.753 586.433 170.438 584.295 173.546C581.771 177.221 578.014 179.868 573.706 181.007C569.397 182.147 564.824 181.703 560.815 179.756C556.806 177.809 553.627 174.489 551.855 170.397C550.083 166.305 549.835 161.713 551.157 157.454C552.478 153.195 555.281 149.551 559.058 147.184C562.834 144.816 567.333 143.882 571.738 144.55C576.144 145.219 580.164 147.446 583.069 150.827C585.975 154.208 587.573 158.52 587.574 162.98Z" fill="#FFB0B1"/>
<path opacity="0.1" d="M620.08 225.679C617.53 224.108 615.453 221.875 614.07 219.217C613.021 217.143 612.324 214.748 610.534 213.277C608.92 211.957 606.766 211.637 604.756 211.046C598.15 209.091 592.61 203.057 592.403 196.168C592.303 192.924 593.314 189.687 592.855 186.475C592.595 184.657 591.872 182.937 590.758 181.478C590.204 180.78 589.597 180.127 588.943 179.523C588.063 178.694 587.14 177.889 586.336 177.009C585.83 176.464 585.387 175.863 585.017 175.218C584.719 174.689 584.477 174.131 584.295 173.552C583.039 169.705 584.182 165.142 582.8 161.251L582.725 161.037C582.204 159.654 581.142 158.272 579.667 158.165C578.191 158.058 576.928 159.284 575.522 159.83C572.576 160.974 569.398 159.026 566.943 157.04C564.487 155.053 561.717 152.784 558.596 153.224C556.53 153.52 554.897 154.928 552.994 155.657C552.564 155.823 552.121 155.952 551.669 156.04C553.279 152.021 556.238 148.688 560.037 146.614C563.836 144.541 568.238 143.856 572.486 144.678C576.734 145.5 580.564 147.777 583.318 151.118C586.071 154.459 587.576 158.655 587.573 162.986C587.576 164.294 587.439 165.598 587.165 166.877C587.197 166.965 587.228 167.046 587.266 167.134C587.994 169.02 588.817 170.956 589.539 172.628L593.088 175.846C593.088 175.846 594.595 177.103 596.856 178.989C601.773 183.138 610.27 190.441 614.654 194.91C618.51 198.858 619.716 214.157 620.08 225.679Z" fill="black"/>
<path d="M552.774 144.173C553.672 142.344 554.118 140.295 555.192 138.56C556.769 136.046 559.519 134.437 562.346 133.462C569.725 130.917 585.319 127.221 589.979 133.462C590.896 134.72 591.656 136.115 592.924 136.982C593.892 137.642 595.06 137.925 596.121 138.422C599.092 139.817 600.988 142.859 601.999 145.964C603.011 149.07 603.312 152.401 604.053 155.6C605.001 159.705 606.666 163.596 608.324 167.461C610.277 172.025 612.349 176.758 616.118 179.982C621.261 184.382 622.398 190.611 627.171 195.439C632.823 201.171 632.641 210.631 629.727 218.142C629.344 219.129 628.911 220.16 629.061 221.21C629.212 222.259 629.991 223.215 630.726 224.051L633.816 227.539C626.505 229.305 618.234 225.484 614.83 218.777C613.781 216.703 613.084 214.314 611.288 212.837C609.68 211.517 607.52 211.203 605.516 210.612C598.91 208.651 593.37 202.61 593.163 195.721C593.063 192.484 594.074 189.247 593.615 186.042C593.36 184.212 592.635 182.479 591.511 181.013C589.784 178.757 587.178 177.242 585.771 174.727C583.391 170.522 585.2 165.06 583.485 160.547C582.958 159.164 581.902 157.781 580.427 157.675C578.951 157.568 577.688 158.793 576.275 159.34C573.336 160.484 570.158 158.542 567.703 156.549C565.247 154.557 562.477 152.294 559.35 152.74C557.284 153.03 555.657 154.437 553.754 155.173C552.347 155.713 549.496 156.197 548.265 155.009C545.665 152.615 551.688 146.411 552.774 144.173Z" fill="#591D4B"/>
<path opacity="0.1" d="M616.576 216.703C615.521 214.629 614.83 212.24 613.034 210.769C611.426 209.449 609.266 209.129 607.256 208.538C600.656 206.583 595.116 200.542 594.903 193.653C594.802 190.416 595.813 187.173 595.361 183.967C595.098 182.149 594.374 180.429 593.257 178.97C591.524 176.714 588.918 175.199 587.517 172.685C585.137 168.486 586.946 163.024 585.225 158.504C584.704 157.128 583.642 155.745 582.173 155.632C580.703 155.519 579.428 156.757 578.021 157.304C575.082 158.448 571.898 156.499 569.449 154.513C566.999 152.527 564.217 150.258 561.096 150.698C559.03 150.993 557.397 152.401 555.5 153.13C554.093 153.671 551.236 154.161 550.005 152.973C547.417 150.459 553.44 144.267 554.52 142.042C555.419 140.207 555.864 138.164 556.945 136.429C557.001 136.335 557.064 136.241 557.127 136.146C556.319 136.816 555.621 137.61 555.061 138.497C553.987 140.232 553.541 142.269 552.643 144.11C551.556 146.335 545.533 152.546 548.127 155.041C549.383 156.235 552.209 155.745 553.616 155.204C555.5 154.469 557.146 153.061 559.212 152.772C562.352 152.326 565.115 154.595 567.565 156.581C570.014 158.567 573.217 160.516 576.144 159.372C577.55 158.825 578.781 157.593 580.289 157.706C581.796 157.819 582.801 159.196 583.347 160.579C585.062 165.092 583.253 170.554 585.633 174.759C587.04 177.229 589.646 178.775 591.373 181.044C592.497 182.51 593.222 184.243 593.477 186.073C593.936 189.279 592.925 192.516 593.025 195.753C593.232 202.667 598.772 208.682 605.378 210.643C607.369 211.234 609.542 211.549 611.15 212.869C612.952 214.346 613.662 216.734 614.692 218.808C618.096 225.515 626.367 229.337 633.677 227.571L632.22 225.924C625.884 226.018 619.471 222.41 616.576 216.703Z" fill="black"/>
<path opacity="0.1" d="M573.28 188.015C572.457 189.272 570.102 195.709 568.136 201.328C566.296 200.612 564.625 196.042 564.625 196.042L574.435 182.075C575.44 183.458 574.781 185.752 573.28 188.015Z" fill="black"/>
<path d="M573.657 187.638C572.834 188.895 570.479 195.332 568.513 200.951C566.673 200.241 565.002 195.665 565.002 195.665L574.812 181.704C575.817 183.081 575.158 185.382 573.657 187.638Z" fill="#DCE7FF"/>
<path d="M516.619 251.852L511.18 234.686C511.116 234.485 511.092 234.273 511.109 234.063C511.127 233.853 511.186 233.648 511.282 233.46C511.379 233.273 511.512 233.106 511.674 232.97C511.835 232.834 512.021 232.732 512.223 232.668C512.627 232.542 513.066 232.58 513.442 232.776C513.818 232.971 514.102 233.308 514.232 233.712L519.671 250.859L519.131 254.448L516.619 251.852Z" fill="#BE8B87"/>
<path opacity="0.1" d="M511.695 233.177C512.101 233.049 512.541 233.087 512.919 233.282C513.296 233.478 513.581 233.815 513.711 234.221L519.15 251.368L518.742 254.058L519.137 254.473L519.677 250.884L514.207 233.737C514.078 233.333 513.793 232.996 513.417 232.801C513.041 232.606 512.602 232.567 512.198 232.693C511.857 232.804 511.563 233.025 511.362 233.322C511.469 233.265 511.58 233.216 511.695 233.177Z" fill="white"/>
<path d="M516.619 251.852L519.671 250.884L519.225 253.826L519.131 254.473L518.239 253.543L516.619 251.852Z" fill="#EFC8C4"/>
<path d="M518.239 253.543C518.292 253.476 518.358 253.42 518.433 253.379C518.478 253.351 518.529 253.337 518.581 253.337C518.633 253.337 518.685 253.351 518.729 253.379C518.771 253.431 518.807 253.488 518.835 253.549C518.877 253.618 518.934 253.678 519.001 253.722C519.068 253.767 519.145 253.796 519.225 253.807L519.131 254.435L518.239 253.543Z" fill="#727A9C"/>
<path d="M511.148 240.783C511.148 240.783 522.057 240.72 519.489 245.365C516.92 250.01 512.907 250.57 512.907 250.57L511.148 240.783Z" fill="#FFB0B1"/>
<path d="M443.302 32.3206H442.831C424.091 32.3206 407.517 42.2456 397.984 56.8911C388.45 42.2456 371.876 32.3206 353.136 32.3206H352.665C338.601 32.4548 325.158 38.1386 315.257 48.1369C305.357 58.1353 299.799 71.6402 299.791 85.7169C299.791 103.197 307.44 128 322.356 148.41C350.775 187.299 397.984 221.323 397.984 221.323C397.984 221.323 445.193 187.305 473.605 148.41C488.527 128 496.17 103.197 496.17 85.7169C496.163 71.6413 490.605 58.1373 480.706 48.1391C470.807 38.141 457.366 32.4564 443.302 32.3206ZM436.564 151.402C434.429 151.393 432.347 150.74 430.591 149.526C428.835 148.312 427.486 146.595 426.722 144.6H415.518C414.781 144.596 414.063 144.361 413.465 143.928C412.867 143.495 412.419 142.887 412.184 142.187L408.742 131.809L397.852 169.894C397.64 170.627 397.196 171.271 396.587 171.73C395.977 172.189 395.236 172.438 394.473 172.439H394.253C393.458 172.401 392.699 172.09 392.105 171.56C391.51 171.029 391.116 170.31 390.987 169.523L379.765 101.965L371.562 141.942C371.374 142.701 370.938 143.376 370.322 143.858C369.706 144.339 368.947 144.601 368.165 144.6H352.382C351.909 144.621 351.437 144.545 350.994 144.377C350.551 144.21 350.146 143.954 349.805 143.627C349.463 143.299 349.191 142.905 349.005 142.469C348.819 142.033 348.723 141.564 348.723 141.09C348.723 140.616 348.819 140.147 349.005 139.711C349.191 139.275 349.463 138.881 349.805 138.553C350.146 138.226 350.551 137.97 350.994 137.803C351.437 137.635 351.909 137.559 352.382 137.579H365.401L377.02 83.8312C377.211 83.0366 377.671 82.3329 378.323 81.8405C378.975 81.3481 379.777 81.0975 380.593 81.1317C381.409 81.1658 382.188 81.4826 382.796 82.0277C383.404 82.5728 383.805 83.3125 383.928 84.1203L395.39 153.036L405.15 118.961C405.353 118.244 405.782 117.611 406.374 117.158C406.966 116.705 407.689 116.456 408.434 116.447H408.503C409.241 116.447 409.961 116.681 410.558 117.114C411.156 117.548 411.602 118.159 411.832 118.861L418.056 137.598H426.584C427.191 135.755 428.294 134.114 429.773 132.859C431.252 131.603 433.049 130.78 434.966 130.482C436.882 130.184 438.844 130.422 440.634 131.169C442.424 131.916 443.973 133.144 445.11 134.716C446.247 136.289 446.928 138.145 447.077 140.08C447.226 142.016 446.839 143.955 445.956 145.684C445.074 147.412 443.732 148.863 442.078 149.877C440.424 150.89 438.522 151.427 436.583 151.427L436.564 151.402Z" fill="#00B0FF"/>
</g>
<defs>
<linearGradient id="paint0_linear" x1="223.787" y1="487.053" x2="223.787" y2="100.274" gradientUnits="userSpaceOnUse">
<stop stop-color="#808080" stop-opacity="0.25"/>
<stop offset="0.54" stop-color="#808080" stop-opacity="0.12"/>
<stop offset="1" stop-color="#808080" stop-opacity="0.1"/>
</linearGradient>
<linearGradient id="paint1_linear" x1="140186" y1="291830" x2="140186" y2="93292.9" gradientUnits="userSpaceOnUse">
<stop stop-color="#808080" stop-opacity="0.25"/>
<stop offset="0.54" stop-color="#808080" stop-opacity="0.12"/>
<stop offset="1" stop-color="#808080" stop-opacity="0.1"/>
</linearGradient>
<clipPath id="clip0">
<rect width="694" height="492" fill="white"/>
</clipPath>
</defs>
</svg>
