<svg width="123" height="41" viewBox="0 0 123 41" fill="none" xmlns="http://www.w3.org/2000/svg">
<path d="M29.452 10.4365C23.5816 7.18462 14.9708 0.465881 14.9708 0.465881C14.9708 0.465881 6.3428 7.18462 0.485205 10.4365C0.485205 10.4365 -0.0971296 14.6065 4.10338 13.5719L4.12479 26.5838C5.2101 27.1798 6.41877 27.4874 7.64448 27.4797C12.9283 27.4797 9.92671 17.2582 14.9536 17.2582C19.9806 17.2582 16.9019 27.4886 23.0335 27.4886C25.1744 27.4886 25.8039 26.6913 25.8039 26.6913V13.5674C30.0429 14.6334 29.452 10.432 29.452 10.432" fill="#F6F6FB"/>
<path d="M45.3672 7.84593C45.3672 8.81502 45.2198 9.6723 44.925 10.4177C44.6424 11.1632 44.2432 11.7906 43.7272 12.3C43.2113 12.797 42.6032 13.1759 41.9029 13.4368C41.2027 13.6977 40.4411 13.8282 39.618 13.8282C38.7949 13.8282 38.0333 13.6977 37.3331 13.4368C36.6328 13.1759 36.0247 12.797 35.5088 12.3C35.0051 11.7906 34.6059 11.1632 34.311 10.4177C34.0285 9.6723 33.8872 8.81502 33.8872 7.84593C33.8872 6.87684 34.0346 6.02576 34.3295 5.29275C34.6243 4.5473 35.0297 3.92609 35.5456 3.42911C36.0616 2.91972 36.6636 2.53457 37.3515 2.27366C38.0517 2.01275 38.8072 1.8823 39.618 1.8823C40.4288 1.8823 41.1843 2.01275 41.8845 2.27366C42.5847 2.53457 43.1928 2.91972 43.7088 3.42911C44.2247 3.92609 44.6301 4.5473 44.925 5.29275C45.2198 6.02576 45.3672 6.87684 45.3672 7.84593ZM42.382 7.84593C42.382 6.6532 42.1302 5.75866 41.6265 5.1623C41.1351 4.55351 40.4656 4.24911 39.618 4.24911C38.7827 4.24911 38.1131 4.55351 37.6095 5.1623C37.1058 5.75866 36.854 6.6532 36.854 7.84593C36.854 9.0511 37.0996 9.95804 37.591 10.5668C38.0947 11.1632 38.7704 11.4614 39.618 11.4614C40.4656 11.4614 41.1351 11.1632 41.6265 10.5668C42.1302 9.95804 42.382 9.0511 42.382 7.84593ZM51.8572 4.26775C52.4588 4.26775 53.0241 4.36714 53.5525 4.56593C54.0804 4.76474 54.5351 5.06292 54.9161 5.46048C55.309 5.85804 55.6163 6.35502 55.8374 6.95139C56.0585 7.53531 56.1691 8.21866 56.1691 9.00139C56.1691 9.78411 56.0521 10.4737 55.819 11.07C55.5854 11.6664 55.2537 12.1696 54.8239 12.5796C54.4061 12.9771 53.8961 13.2816 53.2945 13.4927C52.7048 13.6916 52.0415 13.7909 51.3044 13.7909C50.5304 13.7909 49.8671 13.6977 49.3143 13.5114C48.7615 13.325 48.3008 13.1014 47.9322 12.8405C47.4038 12.4802 47.1399 12.008 47.1399 11.4241V1.37911C47.2749 1.34184 47.4531 1.30457 47.6743 1.2673C47.8954 1.23002 48.1409 1.21139 48.4113 1.21139C48.9642 1.21139 49.3571 1.30457 49.5907 1.49093C49.8362 1.6773 49.9592 2.03139 49.9592 2.55321V4.67775C50.2047 4.56593 50.4871 4.47275 50.8069 4.3982C51.1261 4.31123 51.4762 4.26775 51.8572 4.26775ZM51.3412 6.50411C51.0584 6.50411 50.8004 6.54758 50.5673 6.63457C50.3462 6.70911 50.137 6.80849 49.9408 6.93275V11.2005C50.0882 11.2999 50.2725 11.3806 50.4936 11.4427C50.7147 11.5049 50.9727 11.5359 51.2675 11.5359C51.8816 11.5359 52.3667 11.3247 52.7233 10.9023C53.0918 10.4799 53.2761 9.84622 53.2761 9.00139C53.2761 8.13167 53.0978 7.49804 52.7417 7.10048C52.3976 6.70292 51.9309 6.50411 51.3412 6.50411ZM60.8132 13.8096C60.8132 14.4059 60.7395 14.9091 60.592 15.3191C60.4571 15.7416 60.2728 16.0894 60.0392 16.3627C59.8057 16.6361 59.5357 16.8349 59.2284 16.9591C58.9336 17.0834 58.6203 17.1455 58.2887 17.1455C57.7971 17.1455 57.4166 16.9902 57.1462 16.6796C56.8758 16.3814 56.7284 16.0087 56.7039 15.5614C57.1462 15.3502 57.4719 15.0893 57.6806 14.7787C57.8893 14.4805 57.9938 14.058 57.9938 13.5114V4.65911C58.1288 4.62184 58.3071 4.58457 58.5282 4.5473C58.7493 4.51002 58.9949 4.49139 59.2653 4.49139C59.8181 4.49139 60.2111 4.58457 60.4446 4.77093C60.6902 4.9573 60.8132 5.31139 60.8132 5.8332V13.8096ZM57.7543 1.97548C57.7543 1.55305 57.9017 1.19275 58.1965 0.894569C58.4914 0.596387 58.8723 0.447296 59.339 0.447296C59.8057 0.447296 60.1806 0.596387 60.463 0.894569C60.7579 1.19275 60.9053 1.55305 60.9053 1.97548C60.9053 2.41032 60.7579 2.77684 60.463 3.07502C60.1806 3.3732 59.8057 3.5223 59.339 3.5223C58.8723 3.5223 58.4914 3.3732 58.1965 3.07502C57.9017 2.77684 57.7543 2.41032 57.7543 1.97548ZM65.3701 10.2127C65.542 10.7346 65.8433 11.1073 66.2731 11.3309C66.7029 11.5421 67.2004 11.6477 67.7656 11.6477C68.2816 11.6477 68.7667 11.5794 69.2214 11.4427C69.6761 11.2937 70.0446 11.1321 70.327 10.9582C70.5113 11.0825 70.6647 11.2439 70.7877 11.4427C70.9107 11.6416 70.9719 11.8589 70.9719 12.095C70.9719 12.3808 70.8858 12.6293 70.714 12.8405C70.5421 13.0517 70.3026 13.2318 69.9953 13.3809C69.7005 13.5176 69.3444 13.617 68.9265 13.6791C68.5212 13.7537 68.0729 13.7909 67.5814 13.7909C66.8567 13.7909 66.1869 13.6916 65.5728 13.4927C64.9588 13.2816 64.4304 12.9771 63.9881 12.5796C63.5459 12.1696 63.1958 11.6602 62.9378 11.0514C62.6922 10.4426 62.5692 9.7282 62.5692 8.9082C62.5692 8.11304 62.6922 7.42349 62.9378 6.83957C63.1958 6.25564 63.5334 5.7711 63.9513 5.38593C64.3811 5.00077 64.8666 4.72122 65.407 4.5473C65.9598 4.36093 66.5251 4.26775 67.1023 4.26775C67.7288 4.26775 68.3 4.36714 68.816 4.56593C69.3444 4.7523 69.7926 5.0194 70.1612 5.3673C70.5421 5.71519 70.837 6.13139 71.0456 6.61593C71.2543 7.10048 71.3589 7.62849 71.3589 8.20002C71.3589 8.59758 71.2543 8.89576 71.0456 9.09457C70.837 9.29337 70.5421 9.42383 70.1612 9.48593L65.3701 10.2127ZM67.1207 6.37366C66.5923 6.37366 66.1501 6.54139 65.794 6.87684C65.4498 7.19986 65.2471 7.67201 65.1859 8.2932L68.7054 7.71548C68.681 7.39246 68.5396 7.08804 68.2816 6.8023C68.0236 6.51655 67.6367 6.37366 67.1207 6.37366ZM77.8263 6.52275C77.1629 6.52275 76.5977 6.74019 76.131 7.17502C75.6639 7.59746 75.4308 8.22486 75.4308 9.05729C75.4308 9.88974 75.6519 10.5109 76.0942 10.9209C76.5484 11.3309 77.1196 11.5359 77.8079 11.5359C78.2008 11.5359 78.545 11.4862 78.8398 11.3868C79.1466 11.275 79.4046 11.1632 79.6137 11.0514C79.8224 11.2129 79.9823 11.3868 80.0928 11.5732C80.2154 11.7471 80.2771 11.9646 80.2771 12.2255C80.2771 12.6976 80.0311 13.0766 79.54 13.3623C79.0485 13.648 78.3667 13.7909 77.4946 13.7909C76.7575 13.7909 76.0817 13.6916 75.4677 13.4927C74.8656 13.2939 74.3496 12.9958 73.9198 12.5982C73.4895 12.2006 73.1578 11.7099 72.9247 11.1259C72.6912 10.5296 72.5746 9.84002 72.5746 9.05729C72.5746 8.24974 72.7036 7.54775 72.9616 6.95139C73.2196 6.35502 73.5697 5.85804 74.0119 5.46048C74.4542 5.06292 74.9701 4.76474 75.5598 4.56593C76.1495 4.36714 76.7695 4.26775 77.4209 4.26775C78.2686 4.26775 78.9319 4.42305 79.411 4.73366C79.9021 5.04428 80.1481 5.43564 80.1481 5.90775C80.1481 6.13139 80.0928 6.33639 79.9823 6.52275C79.8837 6.70911 79.7611 6.87064 79.6137 7.0073C79.3926 6.88304 79.1282 6.77122 78.8214 6.67184C78.5265 6.57246 78.1949 6.52275 77.8263 6.52275ZM84.7788 10.5482C84.7788 10.8961 84.8894 11.1508 85.1105 11.3123C85.3316 11.4614 85.6389 11.5359 86.0318 11.5359C86.2161 11.5359 86.4128 11.5173 86.6215 11.48C86.8302 11.4303 87.0085 11.3744 87.1559 11.3123C87.2664 11.4366 87.3586 11.5794 87.4323 11.7409C87.506 11.9025 87.5429 12.0888 87.5429 12.3C87.5429 12.7349 87.371 13.0952 87.0269 13.3809C86.6952 13.6543 86.1115 13.7909 85.2763 13.7909C84.2444 13.7909 83.4396 13.5549 82.8624 13.0827C82.2852 12.5982 81.9963 11.8155 81.9963 10.7346V2.36684C82.1313 2.32957 82.3096 2.2923 82.5307 2.25502C82.7518 2.20533 82.9914 2.18048 83.2494 2.18048C83.7897 2.18048 84.1767 2.27987 84.4103 2.47866C84.6558 2.66502 84.7788 3.0129 84.7788 3.5223V4.73366H87.3217C87.383 4.85792 87.4447 5.0194 87.506 5.2182C87.5673 5.40457 87.5981 5.60337 87.5981 5.81457C87.5981 6.21213 87.506 6.49792 87.3217 6.67184C87.1499 6.84576 86.9223 6.93275 86.6399 6.93275H84.7788V10.5482ZM92.0685 13.4927C91.9455 13.53 91.7737 13.5611 91.5526 13.5859C91.3314 13.6232 91.0859 13.6418 90.8155 13.6418C90.2627 13.6418 89.8633 13.5549 89.6177 13.3809C89.3842 13.1946 89.2676 12.8405 89.2676 12.3187V4.65911C89.3906 4.62184 89.5624 4.58457 89.7836 4.5473C90.0047 4.51002 90.2502 4.49139 90.5207 4.49139C91.0735 4.49139 91.4664 4.58457 91.7 4.77093C91.9455 4.9573 92.0685 5.31139 92.0685 5.8332V13.4927ZM89.1018 1.97548C89.1018 1.55305 89.2432 1.19275 89.5256 0.894569C89.8204 0.596387 90.2014 0.447296 90.6681 0.447296C91.1347 0.447296 91.5097 0.596387 91.7921 0.894569C92.0869 1.19275 92.2344 1.55305 92.2344 1.97548C92.2344 2.41032 92.0869 2.77684 91.7921 3.07502C91.5097 3.3732 91.1347 3.5223 90.6681 3.5223C90.2014 3.5223 89.8204 3.3732 89.5256 3.07502C89.2432 2.77684 89.1018 2.41032 89.1018 1.97548ZM96.9595 5.19957H100.092C100.153 5.32383 100.215 5.47911 100.276 5.66548C100.35 5.85184 100.387 6.05684 100.387 6.28048C100.387 6.67804 100.295 6.96383 100.111 7.13775C99.9382 7.31167 99.7111 7.39866 99.4287 7.39866H97.0885V13.4927C96.9655 13.53 96.7937 13.5611 96.5725 13.5859C96.3514 13.6232 96.1054 13.6418 95.8355 13.6418C95.2826 13.6418 94.8832 13.5549 94.6377 13.3809C94.3917 13.1946 94.2692 12.8405 94.2692 12.3187V4.3982C94.2692 3.78942 94.3673 3.26139 94.564 2.81411C94.7727 2.36684 95.0551 2.00654 95.4116 1.73321C95.7677 1.44745 96.1856 1.23623 96.6647 1.09957C97.1438 0.962904 97.6597 0.894569 98.2125 0.894569C99.0846 0.894569 99.7295 1.0126 100.147 1.24866C100.577 1.4723 100.792 1.84502 100.792 2.36684C100.792 2.6029 100.743 2.81411 100.645 3.00048C100.559 3.17442 100.454 3.31109 100.332 3.41048C100.098 3.33593 99.8461 3.27381 99.5761 3.22411C99.3181 3.17442 99.0233 3.14957 98.6916 3.14957C98.1264 3.14957 97.6966 3.25517 97.4017 3.46639C97.1069 3.66518 96.9595 4.00684 96.9595 4.49139V5.19957Z" fill="#F6F6FB"/>
<path d="M41.0554 26.3331H36.1169C36.0309 26.5816 35.9388 26.855 35.8405 27.1531C35.7423 27.4389 35.644 27.7247 35.5457 28.0104C35.4597 28.2838 35.3737 28.5447 35.2877 28.7931C35.2017 29.0292 35.1342 29.228 35.085 29.3895C34.9131 29.4641 34.7104 29.5013 34.4769 29.5013C34.2804 29.5013 34.1023 29.4516 33.9426 29.3522C33.7951 29.2404 33.7214 29.0665 33.7214 28.8304C33.7214 28.7186 33.7399 28.6068 33.7767 28.495C33.8136 28.3707 33.8566 28.2403 33.9057 28.1036C34.09 27.5818 34.3234 26.9109 34.6059 26.0909C34.9008 25.2709 35.214 24.4012 35.5457 23.4818C35.8897 22.55 36.2336 21.6181 36.5776 20.6863C36.9339 19.7421 37.2594 18.8972 37.5542 18.1518C37.6525 18.1021 37.7999 18.0524 37.9965 18.0027C38.1931 17.953 38.3958 17.9281 38.6046 17.9281C38.8503 17.9281 39.0837 17.9654 39.3048 18.04C39.5382 18.1145 39.6856 18.2388 39.7471 18.4127C40.0419 19.1333 40.3551 19.9595 40.6868 20.8913C41.0308 21.8107 41.3748 22.755 41.7187 23.7241C42.0627 24.6931 42.3882 25.6498 42.6954 26.5941C43.0148 27.5259 43.2973 28.3707 43.543 29.1286C43.4447 29.2404 43.328 29.3274 43.1929 29.3895C43.0578 29.4641 42.9042 29.5013 42.7322 29.5013C42.4988 29.5013 42.3207 29.4516 42.1978 29.3522C42.075 29.2404 41.9706 29.0603 41.8846 28.8118L41.0554 26.3331ZM38.5862 19.1954C38.451 19.5681 38.2975 19.9968 38.1255 20.4813C37.9535 20.9534 37.7754 21.4504 37.5911 21.9722C37.4068 22.4941 37.2226 23.0221 37.0383 23.5563C36.854 24.0906 36.6821 24.6 36.5223 25.0845H40.6684C40.4841 24.5254 40.2937 23.9663 40.0972 23.4072C39.9006 22.8357 39.7102 22.2891 39.5259 21.7672C39.354 21.2454 39.1881 20.7671 39.0284 20.3322C38.881 19.885 38.7581 19.506 38.6599 19.1954H38.5862ZM45.3657 20.7795C45.4271 20.7547 45.5193 20.7298 45.6421 20.705C45.7772 20.6677 45.9185 20.6491 46.0659 20.6491C46.5821 20.6491 46.8401 20.8789 46.8401 21.3386V26.1281C46.8401 26.9357 47.0487 27.5134 47.4666 27.8613C47.8839 28.1968 48.4616 28.3645 49.1987 28.3645C49.6898 28.3645 50.1076 28.3148 50.4517 28.2154C50.7954 28.1036 51.0658 27.9918 51.2625 27.88V20.7795C51.3238 20.7547 51.4159 20.7298 51.5389 20.705C51.6739 20.6677 51.8089 20.6491 51.9443 20.6491C52.4723 20.6491 52.7367 20.8789 52.7367 21.3386V27.8241C52.7367 28.085 52.6998 28.2962 52.6261 28.4577C52.5644 28.6068 52.405 28.7559 52.147 28.905C51.8642 29.0665 51.4712 29.2218 50.9677 29.3709C50.4762 29.52 49.8805 29.5945 49.1803 29.5945C47.9517 29.5945 47.0059 29.3212 46.3425 28.7745C45.6912 28.2279 45.3657 27.3706 45.3657 26.2027V20.7795ZM58.4085 29.5945C57.5484 29.5945 56.8482 29.4019 56.3078 29.0168C55.7794 28.6316 55.5155 27.9918 55.5155 27.0972V18.245C55.5767 18.2201 55.6689 18.1953 55.7919 18.1704C55.9269 18.1331 56.0683 18.1145 56.2157 18.1145C56.7317 18.1145 56.9896 18.3381 56.9896 18.7854V20.9286H60.0117C60.0485 20.9907 60.0854 21.0777 60.1222 21.1895C60.1591 21.2889 60.1775 21.4007 60.1775 21.525C60.1775 21.9474 59.9932 22.1586 59.6247 22.1586H56.9896V27.0041C56.9896 27.501 57.1246 27.8551 57.395 28.0663C57.6774 28.2651 58.0704 28.3645 58.5744 28.3645C58.783 28.3645 59.0166 28.3272 59.2746 28.2527C59.5326 28.1781 59.7472 28.0912 59.9195 27.9918C59.9932 28.0663 60.0605 28.1595 60.1222 28.2713C60.1835 28.3831 60.2144 28.5136 60.2144 28.6627C60.2144 28.936 60.0545 29.1597 59.7353 29.3336C59.4155 29.5075 58.9733 29.5945 58.4085 29.5945ZM69.9885 25.0472C69.9885 25.743 69.8899 26.3704 69.6936 26.9295C69.4969 27.4886 69.2145 27.9669 68.846 28.3645C68.4894 28.7621 68.0536 29.0665 67.5377 29.2777C67.0217 29.4889 66.444 29.5945 65.8056 29.5945C65.1666 29.5945 64.5894 29.4889 64.0734 29.2777C63.5575 29.0665 63.1152 28.7621 62.7467 28.3645C62.3781 27.9669 62.0953 27.4886 61.899 26.9295C61.7023 26.3704 61.6042 25.743 61.6042 25.0472C61.6042 24.3515 61.7023 23.7241 61.899 23.165C62.1077 22.6059 62.3966 22.1275 62.7651 21.73C63.1336 21.3324 63.5759 21.028 64.0919 20.8168C64.6078 20.6056 65.179 20.5 65.8056 20.5C66.4321 20.5 67.0033 20.6056 67.5193 20.8168C68.0352 21.028 68.471 21.3324 68.8276 21.73C69.1961 22.1275 69.4785 22.6059 69.6752 23.165C69.8839 23.7241 69.9885 24.3515 69.9885 25.0472ZM65.8056 21.73C64.9699 21.73 64.313 22.0219 63.8339 22.6059C63.3548 23.1898 63.1152 24.0036 63.1152 25.0472C63.1152 26.1033 63.3483 26.9233 63.8154 27.5072C64.2945 28.0788 64.9579 28.3645 65.8056 28.3645C66.6532 28.3645 67.3101 28.0725 67.7772 27.4886C68.2439 26.9047 68.4775 26.0909 68.4775 25.0472C68.4775 24.0036 68.2379 23.1898 67.7588 22.6059C67.2917 22.0219 66.6408 21.73 65.8056 21.73ZM78.165 23.7427C78.165 23.0469 77.9683 22.5375 77.5753 22.2145C77.1943 21.8915 76.6784 21.73 76.0275 21.73C75.5359 21.73 75.1001 21.7921 74.7191 21.9163C74.3382 22.0406 74.0129 22.1834 73.7425 22.345V29.315C73.6812 29.3398 73.5891 29.3647 73.4661 29.3895C73.3431 29.4268 73.2081 29.4454 73.0607 29.4454C72.5323 29.4454 72.2684 29.2218 72.2684 28.7745V22.4195C72.2684 22.1586 72.3176 21.9474 72.4158 21.7859C72.5263 21.6119 72.7106 21.4442 72.9686 21.2827C73.2878 21.0839 73.7116 20.9038 74.24 20.7422C74.7684 20.5807 75.3641 20.5 76.0275 20.5C77.1455 20.5 78.0236 20.7547 78.6625 21.2641C79.3134 21.7734 79.6391 22.5748 79.6391 23.6681V29.315C79.5779 29.3398 79.4793 29.3647 79.3443 29.3895C79.2213 29.4268 79.0923 29.4454 78.9573 29.4454C78.429 29.4454 78.165 29.2218 78.165 28.7745V23.7427ZM90.3047 25.0472C90.3047 25.743 90.2065 26.3704 90.0098 26.9295C89.8136 27.4886 89.5307 27.9669 89.1622 28.3645C88.8061 28.7621 88.3698 29.0665 87.8539 29.2777C87.3379 29.4889 86.7607 29.5945 86.1218 29.5945C85.4833 29.5945 84.9056 29.4889 84.3896 29.2777C83.8737 29.0665 83.4314 28.7621 83.0629 28.3645C82.6943 27.9669 82.4119 27.4886 82.2152 26.9295C82.019 26.3704 81.9204 25.743 81.9204 25.0472C81.9204 24.3515 82.019 23.7241 82.2152 23.165C82.4244 22.6059 82.7128 22.1275 83.0813 21.73C83.4498 21.3324 83.8921 21.028 84.408 20.8168C84.924 20.6056 85.4952 20.5 86.1218 20.5C86.7483 20.5 87.3195 20.6056 87.8355 20.8168C88.3514 21.028 88.7877 21.3324 89.1438 21.73C89.5123 22.1275 89.7952 22.6059 89.9914 23.165C90.2006 23.7241 90.3047 24.3515 90.3047 25.0472ZM86.1218 21.73C85.2866 21.73 84.6292 22.0219 84.1501 22.6059C83.671 23.1898 83.4314 24.0036 83.4314 25.0472C83.4314 26.1033 83.665 26.9233 84.1316 27.5072C84.6107 28.0788 85.2741 28.3645 86.1218 28.3645C86.9694 28.3645 87.6268 28.0725 88.0934 27.4886C88.5606 26.9047 88.7937 26.0909 88.7937 25.0472C88.7937 24.0036 88.5541 23.1898 88.075 22.6059C87.6083 22.0219 86.9574 21.73 86.1218 21.73ZM103.383 23.5004C103.383 22.8916 103.211 22.4443 102.867 22.1586C102.523 21.8729 102.062 21.73 101.485 21.73C100.686 21.73 99.9742 22.0157 99.3477 22.5872C99.4214 22.8357 99.4583 23.1029 99.4583 23.3886V29.315C99.3965 29.3398 99.2984 29.3647 99.1634 29.3895C99.0404 29.4268 98.9115 29.4454 98.7765 29.4454C98.2481 29.4454 97.9841 29.2218 97.9841 28.7745V23.5004C97.9841 22.8916 97.8118 22.4443 97.4682 22.1586C97.124 21.8729 96.6574 21.73 96.0677 21.73C95.6743 21.73 95.2998 21.7921 94.9437 21.9163C94.5995 22.0406 94.3047 22.1834 94.0592 22.345V29.315C93.9974 29.3398 93.9053 29.3647 93.7828 29.3895C93.6598 29.4268 93.5248 29.4454 93.3774 29.4454C92.849 29.4454 92.585 29.2218 92.585 28.7745V22.4195C92.585 22.171 92.6338 21.966 92.7324 21.8045C92.843 21.6306 93.0273 21.4566 93.2852 21.2827C93.6169 21.0715 94.0343 20.8913 94.5383 20.7422C95.0542 20.5807 95.5702 20.5 96.0861 20.5C96.6878 20.5 97.2222 20.5931 97.6893 20.7795C98.1559 20.9534 98.512 21.1957 98.758 21.5063C99.0773 21.2206 99.4767 20.9845 99.9558 20.7981C100.435 20.5993 100.981 20.5 101.596 20.5C102.591 20.5 103.383 20.7422 103.973 21.2268C104.563 21.6989 104.857 22.4319 104.857 23.4259V29.315C104.796 29.3398 104.698 29.3647 104.563 29.3895C104.44 29.4268 104.311 29.4454 104.176 29.4454C103.647 29.4454 103.383 29.2218 103.383 28.7745V23.5004ZM109.195 29.315C109.133 29.3398 109.041 29.3647 108.919 29.3895C108.796 29.4268 108.661 29.4454 108.513 29.4454C107.985 29.4454 107.721 29.2218 107.721 28.7745V20.7795C107.782 20.7547 107.874 20.7298 107.997 20.705C108.132 20.6677 108.274 20.6491 108.421 20.6491C108.937 20.6491 109.195 20.8789 109.195 21.3386V29.315ZM107.5 18.0213C107.5 17.7604 107.585 17.543 107.758 17.3691C107.942 17.1827 108.175 17.0895 108.458 17.0895C108.74 17.0895 108.968 17.1827 109.14 17.3691C109.312 17.543 109.398 17.7604 109.398 18.0213C109.398 18.2822 109.312 18.5059 109.14 18.6922C108.968 18.8662 108.74 18.9531 108.458 18.9531C108.175 18.9531 107.942 18.8662 107.758 18.6922C107.585 18.5059 107.5 18.2822 107.5 18.0213ZM113.124 25.9231C113.455 27.5507 114.512 28.3645 116.293 28.3645C116.809 28.3645 117.276 28.2775 117.694 28.1036C118.111 27.9297 118.443 27.7433 118.689 27.5445C118.983 27.7184 119.131 27.9545 119.131 28.2527C119.131 28.4266 119.051 28.5943 118.891 28.7559C118.744 28.9174 118.535 29.0603 118.265 29.1845C118.007 29.3088 117.7 29.4081 117.343 29.4827C117 29.5572 116.625 29.5945 116.219 29.5945C114.795 29.5945 113.665 29.2031 112.829 28.4204C112.006 27.6377 111.594 26.4947 111.594 24.9913C111.594 24.2831 111.693 23.6557 111.889 23.1091C112.098 22.55 112.381 22.0779 112.737 21.6927C113.105 21.3075 113.542 21.0156 114.045 20.8168C114.549 20.6056 115.095 20.5 115.685 20.5C116.238 20.5 116.748 20.5931 117.215 20.7795C117.682 20.9659 118.081 21.233 118.412 21.5809C118.756 21.9163 119.02 22.3201 119.205 22.7922C119.401 23.2519 119.499 23.7613 119.499 24.3204C119.499 24.5938 119.438 24.7925 119.315 24.9168C119.193 25.0286 119.02 25.0969 118.799 25.1218L113.124 25.9231ZM115.667 21.7113C114.918 21.7113 114.297 21.9784 113.806 22.5127C113.314 23.0345 113.056 23.7862 113.032 24.7677L118.099 24.0595C118.038 23.3762 117.798 22.8171 117.38 22.3822C116.975 21.935 116.404 21.7113 115.667 21.7113Z" fill="#F6F6FB"/>
<path d="M2.40477 37.7871C2.37897 37.8058 2.34396 37.8225 2.29973 37.8374C2.25919 37.8523 2.21313 37.8598 2.16153 37.8598C2.10257 37.8598 2.04913 37.8505 2.00122 37.8318C1.95699 37.8132 1.92567 37.7834 1.90724 37.7424C1.70823 37.3249 1.53686 36.9429 1.39313 36.5963C1.2494 36.2496 1.13331 35.9626 1.04486 35.7353H1.02275C1.01169 36.0148 0.99879 36.2757 0.984048 36.518C0.972992 36.7565 0.960093 36.9913 0.945352 37.2224C0.93061 37.4498 0.915869 37.6809 0.901127 37.9157C0.886386 38.1505 0.871644 38.4021 0.856902 38.6705C0.83479 38.6779 0.805307 38.6854 0.768453 38.6928C0.735284 38.7003 0.698431 38.704 0.657891 38.704C0.576813 38.704 0.519689 38.6873 0.48652 38.6537C0.453352 38.6202 0.436768 38.5717 0.436768 38.5083C0.436768 38.4711 0.43861 38.3909 0.442296 38.2679C0.449666 38.1449 0.45888 37.9958 0.469936 37.8207C0.480992 37.6455 0.492048 37.4517 0.503105 37.2392C0.517846 37.0268 0.532588 36.8106 0.547329 36.5907C0.565756 36.3708 0.582341 36.1546 0.597082 35.9421C0.615509 35.7297 0.632093 35.5359 0.646835 35.3607C0.676318 35.3346 0.7187 35.3103 0.773981 35.288C0.829262 35.2656 0.891914 35.2544 0.961936 35.2544C1.13146 35.2544 1.2494 35.3234 1.31573 35.4613C1.38576 35.6067 1.45578 35.7613 1.5258 35.9253C1.59951 36.0856 1.67137 36.2496 1.7414 36.4173C1.8151 36.5851 1.88513 36.7509 1.95146 36.9149C2.02149 37.0789 2.08782 37.2355 2.15048 37.3846H2.17259C2.25367 37.187 2.33475 36.9932 2.41582 36.8031C2.4969 36.6093 2.57614 36.4229 2.65353 36.244C2.73093 36.0651 2.80463 35.8974 2.87466 35.7408C2.94468 35.5843 3.00733 35.4408 3.06261 35.3103C3.09578 35.2917 3.13816 35.2787 3.18976 35.2712C3.24135 35.26 3.28926 35.2544 3.33349 35.2544C3.5067 35.2544 3.60621 35.3141 3.632 35.4333C3.64675 35.5004 3.66333 35.6123 3.68176 35.7688C3.70018 35.9216 3.71861 36.0987 3.73704 36.2999C3.75546 36.5012 3.77205 36.7174 3.78679 36.9485C3.80522 37.1796 3.8218 37.4032 3.83654 37.6194C3.85128 37.8319 3.86418 38.0294 3.87524 38.212C3.8863 38.3909 3.89551 38.5326 3.90288 38.6369C3.83654 38.6817 3.75915 38.704 3.6707 38.704C3.61542 38.704 3.56567 38.691 3.52144 38.6649C3.4809 38.6351 3.45695 38.5829 3.44958 38.5083C3.43115 38.2363 3.41457 37.966 3.39982 37.6977C3.38508 37.4293 3.37034 37.174 3.3556 36.9317C3.34454 36.6894 3.33349 36.4677 3.32243 36.2664C3.31137 36.0614 3.30216 35.8881 3.29479 35.7464H3.27268C3.23214 35.8508 3.18423 35.9682 3.12895 36.0987C3.07735 36.2291 3.0147 36.3763 2.94099 36.5403C2.87097 36.7043 2.79173 36.8907 2.70328 37.0994C2.61484 37.3044 2.51533 37.5337 2.40477 37.7871ZM7.79618 38.3798C7.95096 38.3798 8.07811 38.3648 8.17761 38.335C8.28081 38.3015 8.35451 38.2698 8.39874 38.24V37.4293L7.71325 37.502C7.52161 37.5206 7.37973 37.5653 7.28759 37.6362C7.19546 37.7033 7.14939 37.8039 7.14939 37.9381C7.14939 38.0797 7.20283 38.1897 7.3097 38.2679C7.41658 38.3425 7.57874 38.3798 7.79618 38.3798ZM7.79065 36.0148C8.11128 36.0148 8.36557 36.0875 8.55352 36.2328C8.74148 36.3782 8.83546 36.6074 8.83546 36.9205V38.2456C8.83546 38.3276 8.81887 38.3909 8.7857 38.4357C8.75622 38.4767 8.71015 38.5158 8.6475 38.5531C8.55905 38.6053 8.44112 38.65 8.2937 38.6873C8.14997 38.7283 7.98413 38.7488 7.79618 38.7488C7.44975 38.7488 7.18072 38.6798 6.98907 38.5419C6.80112 38.404 6.70714 38.2046 6.70714 37.9437C6.70714 37.6977 6.78638 37.5132 6.94485 37.3902C7.10332 37.2634 7.32629 37.1852 7.61375 37.1553L8.39874 37.0771V36.9205C8.39874 36.7342 8.34346 36.5981 8.23289 36.5124C8.12233 36.4267 7.97307 36.3838 7.78512 36.3838C7.63033 36.3838 7.48476 36.4062 7.3484 36.4509C7.21204 36.4956 7.09042 36.5459 6.98355 36.6018C6.95406 36.5758 6.92642 36.5459 6.90063 36.5124C6.87851 36.4788 6.86746 36.4416 6.86746 36.4006C6.86746 36.3484 6.88036 36.3055 6.90615 36.272C6.93195 36.2384 6.97249 36.2068 7.02777 36.1769C7.12728 36.1248 7.24152 36.0856 7.37051 36.0595C7.4995 36.0297 7.63955 36.0148 7.79065 36.0148ZM16.0674 38.363C16.3143 38.363 16.5004 38.3071 16.6257 38.1953C16.7547 38.0797 16.8192 37.9325 16.8192 37.7536C16.8192 37.597 16.7695 37.4703 16.67 37.3734C16.5741 37.2765 16.4212 37.1963 16.2111 37.133L15.7302 36.9876C15.4943 36.9168 15.3082 36.8124 15.1718 36.6745C15.0392 36.5366 14.9728 36.3503 14.9728 36.1154C14.9728 35.9738 14.9986 35.8471 15.0502 35.7353C15.1055 35.6197 15.1829 35.5228 15.2824 35.4445C15.3819 35.3663 15.4998 35.3066 15.6362 35.2656C15.7762 35.2209 15.9329 35.1985 16.1061 35.1985C16.2535 35.1985 16.3899 35.2116 16.5152 35.2377C16.6442 35.26 16.7547 35.2936 16.8469 35.3383C16.9427 35.3793 17.0164 35.4259 17.068 35.4781C17.1196 35.5303 17.1454 35.5843 17.1454 35.6402C17.1454 35.6924 17.1325 35.7371 17.1067 35.7744C17.0809 35.8117 17.0477 35.8415 17.0072 35.8638C16.9114 35.7893 16.786 35.7241 16.6313 35.6682C16.4802 35.6123 16.3106 35.5843 16.1227 35.5843C15.9052 35.5843 15.7339 35.6309 15.6086 35.7241C15.4869 35.8173 15.4261 35.9477 15.4261 36.1154C15.4261 36.2459 15.4704 36.3521 15.5588 36.4341C15.6473 36.5161 15.7947 36.5869 16.0011 36.6466L16.3383 36.7472C16.6294 36.8329 16.8579 36.9541 17.0238 37.1106C17.1933 37.2634 17.278 37.4778 17.278 37.7536C17.278 38.048 17.173 38.2866 16.9629 38.4692C16.7529 38.6518 16.4544 38.7432 16.0674 38.7432C15.8979 38.7432 15.7431 38.7283 15.603 38.6984C15.4667 38.6686 15.3487 38.6295 15.2492 38.581C15.1534 38.5326 15.0779 38.4804 15.0226 38.4245C14.971 38.3648 14.9452 38.3071 14.9452 38.2512C14.9452 38.1878 14.9636 38.1356 15.0005 38.0946C15.041 38.0499 15.0871 38.0182 15.1387 37.9996C15.1792 38.0406 15.229 38.0834 15.2879 38.1282C15.3469 38.1692 15.4151 38.2083 15.4925 38.2456C15.5699 38.2791 15.6565 38.3071 15.7523 38.3294C15.8481 38.3518 15.9531 38.363 16.0674 38.363ZM21.077 38.3798C21.2317 38.3798 21.3589 38.3648 21.4584 38.335C21.5616 38.3015 21.6353 38.2698 21.6795 38.24V37.4293L20.994 37.502C20.8024 37.5206 20.6605 37.5653 20.5684 37.6362C20.4762 37.7033 20.4302 37.8039 20.4302 37.9381C20.4302 38.0797 20.4836 38.1897 20.5905 38.2679C20.6974 38.3425 20.8595 38.3798 21.077 38.3798ZM21.0714 36.0148C21.3921 36.0148 21.6463 36.0875 21.8343 36.2328C22.0223 36.3782 22.1162 36.6074 22.1162 36.9205V38.2456C22.1162 38.3276 22.0996 38.3909 22.0665 38.4357C22.037 38.4767 21.9909 38.5158 21.9283 38.5531C21.8398 38.6053 21.7219 38.65 21.5745 38.6873C21.4307 38.7283 21.2649 38.7488 21.077 38.7488C20.7305 38.7488 20.4615 38.6798 20.2699 38.5419C20.0819 38.404 19.9879 38.2046 19.9879 37.9437C19.9879 37.6977 20.0672 37.5132 20.2256 37.3902C20.3841 37.2634 20.6071 37.1852 20.8945 37.1553L21.6795 37.0771V36.9205C21.6795 36.7342 21.6242 36.5981 21.5137 36.5124C21.4031 36.4267 21.2538 36.3838 21.0659 36.3838C20.9111 36.3838 20.7655 36.4062 20.6292 36.4509C20.4928 36.4956 20.3712 36.5459 20.2643 36.6018C20.2348 36.5758 20.2072 36.5459 20.1814 36.5124C20.1593 36.4788 20.1482 36.4416 20.1482 36.4006C20.1482 36.3484 20.1611 36.3055 20.1869 36.272C20.2127 36.2384 20.2533 36.2068 20.3085 36.1769C20.4081 36.1248 20.5223 36.0856 20.6513 36.0595C20.7803 36.0297 20.9203 36.0148 21.0714 36.0148ZM26.8484 36.9876C26.8484 36.7789 26.7894 36.6261 26.6715 36.5292C26.5573 36.4323 26.4025 36.3838 26.2072 36.3838C26.0597 36.3838 25.9289 36.4024 25.8147 36.4397C25.7004 36.477 25.6028 36.5198 25.5217 36.5683V38.6593C25.5032 38.6668 25.4756 38.6742 25.4388 38.6817C25.4019 38.6928 25.3614 38.6984 25.3171 38.6984C25.1587 38.6984 25.0794 38.6313 25.0794 38.4972V36.5907C25.0794 36.5124 25.0942 36.449 25.1237 36.4006C25.1568 36.3484 25.2121 36.2981 25.2895 36.2496C25.3853 36.19 25.5125 36.1359 25.6709 36.0875C25.8294 36.039 26.0081 36.0148 26.2072 36.0148C26.5425 36.0148 26.806 36.0912 26.9977 36.244C27.193 36.3968 27.2907 36.6373 27.2907 36.9653V38.6593C27.2722 38.6668 27.2428 38.6742 27.2022 38.6817C27.1654 38.6928 27.1267 38.6984 27.0861 38.6984C26.9277 38.6984 26.8484 38.6313 26.8484 38.4972V36.9876ZM31.1482 38.7432C30.8902 38.7432 30.6802 38.6854 30.518 38.5698C30.3595 38.4543 30.2803 38.2623 30.2803 37.994V35.3383C30.2987 35.3308 30.3264 35.3234 30.3632 35.3159C30.4038 35.3048 30.4461 35.2992 30.4904 35.2992C30.6452 35.2992 30.7225 35.3663 30.7225 35.5004V36.1434H31.6292C31.6402 36.162 31.6513 36.1881 31.6623 36.2217C31.6734 36.2515 31.6789 36.285 31.6789 36.3223C31.6789 36.449 31.6236 36.5124 31.5131 36.5124H30.7225V37.966C30.7225 38.1151 30.7631 38.2213 30.8442 38.2847C30.9289 38.3443 31.0469 38.3742 31.198 38.3742C31.2606 38.3742 31.3306 38.363 31.408 38.3406C31.4854 38.3183 31.5499 38.2922 31.6015 38.2623C31.6236 38.2847 31.6439 38.3127 31.6623 38.3462C31.6808 38.3798 31.69 38.4189 31.69 38.4636C31.69 38.5456 31.6421 38.6127 31.5462 38.6649C31.4504 38.7171 31.3177 38.7432 31.1482 38.7432ZM34.7217 37.6418C34.8212 38.13 35.1381 38.3742 35.6725 38.3742C35.8273 38.3742 35.9673 38.3481 36.0926 38.2959C36.2179 38.2437 36.3174 38.1878 36.3911 38.1282C36.4796 38.1803 36.5238 38.2512 36.5238 38.3406C36.5238 38.3928 36.4999 38.4431 36.452 38.4916C36.4077 38.54 36.3451 38.5829 36.264 38.6202C36.1866 38.6574 36.0945 38.6873 35.9876 38.7096C35.8844 38.732 35.772 38.7432 35.6504 38.7432C35.2229 38.7432 34.8838 38.6258 34.6332 38.3909C34.3863 38.1561 34.2628 37.8132 34.2628 37.3622C34.2628 37.1498 34.2923 36.9615 34.3513 36.7975C34.4139 36.6298 34.4987 36.4882 34.6056 36.3726C34.7161 36.2571 34.847 36.1695 34.9981 36.1098C35.1492 36.0465 35.3132 36.0148 35.4901 36.0148C35.6559 36.0148 35.8089 36.0428 35.9489 36.0987C36.0889 36.1546 36.2087 36.2347 36.3082 36.3391C36.4114 36.4397 36.4907 36.5608 36.5459 36.7025C36.6049 36.8404 36.6344 36.9932 36.6344 37.1609C36.6344 37.2429 36.616 37.3026 36.5791 37.3398C36.5422 37.3734 36.4907 37.3939 36.4243 37.4013L34.7217 37.6418ZM35.4845 36.3782C35.2597 36.3782 35.0736 36.4583 34.9262 36.6186C34.7788 36.7752 34.7014 37.0007 34.694 37.2951L36.2142 37.0827C36.1958 36.8777 36.124 36.7099 35.9987 36.5795C35.877 36.4453 35.7057 36.3782 35.4845 36.3782ZM35.9544 34.8295C36.0355 34.8333 36.1 34.8575 36.1479 34.9022C36.1995 34.9432 36.2253 34.9898 36.2253 35.042C36.2253 35.0942 36.2142 35.137 36.1921 35.1706C36.17 35.2004 36.1332 35.2395 36.0816 35.288L35.5785 35.7856C35.5048 35.7856 35.4458 35.7669 35.4016 35.7297C35.3574 35.6887 35.3353 35.6439 35.3353 35.5955C35.3353 35.5657 35.3445 35.5377 35.3629 35.5116C35.3813 35.4855 35.3998 35.4613 35.4182 35.4389L35.9544 34.8295ZM45.1297 36.1266C45.1297 36.2869 45.091 36.436 45.0136 36.5739C44.9399 36.7081 44.8146 36.8124 44.6377 36.887C44.8477 36.9578 45.0044 37.0696 45.1076 37.2224C45.2108 37.3715 45.2623 37.5411 45.2623 37.7312C45.2623 38.0704 45.1407 38.322 44.8975 38.486C44.6579 38.65 44.3152 38.732 43.8693 38.732C43.7145 38.732 43.5634 38.7245 43.416 38.7096C43.2722 38.6984 43.134 38.6742 43.0014 38.6369C42.8466 38.5922 42.7692 38.5065 42.7692 38.3798V35.5172C42.7692 35.4091 42.83 35.3383 42.9516 35.3048C43.0769 35.2675 43.2096 35.2433 43.3496 35.2321C43.4897 35.2172 43.6426 35.2097 43.8085 35.2097C44.2249 35.2097 44.5492 35.2843 44.7814 35.4333C45.0136 35.5824 45.1297 35.8135 45.1297 36.1266ZM43.2114 37.0883V38.2959C43.2999 38.3145 43.4012 38.3294 43.5155 38.3406C43.6334 38.3518 43.7513 38.3574 43.8693 38.3574C44.1752 38.3574 44.4073 38.3071 44.5658 38.2064C44.7243 38.1021 44.8035 37.9399 44.8035 37.72C44.8035 37.5262 44.7317 37.3734 44.5879 37.2616C44.4479 37.146 44.2397 37.0883 43.9632 37.0883H43.2114ZM43.2114 36.7193H43.9632C44.1954 36.7193 44.3705 36.6671 44.4884 36.5627C44.61 36.4583 44.6708 36.3167 44.6708 36.1378C44.6708 35.7688 44.3834 35.5843 43.8085 35.5843C43.6795 35.5843 43.5671 35.5899 43.4712 35.6011C43.3791 35.6085 43.2925 35.6197 43.2114 35.6346V36.7193ZM48.627 38.6593C48.6085 38.6668 48.5809 38.6742 48.5441 38.6817C48.5072 38.6928 48.4667 38.6984 48.4224 38.6984C48.264 38.6984 48.1847 38.6313 48.1847 38.4972V36.0987C48.2032 36.0912 48.2308 36.0838 48.2677 36.0763C48.3082 36.0651 48.3506 36.0595 48.3948 36.0595C48.5496 36.0595 48.627 36.1285 48.627 36.2664V38.6593ZM48.1184 35.2712C48.1184 35.1929 48.1442 35.1277 48.1958 35.0755C48.2511 35.0196 48.3211 34.9917 48.4058 34.9917C48.4906 34.9917 48.5588 35.0196 48.6104 35.0755C48.662 35.1277 48.6878 35.1929 48.6878 35.2712C48.6878 35.3495 48.662 35.4166 48.6104 35.4725C48.5588 35.5247 48.4906 35.5508 48.4058 35.5508C48.3211 35.5508 48.2511 35.5247 48.1958 35.4725C48.1442 35.4166 48.1184 35.3495 48.1184 35.2712ZM51.9613 37.6418C52.0608 38.13 52.3778 38.3742 52.9122 38.3742C53.067 38.3742 53.207 38.3481 53.3323 38.2959C53.4576 38.2437 53.5571 38.1878 53.6308 38.1282C53.7193 38.1803 53.7635 38.2512 53.7635 38.3406C53.7635 38.3928 53.7395 38.4431 53.6916 38.4916C53.6474 38.54 53.5848 38.5829 53.5037 38.6202C53.4263 38.6574 53.3341 38.6873 53.2273 38.7096C53.1241 38.732 53.0117 38.7432 52.8901 38.7432C52.4625 38.7432 52.1235 38.6258 51.8729 38.3909C51.626 38.1561 51.5025 37.8132 51.5025 37.3622C51.5025 37.1498 51.532 36.9615 51.591 36.7975C51.6536 36.6298 51.7384 36.4882 51.8452 36.3726C51.9558 36.2571 52.0866 36.1695 52.2377 36.1098C52.3888 36.0465 52.5528 36.0148 52.7297 36.0148C52.8956 36.0148 53.0485 36.0428 53.1886 36.0987C53.3286 36.1546 53.4484 36.2347 53.5479 36.3391C53.6511 36.4397 53.7303 36.5608 53.7856 36.7025C53.8446 36.8404 53.8741 36.9932 53.8741 37.1609C53.8741 37.2429 53.8556 37.3026 53.8188 37.3398C53.7819 37.3734 53.7303 37.3939 53.664 37.4013L51.9613 37.6418ZM52.7242 36.3782C52.4994 36.3782 52.3133 36.4583 52.1659 36.6186C52.0185 36.7752 51.9411 37.0007 51.9337 37.2951L53.4539 37.0827C53.4355 36.8777 53.3636 36.7099 53.2383 36.5795C53.1167 36.4453 52.9453 36.3782 52.7242 36.3782ZM58.438 36.9876C58.438 36.7789 58.379 36.6261 58.2611 36.5292C58.1468 36.4323 57.992 36.3838 57.7967 36.3838C57.6493 36.3838 57.5184 36.4024 57.4042 36.4397C57.29 36.477 57.1923 36.5198 57.1112 36.5683V38.6593C57.0928 38.6668 57.0651 38.6742 57.0283 38.6817C56.9914 38.6928 56.9509 38.6984 56.9067 38.6984C56.7482 38.6984 56.669 38.6313 56.669 38.4972V36.5907C56.669 36.5124 56.6837 36.449 56.7132 36.4006C56.7464 36.3484 56.8016 36.2981 56.879 36.2496C56.9749 36.19 57.102 36.1359 57.2605 36.0875C57.4189 36.039 57.5977 36.0148 57.7967 36.0148C58.1321 36.0148 58.3956 36.0912 58.5872 36.244C58.7825 36.3968 58.8802 36.6373 58.8802 36.9653V38.6593C58.8618 38.6668 58.8323 38.6742 58.7918 38.6817C58.7549 38.6928 58.7162 38.6984 58.6757 38.6984C58.5172 38.6984 58.438 38.6313 58.438 38.4972V36.9876ZM67.0784 37.7648H65.5968C65.571 37.8393 65.5434 37.9213 65.5139 38.0108C65.4844 38.0965 65.4549 38.1822 65.4255 38.2679C65.3997 38.3499 65.3739 38.4282 65.3481 38.5028C65.3223 38.5736 65.302 38.6332 65.2873 38.6817C65.2357 38.704 65.1749 38.7152 65.1048 38.7152C65.0459 38.7152 64.9924 38.7003 64.9445 38.6705C64.9003 38.6369 64.8782 38.5848 64.8782 38.5139C64.8782 38.4804 64.8837 38.4468 64.8948 38.4133C64.9058 38.376 64.9187 38.3369 64.9335 38.2959C64.9887 38.1393 65.0588 37.9381 65.1435 37.6921C65.232 37.4461 65.326 37.1852 65.4255 36.9093C65.5286 36.6298 65.6318 36.3503 65.735 36.0707C65.8419 35.7874 65.9396 35.534 66.028 35.3103C66.0575 35.2954 66.1017 35.2805 66.1607 35.2656C66.2197 35.2507 66.2805 35.2433 66.3431 35.2433C66.4168 35.2433 66.4868 35.2544 66.5532 35.2768C66.6232 35.2992 66.6674 35.3364 66.6859 35.3886C66.7743 35.6048 66.8683 35.8527 66.9678 36.1322C67.071 36.408 67.1742 36.6913 67.2774 36.982C67.3806 37.2728 67.4782 37.5598 67.5704 37.843C67.6662 38.1226 67.7509 38.376 67.8247 38.6034C67.7952 38.6369 67.7602 38.663 67.7196 38.6817C67.6791 38.704 67.633 38.7152 67.5814 38.7152C67.5114 38.7152 67.458 38.7003 67.4211 38.6705C67.3842 38.6369 67.3529 38.5829 67.3271 38.5083L67.0784 37.7648ZM66.3376 35.6234C66.2971 35.7353 66.251 35.8638 66.1994 36.0092C66.1478 36.1508 66.0944 36.2999 66.0391 36.4565C65.9838 36.613 65.9285 36.7714 65.8732 36.9317C65.818 37.092 65.7664 37.2448 65.7184 37.3902H66.9623C66.907 37.2224 66.8499 37.0547 66.7909 36.887C66.7319 36.7155 66.6748 36.5515 66.6195 36.395C66.5679 36.2384 66.5182 36.0949 66.4703 35.9645C66.426 35.8303 66.3892 35.7166 66.3597 35.6234H66.3376ZM71.7482 36.3894C71.6229 36.3894 71.5068 36.4118 71.3999 36.4565C71.2931 36.4975 71.2009 36.5608 71.1235 36.6466C71.0461 36.7286 70.9853 36.8329 70.9411 36.9597C70.8969 37.0827 70.8748 37.2243 70.8748 37.3846C70.8748 37.7051 70.954 37.9511 71.1125 38.1226C71.271 38.2903 71.4829 38.3742 71.7482 38.3742C71.903 38.3742 72.032 38.3537 72.1352 38.3127C72.2384 38.2679 72.3305 38.2176 72.4116 38.1617C72.4521 38.1841 72.4853 38.212 72.5111 38.2456C72.5369 38.2791 72.5498 38.3201 72.5498 38.3686C72.5498 38.4208 72.5295 38.4692 72.489 38.5139C72.4484 38.5587 72.3913 38.5978 72.3176 38.6313C72.2476 38.6649 72.1628 38.691 72.0633 38.7096C71.9675 38.732 71.8625 38.7432 71.7482 38.7432C71.5566 38.7432 71.3797 38.7152 71.2175 38.6593C71.0554 38.6034 70.9153 38.5195 70.7974 38.4077C70.6795 38.2959 70.5873 38.1561 70.521 37.9884C70.4546 37.8169 70.4215 37.6157 70.4215 37.3846C70.4215 37.1572 70.4565 36.9597 70.5265 36.7919C70.5965 36.6205 70.6905 36.477 70.8084 36.3614C70.9264 36.2459 71.0646 36.1602 71.223 36.1043C71.3852 36.0446 71.5566 36.0148 71.7372 36.0148C71.8514 36.0148 71.9564 36.026 72.0523 36.0483C72.1518 36.067 72.2365 36.0949 72.3065 36.1322C72.3766 36.1695 72.43 36.2124 72.4669 36.2608C72.5074 36.3055 72.5277 36.3521 72.5277 36.4006C72.5277 36.4453 72.5148 36.4844 72.489 36.518C72.4632 36.5515 72.43 36.5776 72.3895 36.5963C72.3084 36.5403 72.2199 36.4919 72.1241 36.4509C72.0283 36.4099 71.903 36.3894 71.7482 36.3894ZM76.4793 36.3894C76.354 36.3894 76.2379 36.4118 76.1311 36.4565C76.0242 36.4975 75.9321 36.5608 75.8547 36.6466C75.7773 36.7286 75.7165 36.8329 75.6722 36.9597C75.628 37.0827 75.6059 37.2243 75.6059 37.3846C75.6059 37.7051 75.6851 37.9511 75.8436 38.1226C76.0021 38.2903 76.214 38.3742 76.4793 38.3742C76.6341 38.3742 76.7631 38.3537 76.8663 38.3127C76.9695 38.2679 77.0616 38.2176 77.1427 38.1617C77.1832 38.1841 77.2164 38.212 77.2422 38.2456C77.268 38.2791 77.2809 38.3201 77.2809 38.3686C77.2809 38.4208 77.2606 38.4692 77.2201 38.5139C77.1796 38.5587 77.1224 38.5978 77.0487 38.6313C76.9787 38.6649 76.8939 38.691 76.7944 38.7096C76.6986 38.732 76.5936 38.7432 76.4793 38.7432C76.2877 38.7432 76.1108 38.7152 75.9486 38.6593C75.7865 38.6034 75.6464 38.5195 75.5285 38.4077C75.4106 38.2959 75.3184 38.1561 75.2521 37.9884C75.1858 37.8169 75.1526 37.6157 75.1526 37.3846C75.1526 37.1572 75.1876 36.9597 75.2576 36.7919C75.3277 36.6205 75.4216 36.477 75.5396 36.3614C75.6575 36.2459 75.7957 36.1602 75.9542 36.1043C76.1163 36.0446 76.2877 36.0148 76.4683 36.0148C76.5825 36.0148 76.6876 36.026 76.7834 36.0483C76.8829 36.067 76.9677 36.0949 77.0377 36.1322C77.1077 36.1695 77.1611 36.2124 77.198 36.2608C77.2385 36.3055 77.2588 36.3521 77.2588 36.4006C77.2588 36.4453 77.2459 36.4844 77.2201 36.518C77.1943 36.5515 77.1611 36.5776 77.1206 36.5963C77.0395 36.5403 76.9511 36.4919 76.8552 36.4509C76.7594 36.4099 76.6341 36.3894 76.4793 36.3894ZM82.399 37.379C82.399 37.5877 82.3695 37.7759 82.3105 37.9437C82.2516 38.1114 82.1668 38.2549 82.0563 38.3742C81.9494 38.4934 81.8186 38.5848 81.6638 38.6481C81.509 38.7115 81.3358 38.7432 81.1441 38.7432C80.9525 38.7432 80.7793 38.7115 80.6245 38.6481C80.4697 38.5848 80.337 38.4934 80.2265 38.3742C80.1159 38.2549 80.0311 38.1114 79.9722 37.9437C79.9132 37.7759 79.8837 37.5877 79.8837 37.379C79.8837 37.1703 79.9132 36.982 79.9722 36.8143C80.0348 36.6466 80.1214 36.5031 80.232 36.3838C80.3426 36.2645 80.4752 36.1732 80.63 36.1098C80.7848 36.0465 80.9562 36.0148 81.1441 36.0148C81.3321 36.0148 81.5034 36.0465 81.6582 36.1098C81.813 36.1732 81.9439 36.2645 82.0507 36.3838C82.1613 36.5031 82.2461 36.6466 82.305 36.8143C82.3677 36.982 82.399 37.1703 82.399 37.379ZM81.1441 36.3838C80.8935 36.3838 80.6964 36.4714 80.5526 36.6466C80.4089 36.8218 80.337 37.0659 80.337 37.379C80.337 37.6958 80.407 37.9418 80.5471 38.117C80.6908 38.2884 80.8898 38.3742 81.1441 38.3742C81.3984 38.3742 81.5956 38.2866 81.7356 38.1114C81.8757 37.9362 81.9457 37.6921 81.9457 37.379C81.9457 37.0659 81.8738 36.8218 81.7301 36.6466C81.5901 36.4714 81.3947 36.3838 81.1441 36.3838ZM88.4785 36.9149C88.4785 36.7323 88.4269 36.5981 88.3237 36.5124C88.2205 36.4267 88.0823 36.3838 87.9091 36.3838C87.6696 36.3838 87.4558 36.4695 87.2679 36.641C87.29 36.7155 87.301 36.7957 87.301 36.8814V38.6593C87.2826 38.6668 87.2531 38.6742 87.2126 38.6817C87.1757 38.6928 87.137 38.6984 87.0965 38.6984C86.938 38.6984 86.8588 38.6313 86.8588 38.4972V36.9149C86.8588 36.7323 86.8072 36.5981 86.704 36.5124C86.6008 36.4267 86.4608 36.3838 86.2839 36.3838C86.1659 36.3838 86.0535 36.4024 85.9467 36.4397C85.8435 36.477 85.755 36.5198 85.6813 36.5683V38.6593C85.6629 38.6668 85.6352 38.6742 85.5984 38.6817C85.5615 38.6928 85.521 38.6984 85.4768 38.6984C85.3183 38.6984 85.2391 38.6313 85.2391 38.4972V36.5907C85.2391 36.5161 85.2538 36.4546 85.2833 36.4062C85.3165 36.354 85.3717 36.3018 85.4491 36.2496C85.5486 36.1863 85.6739 36.1322 85.825 36.0875C85.9798 36.039 86.1346 36.0148 86.2894 36.0148C86.47 36.0148 86.6303 36.0428 86.7703 36.0987C86.9104 36.1509 87.0173 36.2235 87.091 36.3167C87.1868 36.231 87.3066 36.1602 87.4503 36.1043C87.594 36.0446 87.758 36.0148 87.9423 36.0148C88.2408 36.0148 88.4785 36.0875 88.6554 36.2328C88.8323 36.3745 88.9208 36.5944 88.9208 36.8926V38.6593C88.9023 38.6668 88.8728 38.6742 88.8323 38.6817C88.7955 38.6928 88.7568 38.6984 88.7162 38.6984C88.5578 38.6984 88.4785 38.6313 88.4785 38.4972V36.9149ZM92.9968 38.7432C92.8678 38.7432 92.7462 38.7283 92.632 38.6984C92.5177 38.6686 92.4237 38.6332 92.35 38.5922V39.6769C92.3316 39.6843 92.304 39.6918 92.2671 39.6992C92.2302 39.7104 92.1897 39.716 92.1455 39.716C91.987 39.716 91.9078 39.647 91.9078 39.5091V36.5571C91.9078 36.4826 91.9207 36.4229 91.9465 36.3782C91.9723 36.3335 92.0257 36.2869 92.1068 36.2384C92.2063 36.1825 92.3242 36.1322 92.4606 36.0875C92.6006 36.039 92.7591 36.0148 92.936 36.0148C93.1166 36.0148 93.2861 36.0409 93.4446 36.0931C93.6067 36.1453 93.7449 36.2273 93.8592 36.3391C93.9771 36.4472 94.0693 36.5869 94.1356 36.7584C94.2056 36.9299 94.2406 37.1349 94.2406 37.3734C94.2406 37.6045 94.2093 37.8058 94.1467 37.9772C94.0877 38.1487 94.0029 38.2922 93.8924 38.4077C93.7818 38.5195 93.6491 38.6034 93.4943 38.6593C93.3432 38.7152 93.1774 38.7432 92.9968 38.7432ZM92.936 38.3742C93.194 38.3742 93.4004 38.2959 93.5551 38.1393C93.7136 37.9791 93.7929 37.7238 93.7929 37.3734C93.7929 37.1908 93.7689 37.0361 93.721 36.9093C93.6768 36.7826 93.6141 36.6801 93.533 36.6018C93.4556 36.5236 93.3653 36.4677 93.2622 36.4341C93.159 36.4006 93.0502 36.3838 92.936 36.3838C92.8033 36.3838 92.6909 36.4006 92.5988 36.4341C92.5067 36.4677 92.4237 36.5049 92.35 36.5459V38.1953C92.42 38.2474 92.503 38.2903 92.5988 38.3238C92.6946 38.3574 92.807 38.3742 92.936 38.3742ZM98.0048 38.3798C98.1596 38.3798 98.2867 38.3648 98.3862 38.335C98.4894 38.3015 98.5631 38.2698 98.6074 38.24V37.4293L97.9219 37.502C97.7302 37.5206 97.5883 37.5653 97.4962 37.6362C97.4041 37.7033 97.358 37.8039 97.358 37.9381C97.358 38.0797 97.4115 38.1897 97.5183 38.2679C97.6252 38.3425 97.7874 38.3798 98.0048 38.3798ZM97.9993 36.0148C98.3199 36.0148 98.5742 36.0875 98.7621 36.2328C98.9501 36.3782 99.0441 36.6074 99.0441 36.9205V38.2456C99.0441 38.3276 99.0275 38.3909 98.9943 38.4357C98.9648 38.4767 98.9188 38.5158 98.8561 38.5531C98.7677 38.6053 98.6497 38.65 98.5023 38.6873C98.3586 38.7283 98.1928 38.7488 98.0048 38.7488C97.6584 38.7488 97.3893 38.6798 97.1977 38.5419C97.0097 38.404 96.9158 38.2046 96.9158 37.9437C96.9158 37.6977 96.995 37.5132 97.1535 37.3902C97.3119 37.2634 97.5349 37.1852 97.8224 37.1553L98.6074 37.0771V36.9205C98.6074 36.7342 98.5521 36.5981 98.4415 36.5124C98.331 36.4267 98.1817 36.3838 97.9937 36.3838C97.839 36.3838 97.6934 36.4062 97.557 36.4509C97.4207 36.4956 97.299 36.5459 97.1922 36.6018C97.1627 36.5758 97.135 36.5459 97.1093 36.5124C97.0871 36.4788 97.0761 36.4416 97.0761 36.4006C97.0761 36.3484 97.089 36.3055 97.1148 36.272C97.1406 36.2384 97.1811 36.2068 97.2364 36.1769C97.3359 36.1248 97.4501 36.0856 97.5791 36.0595C97.7081 36.0297 97.8482 36.0148 97.9993 36.0148ZM103.715 38.4021C103.653 38.4543 103.566 38.499 103.455 38.5363C103.349 38.5736 103.22 38.5922 103.069 38.5922C102.906 38.5922 102.753 38.5699 102.61 38.5251C102.466 38.4767 102.339 38.4021 102.228 38.3015C102.121 38.1971 102.035 38.0629 101.968 37.8989C101.906 37.7349 101.874 37.5355 101.874 37.3007C101.874 37.0883 101.906 36.9019 101.968 36.7416C102.031 36.5813 102.118 36.4472 102.228 36.3391C102.343 36.231 102.477 36.1509 102.632 36.0987C102.787 36.0428 102.958 36.0148 103.146 36.0148C103.315 36.0148 103.47 36.0372 103.61 36.0819C103.754 36.1229 103.874 36.1751 103.97 36.2384C104.025 36.2757 104.069 36.3186 104.102 36.367C104.139 36.4118 104.158 36.4677 104.158 36.5348V38.7823C104.158 38.9687 104.126 39.1252 104.064 39.2519C104.005 39.3824 103.92 39.4868 103.809 39.565C103.702 39.647 103.575 39.7067 103.428 39.7439C103.28 39.7812 103.122 39.7999 102.952 39.7999C102.764 39.7999 102.604 39.7793 102.471 39.7383C102.343 39.7011 102.254 39.6675 102.206 39.6377C102.096 39.5743 102.04 39.4942 102.04 39.3973C102.04 39.3451 102.051 39.3004 102.073 39.2631C102.099 39.2296 102.131 39.2035 102.167 39.1848C102.245 39.2445 102.354 39.2985 102.494 39.347C102.634 39.3992 102.787 39.4253 102.952 39.4253C103.199 39.4253 103.387 39.3712 103.516 39.2631C103.649 39.1588 103.715 38.9892 103.715 38.7543V38.4021ZM103.118 38.2232C103.266 38.2232 103.385 38.2009 103.478 38.1561C103.573 38.1077 103.653 38.0536 103.715 37.994V36.5403C103.653 36.4993 103.573 36.4639 103.478 36.4341C103.385 36.4006 103.275 36.3838 103.146 36.3838C102.895 36.3838 102.694 36.4602 102.543 36.613C102.396 36.7658 102.322 36.9932 102.322 37.2951C102.322 37.4628 102.343 37.6063 102.383 37.7256C102.424 37.8412 102.479 37.9362 102.549 38.0108C102.623 38.0853 102.707 38.1393 102.803 38.1729C102.903 38.2064 103.008 38.2232 103.118 38.2232ZM108.901 36.9876C108.901 36.7789 108.842 36.6261 108.724 36.5292C108.61 36.4323 108.455 36.3838 108.26 36.3838C108.112 36.3838 107.982 36.4024 107.867 36.4397C107.753 36.477 107.655 36.5198 107.574 36.5683V38.6593C107.556 38.6668 107.528 38.6742 107.491 38.6817C107.455 38.6928 107.414 38.6984 107.37 38.6984C107.211 38.6984 107.132 38.6313 107.132 38.4972V36.5907C107.132 36.5124 107.147 36.449 107.176 36.4006C107.21 36.3484 107.265 36.2981 107.342 36.2496C107.438 36.19 107.565 36.1359 107.724 36.0875C107.882 36.039 108.061 36.0148 108.26 36.0148C108.595 36.0148 108.859 36.0912 109.05 36.244C109.246 36.3968 109.343 36.6373 109.343 36.9653V38.6593C109.325 38.6668 109.295 38.6742 109.255 38.6817C109.218 38.6928 109.179 38.6984 109.139 38.6984C108.98 38.6984 108.901 38.6313 108.901 38.4972V36.9876ZM112.643 37.6418C112.742 38.13 113.059 38.3742 113.594 38.3742C113.748 38.3742 113.888 38.3481 114.014 38.2959C114.139 38.2437 114.239 38.1878 114.312 38.1282C114.401 38.1803 114.445 38.2512 114.445 38.3406C114.445 38.3928 114.421 38.4431 114.373 38.4916C114.329 38.54 114.266 38.5829 114.185 38.6202C114.108 38.6574 114.016 38.6873 113.909 38.7096C113.805 38.732 113.693 38.7432 113.571 38.7432C113.144 38.7432 112.805 38.6258 112.554 38.3909C112.307 38.1561 112.184 37.8132 112.184 37.3622C112.184 37.1498 112.213 36.9615 112.272 36.7975C112.335 36.6298 112.42 36.4882 112.527 36.3726C112.637 36.2571 112.768 36.1695 112.919 36.1098C113.07 36.0465 113.234 36.0148 113.411 36.0148C113.577 36.0148 113.73 36.0428 113.87 36.0987C114.01 36.1546 114.13 36.2347 114.229 36.3391C114.332 36.4397 114.412 36.5608 114.467 36.7025C114.526 36.8404 114.555 36.9932 114.555 37.1609C114.555 37.2429 114.537 37.3026 114.5 37.3398C114.463 37.3734 114.412 37.3939 114.345 37.4013L112.643 37.6418ZM113.406 36.3782C113.181 36.3782 112.995 36.4583 112.847 36.6186C112.7 36.7752 112.622 37.0007 112.615 37.2951L114.135 37.0827C114.117 36.8777 114.045 36.7099 113.92 36.5795C113.798 36.4453 113.627 36.3782 113.406 36.3782ZM113.875 34.8295C113.957 34.8333 114.021 34.8575 114.069 34.9022C114.121 34.9432 114.146 34.9898 114.146 35.042C114.146 35.0942 114.135 35.137 114.113 35.1706C114.091 35.2004 114.054 35.2395 114.003 35.288L113.5 35.7856C113.426 35.7856 113.367 35.7669 113.323 35.7297C113.278 35.6887 113.256 35.6439 113.256 35.5955C113.256 35.5657 113.266 35.5377 113.284 35.5116C113.302 35.4855 113.321 35.4613 113.339 35.4389L113.875 34.8295ZM117.665 37.6418C117.765 38.13 118.082 38.3742 118.616 38.3742C118.771 38.3742 118.911 38.3481 119.036 38.2959C119.162 38.2437 119.261 38.1878 119.335 38.1282C119.423 38.1803 119.468 38.2512 119.468 38.3406C119.468 38.3928 119.444 38.4431 119.396 38.4916C119.352 38.54 119.289 38.5829 119.208 38.6202C119.13 38.6574 119.038 38.6873 118.931 38.7096C118.828 38.732 118.716 38.7432 118.594 38.7432C118.167 38.7432 117.828 38.6258 117.577 38.3909C117.33 38.1561 117.207 37.8132 117.207 37.3622C117.207 37.1498 117.236 36.9615 117.295 36.7975C117.358 36.6298 117.442 36.4882 117.549 36.3726C117.66 36.2571 117.791 36.1695 117.942 36.1098C118.093 36.0465 118.257 36.0148 118.434 36.0148C118.6 36.0148 118.753 36.0428 118.893 36.0987C119.033 36.1546 119.153 36.2347 119.252 36.3391C119.355 36.4397 119.434 36.5608 119.49 36.7025C119.549 36.8404 119.578 36.9932 119.578 37.1609C119.578 37.2429 119.56 37.3026 119.523 37.3398C119.486 37.3734 119.434 37.3939 119.368 37.4013L117.665 37.6418ZM118.428 36.3782C118.204 36.3782 118.017 36.4583 117.87 36.6186C117.723 36.7752 117.645 37.0007 117.638 37.2951L119.158 37.0827C119.14 36.8777 119.068 36.7099 118.942 36.5795C118.821 36.4453 118.649 36.3782 118.428 36.3782Z" fill="#F6F6FB"/>
<path d="M120.236 32.1477H0.460693V32.6136H120.236V32.1477Z" fill="white" fill-opacity="0.2"/>
</svg>
