<svg width="163" height="53" viewBox="0 0 163 53" fill="none" xmlns="http://www.w3.org/2000/svg">
<path d="M39.0297 13.4911C31.2502 9.28747 19.8391 0.60228 19.8391 0.60228C19.8391 0.60228 8.40532 9.28747 0.642811 13.4911C0.642811 13.4911 -0.128901 18.8817 5.43762 17.5442L5.466 34.3645C6.90425 35.1349 8.50599 35.5325 10.1303 35.5225C17.1325 35.5225 13.1547 22.3095 19.8164 22.3095C26.4781 22.3095 22.3982 35.5341 30.5239 35.5341C33.361 35.5341 34.1952 34.5034 34.1952 34.5034V17.5384C39.8128 18.9164 39.0297 13.4853 39.0297 13.4853" fill="#462682"/>
<path d="M60.1206 10.1423C60.1206 11.395 59.9252 12.5032 59.5345 13.4668C59.1601 14.4305 58.631 15.2415 57.9472 15.9C57.2635 16.5424 56.4576 17.0323 55.5297 17.3695C54.6018 17.7068 53.5924 17.8755 52.5017 17.8755C51.4109 17.8755 50.4016 17.7068 49.4737 17.3695C48.5457 17.0323 47.7399 16.5424 47.0561 15.9C46.3887 15.2415 45.8596 14.4305 45.4689 13.4668C45.0945 12.5032 44.9072 11.395 44.9072 10.1423C44.9072 8.88955 45.1026 7.78938 45.4933 6.84182C45.884 5.87819 46.4212 5.07516 47.105 4.43273C47.7887 3.77425 48.5865 3.27637 49.4981 2.9391C50.426 2.60182 51.4272 2.43319 52.5017 2.43319C53.5761 2.43319 54.5773 2.60182 55.5053 2.9391C56.4332 3.27637 57.2391 3.77425 57.9228 4.43273C58.6066 5.07516 59.1438 5.87819 59.5345 6.84182C59.9252 7.78938 60.1206 8.88955 60.1206 10.1423ZM56.1646 10.1423C56.1646 8.60046 55.8309 7.4441 55.1634 6.67319C54.5122 5.88621 53.625 5.49273 52.5017 5.49273C51.3947 5.49273 50.5074 5.88621 49.84 6.67319C49.1725 7.4441 48.8388 8.60046 48.8388 10.1423C48.8388 11.7002 49.1643 12.8726 49.8155 13.6595C50.483 14.4305 51.3784 14.8159 52.5017 14.8159C53.625 14.8159 54.5122 14.4305 55.1634 13.6595C55.8309 12.8726 56.1646 11.7002 56.1646 10.1423ZM68.7211 5.51682C69.5184 5.51682 70.2675 5.64531 70.9677 5.90228C71.6673 6.15927 72.2699 6.54472 72.7747 7.05864C73.2955 7.57256 73.7027 8.215 73.9957 8.98591C74.2887 9.74074 74.4353 10.6241 74.4353 11.6359C74.4353 12.6477 74.2802 13.5391 73.9713 14.31C73.6618 15.0809 73.2222 15.7314 72.6526 16.2614C72.0989 16.7753 71.4231 17.1688 70.6258 17.4418C69.8444 17.6988 68.9653 17.8273 67.9885 17.8273C66.9629 17.8273 66.0838 17.7068 65.3512 17.4659C64.6186 17.225 64.0081 16.9359 63.5197 16.5986C62.8195 16.1329 62.4697 15.5226 62.4697 14.7677V1.78273C62.6486 1.73455 62.8848 1.68637 63.1779 1.63819C63.4709 1.59 63.7963 1.56591 64.1547 1.56591C64.8872 1.56591 65.408 1.68637 65.7175 1.92728C66.0429 2.16819 66.2059 2.62591 66.2059 3.30046V6.04682C66.5313 5.90228 66.9055 5.78182 67.3292 5.68546C67.7523 5.57303 68.2162 5.51682 68.7211 5.51682ZM68.0374 8.40773C67.6625 8.40773 67.3206 8.46392 67.0117 8.57637C66.7187 8.67273 66.4415 8.8012 66.1815 8.96182V14.4786C66.3768 14.6071 66.621 14.7115 66.9141 14.7918C67.2071 14.8721 67.549 14.9123 67.9397 14.9123C68.7535 14.9123 69.3963 14.6393 69.8688 14.0932C70.3572 13.5471 70.6014 12.728 70.6014 11.6359C70.6014 10.5117 70.3651 9.69256 69.8932 9.17864C69.4372 8.66472 68.8188 8.40773 68.0374 8.40773ZM80.5896 17.8514C80.5896 18.6223 80.4919 19.2727 80.2965 19.8027C80.1177 20.3488 79.8735 20.7985 79.564 21.1518C79.2544 21.5052 78.8967 21.7621 78.4895 21.9227C78.0988 22.0834 77.6837 22.1636 77.2441 22.1636C76.5927 22.1636 76.0885 21.9629 75.7301 21.5614C75.3717 21.1759 75.1764 20.6941 75.144 20.1159C75.7301 19.8429 76.1617 19.5056 76.4383 19.1041C76.7148 18.7186 76.8534 18.1726 76.8534 17.4659V6.02273C77.0323 5.97455 77.2685 5.92637 77.5616 5.87819C77.8546 5.83 78.18 5.80591 78.5383 5.80591C79.2709 5.80591 79.7917 5.92637 80.1012 6.16728C80.4266 6.40819 80.5896 6.86591 80.5896 7.54046V17.8514ZM76.5359 2.55364C76.5359 2.00758 76.7313 1.54182 77.122 1.15637C77.5127 0.770914 78.0176 0.578186 78.636 0.578186C79.2544 0.578186 79.7514 0.770914 80.1256 1.15637C80.5163 1.54182 80.7117 2.00758 80.7117 2.55364C80.7117 3.11576 80.5163 3.58955 80.1256 3.975C79.7514 4.36046 79.2544 4.55319 78.636 4.55319C78.0176 4.55319 77.5127 4.36046 77.122 3.975C76.7313 3.58955 76.5359 3.11576 76.5359 2.55364ZM86.6285 13.2018C86.8562 13.8764 87.2555 14.3582 87.8251 14.6473C88.3946 14.9203 89.054 15.0568 89.803 15.0568C90.4868 15.0568 91.1296 14.9685 91.7322 14.7918C92.3347 14.5991 92.8231 14.3903 93.1973 14.1655C93.4415 14.3261 93.6448 14.5348 93.8078 14.7918C93.9708 15.0488 94.052 15.3298 94.052 15.635C94.052 16.0044 93.9379 16.3256 93.7102 16.5986C93.4825 16.8717 93.165 17.1045 92.7578 17.2973C92.3671 17.4739 91.8952 17.6024 91.3415 17.6827C90.8042 17.7791 90.2102 17.8273 89.5588 17.8273C88.5986 17.8273 87.7109 17.6988 86.8971 17.4418C86.0833 17.1688 85.3831 16.7753 84.7971 16.2614C84.211 15.7314 83.747 15.0729 83.4051 14.2859C83.0798 13.4989 82.9168 12.5755 82.9168 11.5155C82.9168 10.4876 83.0798 9.5962 83.4051 8.84137C83.747 8.08654 84.1945 7.46018 84.7482 6.96228C85.3178 6.46438 85.9613 6.10301 86.6774 5.87819C87.4099 5.63728 88.159 5.51682 88.9239 5.51682C89.7542 5.51682 90.5112 5.64531 91.195 5.90228C91.8952 6.14319 92.4892 6.48847 92.9776 6.93819C93.4824 7.3879 93.8732 7.92591 94.1497 8.55228C94.4263 9.17864 94.5648 9.8612 94.5648 10.6C94.5648 11.1139 94.4263 11.4994 94.1497 11.7564C93.8732 12.0134 93.4824 12.182 92.9776 12.2623L86.6285 13.2018ZM88.9484 8.2391C88.2481 8.2391 87.6621 8.45591 87.1902 8.88955C86.7341 9.30711 86.4655 9.91745 86.3843 10.7205L91.0484 9.97364C91.0161 9.55608 90.8287 9.16256 90.4868 8.79319C90.1449 8.42381 89.6321 8.2391 88.9484 8.2391ZM103.135 8.43182C102.256 8.43182 101.507 8.7129 100.889 9.275C100.27 9.82108 99.9609 10.6321 99.9609 11.7082C99.9609 12.7843 100.254 13.5873 100.84 14.1173C101.442 14.6473 102.199 14.9123 103.111 14.9123C103.632 14.9123 104.088 14.848 104.479 14.7195C104.885 14.575 105.227 14.4305 105.504 14.2859C105.781 14.4947 105.993 14.7195 106.139 14.9605C106.301 15.1853 106.383 15.4664 106.383 15.8036C106.383 16.4139 106.057 16.9038 105.406 17.2732C104.755 17.6426 103.852 17.8273 102.696 17.8273C101.719 17.8273 100.824 17.6988 100.01 17.4418C99.2119 17.1848 98.5281 16.7994 97.9585 16.2855C97.3883 15.7715 96.9488 15.1371 96.6399 14.3823C96.3304 13.6114 96.1759 12.72 96.1759 11.7082C96.1759 10.6643 96.3469 9.75682 96.6887 8.98591C97.0306 8.215 97.4946 7.57256 98.0806 7.05864C98.6667 6.54472 99.3504 6.15927 100.132 5.90228C100.913 5.64531 101.735 5.51682 102.598 5.51682C103.722 5.51682 104.601 5.71758 105.236 6.1191C105.886 6.52063 106.212 7.02654 106.212 7.63682C106.212 7.92591 106.139 8.19091 105.993 8.43182C105.862 8.67273 105.7 8.88154 105.504 9.05819C105.211 8.89756 104.861 8.75301 104.454 8.62455C104.063 8.49608 103.624 8.43182 103.135 8.43182ZM112.349 13.6355C112.349 14.0852 112.495 14.4144 112.788 14.6232C113.082 14.8159 113.489 14.9123 114.009 14.9123C114.254 14.9123 114.514 14.8882 114.791 14.84C115.067 14.7757 115.304 14.7035 115.499 14.6232C115.646 14.7838 115.768 14.9685 115.865 15.1773C115.963 15.3861 116.012 15.627 116.012 15.9C116.012 16.4621 115.784 16.9279 115.328 17.2973C114.889 17.6506 114.115 17.8273 113.008 17.8273C111.641 17.8273 110.574 17.5221 109.809 16.9118C109.044 16.2855 108.662 15.2736 108.662 13.8764V3.05955C108.84 3.01137 109.077 2.96319 109.37 2.915C109.663 2.85076 109.98 2.81864 110.322 2.81864C111.038 2.81864 111.551 2.94712 111.861 3.2041C112.186 3.445 112.349 3.8947 112.349 4.55319V6.1191H115.719C115.8 6.27972 115.882 6.48847 115.963 6.74546C116.044 6.98637 116.085 7.24336 116.085 7.51637C116.085 8.03029 115.963 8.39972 115.719 8.62455C115.491 8.84938 115.19 8.96182 114.815 8.96182H112.349V13.6355ZM122.009 17.4418C121.846 17.49 121.619 17.5302 121.326 17.5623C121.032 17.6105 120.707 17.6346 120.349 17.6346C119.616 17.6346 119.087 17.5221 118.761 17.2973C118.452 17.0564 118.298 16.5986 118.298 15.9241V6.02273C118.461 5.97455 118.688 5.92637 118.981 5.87819C119.274 5.83 119.6 5.80591 119.958 5.80591C120.691 5.80591 121.211 5.92637 121.521 6.16728C121.846 6.40819 122.009 6.86591 122.009 7.54046V17.4418ZM118.078 2.55364C118.078 2.00758 118.265 1.54182 118.639 1.15637C119.03 0.770914 119.535 0.578186 120.153 0.578186C120.772 0.578186 121.269 0.770914 121.643 1.15637C122.034 1.54182 122.229 2.00758 122.229 2.55364C122.229 3.11576 122.034 3.58955 121.643 3.975C121.269 4.36046 120.772 4.55319 120.153 4.55319C119.535 4.55319 119.03 4.36046 118.639 3.975C118.265 3.58955 118.078 3.11576 118.078 2.55364ZM128.491 6.72137H132.642C132.723 6.88199 132.805 7.08273 132.886 7.32364C132.984 7.56455 133.033 7.82955 133.033 8.11864C133.033 8.63256 132.911 9.00199 132.667 9.22682C132.438 9.45165 132.137 9.5641 131.763 9.5641H128.662V17.4418C128.499 17.49 128.271 17.5302 127.978 17.5623C127.685 17.6105 127.359 17.6346 127.001 17.6346C126.269 17.6346 125.739 17.5221 125.414 17.2973C125.088 17.0564 124.926 16.5986 124.926 15.9241V5.68546C124.926 4.89849 125.056 4.21591 125.316 3.63773C125.593 3.05955 125.967 2.59379 126.44 2.24046C126.911 1.87107 127.465 1.59803 128.1 1.42137C128.735 1.2447 129.419 1.15637 130.151 1.15637C131.307 1.15637 132.162 1.30894 132.715 1.6141C133.285 1.90319 133.57 2.385 133.57 3.05955C133.57 3.3647 133.505 3.63773 133.375 3.87864C133.261 4.10349 133.122 4.28016 132.96 4.40864C132.65 4.31228 132.316 4.23198 131.958 4.16773C131.617 4.10349 131.226 4.07137 130.786 4.07137C130.037 4.07137 129.468 4.20788 129.077 4.48091C128.686 4.73789 128.491 5.17955 128.491 5.80591V6.72137Z" fill="#472583"/>
<path d="M54.4065 34.0405H47.862C47.7481 34.3616 47.626 34.715 47.4957 35.1005C47.3655 35.4698 47.2352 35.8393 47.105 36.2086C46.9911 36.562 46.8771 36.8993 46.7632 37.2205C46.6492 37.5256 46.5597 37.7826 46.4945 37.9914C46.2667 38.0877 45.998 38.1359 45.6887 38.1359C45.4282 38.1359 45.1922 38.0716 44.9805 37.9432C44.7852 37.7986 44.6875 37.5738 44.6875 37.2686C44.6875 37.1241 44.7119 36.9795 44.7608 36.835C44.8096 36.6744 44.8666 36.5057 44.9317 36.3291C45.1759 35.6545 45.4852 34.7873 45.8596 33.7273C46.2503 32.6673 46.6655 31.543 47.105 30.3545C47.5609 29.15 48.0167 27.9455 48.4725 26.7409C48.9446 25.5203 49.376 24.4282 49.7667 23.4645C49.897 23.4003 50.0923 23.3361 50.3528 23.2718C50.6133 23.2076 50.8819 23.1755 51.1587 23.1755C51.4842 23.1755 51.7936 23.2236 52.0866 23.32C52.3959 23.4164 52.5913 23.577 52.6727 23.8018C53.0634 24.7334 53.4785 25.8014 53.9181 27.0059C54.3739 28.1944 54.8297 29.415 55.2856 30.6677C55.7414 31.9205 56.1728 33.1571 56.5798 34.3777C57.003 35.5823 57.3775 36.6744 57.7031 37.6541C57.5729 37.7986 57.4182 37.9111 57.2391 37.9914C57.0601 38.0877 56.8565 38.1359 56.6286 38.1359C56.3193 38.1359 56.0833 38.0716 55.9205 37.9432C55.7576 37.7986 55.6193 37.5657 55.5053 37.2445L54.4065 34.0405ZM51.1342 24.8136C50.9552 25.2955 50.7517 25.8495 50.5238 26.4759C50.2959 27.0862 50.0598 27.7286 49.8156 28.4032C49.5714 29.0777 49.3272 29.7603 49.083 30.4509C48.8388 31.1415 48.6109 31.8 48.3993 32.4264H53.8936C53.6494 31.7036 53.3971 30.9809 53.1366 30.2582C52.8761 29.5194 52.6238 28.8127 52.3796 28.1382C52.1517 27.4636 51.932 26.8453 51.7203 26.2832C51.525 25.705 51.3621 25.2152 51.2319 24.8136H51.1342ZM60.1185 26.8614C60.1999 26.8293 60.322 26.7971 60.4848 26.765C60.6639 26.7168 60.8511 26.6927 61.0465 26.6927C61.7305 26.6927 62.0723 26.9898 62.0723 27.5841V33.7755C62.0723 34.8194 62.3489 35.5662 62.9026 36.0159C63.4557 36.4495 64.2212 36.6664 65.198 36.6664C65.8488 36.6664 66.4025 36.6021 66.8586 36.4736C67.314 36.3291 67.6723 36.1845 67.933 36.04V26.8614C68.0142 26.8293 68.1363 26.7971 68.2993 26.765C68.4782 26.7168 68.657 26.6927 68.8365 26.6927C69.5361 26.6927 69.8866 26.9898 69.8866 27.5841V35.9677C69.8866 36.305 69.8377 36.578 69.74 36.7868C69.6582 36.9795 69.447 37.1723 69.1051 37.365C68.7303 37.5738 68.2096 37.7745 67.5423 37.9673C66.8909 38.16 66.1015 38.2564 65.1736 38.2564C63.5454 38.2564 62.2921 37.903 61.413 37.1964C60.5499 36.4897 60.1185 35.3815 60.1185 33.8718V26.8614ZM77.4029 38.2564C76.2631 38.2564 75.3352 38.0074 74.6191 37.5095C73.9188 37.0116 73.569 36.1845 73.569 35.0282V23.585C73.6502 23.5529 73.7723 23.5207 73.9353 23.4886C74.1142 23.4405 74.3016 23.4164 74.497 23.4164C75.1807 23.4164 75.5226 23.7055 75.5226 24.2836V27.0541H79.5274C79.5762 27.1344 79.6251 27.2468 79.6739 27.3914C79.7227 27.5198 79.7471 27.6644 79.7471 27.825C79.7471 28.3711 79.503 28.6441 79.0146 28.6441H75.5226V34.9077C75.5226 35.5502 75.7015 36.0079 76.0598 36.2809C76.434 36.5379 76.9548 36.6664 77.6227 36.6664C77.8992 36.6664 78.2087 36.6182 78.5506 36.5218C78.8925 36.4255 79.177 36.313 79.4053 36.1845C79.503 36.2809 79.5921 36.4014 79.6739 36.5459C79.7551 36.6905 79.796 36.8591 79.796 37.0518C79.796 37.4052 79.5842 37.6943 79.1611 37.9191C78.7374 38.1439 78.1513 38.2564 77.4029 38.2564ZM92.7487 32.3782C92.7487 33.2776 92.618 34.0886 92.358 34.8114C92.0973 35.5341 91.7231 36.1524 91.2347 36.6664C90.7622 37.1803 90.1846 37.5738 89.5009 37.8468C88.8172 38.1198 88.0516 38.2564 87.2055 38.2564C86.3587 38.2564 85.5938 38.1198 84.91 37.8468C84.2263 37.5738 83.6402 37.1803 83.1518 36.6664C82.6634 36.1524 82.2886 35.5341 82.0285 34.8114C81.7679 34.0886 81.6378 33.2776 81.6378 32.3782C81.6378 31.4788 81.7679 30.6677 82.0285 29.945C82.3051 29.2223 82.6879 28.6039 83.1763 28.09C83.6646 27.5761 84.2507 27.1826 84.9345 26.9095C85.6182 26.6365 86.3752 26.5 87.2055 26.5C88.0357 26.5 88.7927 26.6365 89.4765 26.9095C90.1602 27.1826 90.7377 27.5761 91.2103 28.09C91.6987 28.6039 92.0729 29.2223 92.3336 29.945C92.6101 30.6677 92.7487 31.4788 92.7487 32.3782ZM87.2055 28.09C86.098 28.09 85.2275 28.4674 84.5926 29.2223C83.9577 29.9771 83.6402 31.0291 83.6402 32.3782C83.6402 33.7434 83.9491 34.8034 84.5682 35.5582C85.2031 36.297 86.0822 36.6664 87.2055 36.6664C88.3288 36.6664 89.1993 36.2889 89.8184 35.5341C90.4368 34.7793 90.7463 33.7273 90.7463 32.3782C90.7463 31.0291 90.4288 29.9771 89.7939 29.2223C89.1749 28.4674 88.3123 28.09 87.2055 28.09ZM103.584 30.6918C103.584 29.7924 103.324 29.1339 102.803 28.7164C102.298 28.2988 101.614 28.09 100.752 28.09C100.1 28.09 99.5227 28.1703 99.0178 28.3309C98.5129 28.4915 98.0819 28.6762 97.7235 28.885V37.895C97.6423 37.9271 97.5203 37.9593 97.3573 37.9914C97.1943 38.0395 97.0154 38.0636 96.82 38.0636C96.1198 38.0636 95.77 37.7745 95.77 37.1964V28.9814C95.77 28.6441 95.8353 28.3711 95.9653 28.1623C96.1119 27.9374 96.3561 27.7206 96.6979 27.5118C97.121 27.2548 97.6826 27.022 98.3829 26.8132C99.0831 26.6044 99.8725 26.5 100.752 26.5C102.233 26.5 103.397 26.8293 104.244 27.4877C105.106 28.1462 105.538 29.1821 105.538 30.5955V37.895C105.457 37.9271 105.326 37.9593 105.147 37.9914C104.984 38.0395 104.813 38.0636 104.634 38.0636C103.934 38.0636 103.584 37.7745 103.584 37.1964V30.6918ZM119.672 32.3782C119.672 33.2776 119.542 34.0886 119.281 34.8114C119.021 35.5341 118.646 36.1524 118.158 36.6664C117.686 37.1803 117.108 37.5738 116.424 37.8468C115.74 38.1198 114.975 38.2564 114.129 38.2564C113.282 38.2564 112.517 38.1198 111.833 37.8468C111.149 37.5738 110.563 37.1803 110.075 36.6664C109.587 36.1524 109.212 35.5341 108.952 34.8114C108.692 34.0886 108.561 33.2776 108.561 32.3782C108.561 31.4788 108.692 30.6677 108.952 29.945C109.229 29.2223 109.611 28.6039 110.099 28.09C110.588 27.5761 111.174 27.1826 111.858 26.9095C112.541 26.6365 113.298 26.5 114.129 26.5C114.959 26.5 115.716 26.6365 116.4 26.9095C117.083 27.1826 117.661 27.5761 118.133 28.09C118.622 28.6039 118.997 29.2223 119.257 29.945C119.534 30.6677 119.672 31.4788 119.672 32.3782ZM114.129 28.09C113.022 28.09 112.151 28.4674 111.516 29.2223C110.881 29.9771 110.563 31.0291 110.563 32.3782C110.563 33.7434 110.873 34.8034 111.491 35.5582C112.126 36.297 113.005 36.6664 114.129 36.6664C115.252 36.6664 116.123 36.2889 116.741 35.5341C117.36 34.7793 117.669 33.7273 117.669 32.3782C117.669 31.0291 117.352 29.9771 116.717 29.2223C116.099 28.4674 115.236 28.09 114.129 28.09ZM137.003 30.3786C137.003 29.5916 136.775 29.0135 136.32 28.6441C135.864 28.2747 135.253 28.09 134.488 28.09C133.43 28.09 132.486 28.4594 131.656 29.1982C131.753 29.5194 131.802 29.8647 131.802 30.2341V37.895C131.72 37.9271 131.59 37.9593 131.411 37.9914C131.248 38.0395 131.077 38.0636 130.899 38.0636C130.198 38.0636 129.849 37.7745 129.849 37.1964V30.3786C129.849 29.5916 129.62 29.0135 129.165 28.6441C128.709 28.2747 128.09 28.09 127.309 28.09C126.788 28.09 126.291 28.1703 125.819 28.3309C125.363 28.4915 124.973 28.6762 124.647 28.885V37.895C124.565 37.9271 124.443 37.9593 124.281 37.9914C124.118 38.0395 123.939 38.0636 123.744 38.0636C123.043 38.0636 122.694 37.7745 122.694 37.1964V28.9814C122.694 28.6602 122.758 28.3952 122.889 28.1864C123.036 27.9615 123.28 27.7366 123.622 27.5118C124.061 27.2388 124.614 27.0059 125.282 26.8132C125.966 26.6044 126.65 26.5 127.333 26.5C128.131 26.5 128.839 26.6205 129.458 26.8614C130.076 27.0862 130.548 27.3994 130.874 27.8009C131.297 27.4315 131.827 27.1264 132.461 26.8855C133.096 26.6285 133.82 26.5 134.635 26.5C135.953 26.5 137.003 26.8132 137.785 27.4395C138.566 28.0498 138.957 28.9974 138.957 30.2823V37.895C138.875 37.9271 138.745 37.9593 138.566 37.9914C138.403 38.0395 138.232 38.0636 138.054 38.0636C137.353 38.0636 137.003 37.7745 137.003 37.1964V30.3786ZM144.705 37.895C144.624 37.9271 144.501 37.9593 144.339 37.9914C144.176 38.0395 143.997 38.0636 143.802 38.0636C143.102 38.0636 142.752 37.7745 142.752 37.1964V26.8614C142.833 26.8293 142.955 26.7971 143.118 26.765C143.297 26.7168 143.484 26.6927 143.68 26.6927C144.364 26.6927 144.705 26.9898 144.705 27.5841V37.895ZM142.459 23.2959C142.459 22.9586 142.572 22.6776 142.801 22.4527C143.045 22.2118 143.354 22.0914 143.729 22.0914C144.103 22.0914 144.404 22.2118 144.632 22.4527C144.86 22.6776 144.974 22.9586 144.974 23.2959C144.974 23.6332 144.86 23.9223 144.632 24.1632C144.404 24.388 144.103 24.5005 143.729 24.5005C143.354 24.5005 143.045 24.388 142.801 24.1632C142.572 23.9223 142.459 23.6332 142.459 23.2959ZM149.912 33.5105C150.351 35.6144 151.752 36.6664 154.112 36.6664C154.796 36.6664 155.415 36.5539 155.968 36.3291C156.521 36.1043 156.961 35.8633 157.286 35.6064C157.677 35.8312 157.872 36.1364 157.872 36.5218C157.872 36.7466 157.767 36.9635 157.555 37.1723C157.36 37.3811 157.083 37.5657 156.725 37.7264C156.383 37.887 155.976 38.0155 155.504 38.1118C155.048 38.2082 154.551 38.2564 154.014 38.2564C152.126 38.2564 150.628 37.7505 149.521 36.7386C148.431 35.7268 147.885 34.2493 147.885 32.3059C147.885 31.3905 148.015 30.5794 148.276 29.8727C148.553 29.15 148.927 28.5397 149.399 28.0418C149.887 27.5439 150.465 27.1665 151.133 26.9095C151.8 26.6365 152.525 26.5 153.306 26.5C154.039 26.5 154.714 26.6205 155.333 26.8614C155.952 27.1023 156.48 27.4476 156.92 27.8973C157.376 28.3309 157.726 28.8529 157.97 29.4632C158.231 30.0574 158.361 30.7159 158.361 31.4386C158.361 31.792 158.28 32.0489 158.117 32.2095C157.954 32.3541 157.726 32.4424 157.433 32.4745L149.912 33.5105ZM153.282 28.0659C152.289 28.0659 151.467 28.4112 150.815 29.1018C150.164 29.7764 149.822 30.748 149.79 32.0168L156.505 31.1014C156.424 30.218 156.106 29.4953 155.553 28.9332C155.015 28.355 154.258 28.0659 153.282 28.0659Z" fill="#454545"/>
<path d="M3.18661 48.8467C3.15243 48.8708 3.10603 48.8925 3.04742 48.9118C2.9937 48.931 2.93265 48.9407 2.86428 48.9407C2.78613 48.9407 2.71532 48.9286 2.65183 48.9045C2.59322 48.8805 2.55171 48.8419 2.52729 48.7889C2.26356 48.2493 2.03646 47.7554 1.84598 47.3073C1.65551 46.8592 1.50167 46.4882 1.38446 46.1943H1.35515C1.3405 46.5557 1.32341 46.893 1.30387 47.2061C1.28922 47.5145 1.27213 47.818 1.25259 48.1168C1.23306 48.4107 1.21352 48.7094 1.19398 49.013C1.17445 49.3165 1.15491 49.6417 1.13538 49.9886C1.10607 49.9983 1.067 50.0079 1.01816 50.0175C0.974209 50.0272 0.92537 50.032 0.871647 50.032C0.764201 50.032 0.688501 50.0103 0.644546 49.967C0.600591 49.9236 0.578613 49.861 0.578613 49.779C0.578613 49.7309 0.581055 49.6273 0.585939 49.4683C0.595707 49.3093 0.607917 49.1165 0.622568 48.8901C0.63722 48.6636 0.651872 48.4131 0.666523 48.1385C0.686059 47.8638 0.705595 47.5844 0.72513 47.3001C0.74955 47.0158 0.771527 46.7364 0.791063 46.4617C0.815482 46.1871 0.83746 45.9365 0.856995 45.7101C0.896066 45.6764 0.952231 45.645 1.02549 45.6161C1.09875 45.5872 1.18177 45.5728 1.27457 45.5728C1.49923 45.5728 1.65551 45.6619 1.74342 45.8402C1.83622 46.0281 1.92901 46.228 2.0218 46.44C2.11948 46.6472 2.21472 46.8592 2.30751 47.076C2.40519 47.2929 2.49798 47.5073 2.58589 47.7193C2.67869 47.9313 2.7666 48.1336 2.84962 48.3264H2.87893C2.98637 48.071 3.09382 47.8205 3.20126 47.5747C3.30871 47.3242 3.41371 47.0833 3.51628 46.852C3.61884 46.6207 3.71652 46.4039 3.80931 46.2015C3.9021 45.9992 3.98513 45.8137 4.05839 45.645C4.10234 45.621 4.15851 45.6041 4.22688 45.5945C4.29526 45.58 4.35875 45.5728 4.41735 45.5728C4.6469 45.5728 4.77876 45.6499 4.81295 45.804C4.83249 45.8908 4.85446 46.0353 4.87888 46.2377C4.9033 46.4352 4.92772 46.6641 4.95214 46.9243C4.97656 47.1845 4.99854 47.4639 5.01807 47.7626C5.04249 48.0614 5.06447 48.3505 5.08401 48.6299C5.10354 48.9045 5.12064 49.1599 5.13529 49.396C5.14994 49.6273 5.16215 49.8104 5.17192 49.9453C5.08401 50.0031 4.98144 50.032 4.86423 50.032C4.79097 50.032 4.72504 50.0151 4.66643 49.9814C4.61271 49.9429 4.58097 49.8754 4.5712 49.779C4.54678 49.4273 4.5248 49.078 4.50526 48.7311C4.48573 48.3842 4.46619 48.0541 4.44666 47.741C4.43201 47.4278 4.41735 47.1411 4.4027 46.8809C4.38805 46.6159 4.37584 46.3919 4.36607 46.2088H4.33677C4.28305 46.3437 4.21956 46.4955 4.1463 46.6641C4.07792 46.8327 3.9949 47.023 3.89722 47.235C3.80443 47.447 3.69942 47.688 3.58221 47.9578C3.465 48.2228 3.33313 48.5191 3.18661 48.8467ZM10.3313 49.6128C10.5364 49.6128 10.7049 49.5935 10.8368 49.555C10.9736 49.5116 11.0712 49.4707 11.1298 49.4321V48.3842L10.2214 48.4781C9.96747 48.5022 9.77944 48.56 9.65735 48.6516C9.53525 48.7383 9.4742 48.8684 9.4742 49.0419C9.4742 49.225 9.54502 49.3671 9.68665 49.4683C9.82828 49.5646 10.0432 49.6128 10.3313 49.6128ZM10.324 46.5557C10.7489 46.5557 11.0859 46.6496 11.335 46.8375C11.584 47.0255 11.7086 47.3218 11.7086 47.7265V49.4394C11.7086 49.5454 11.6866 49.6273 11.6427 49.6851C11.6036 49.7381 11.5425 49.7887 11.4595 49.8369C11.3423 49.9043 11.186 49.9621 10.9907 50.0103C10.8002 50.0633 10.5804 50.0898 10.3313 50.0898C9.87224 50.0898 9.51571 50.0007 9.26175 49.8224C9.01267 49.6441 8.88813 49.3864 8.88813 49.0491C8.88813 48.7311 8.99314 48.4926 9.20314 48.3336C9.41315 48.1698 9.70863 48.0686 10.0896 48.03L11.1298 47.9289V47.7265C11.1298 47.4856 11.0566 47.3097 10.9101 47.1989C10.7635 47.0881 10.5658 47.0327 10.3167 47.0327C10.1115 47.0327 9.91863 47.0616 9.73793 47.1194C9.55723 47.1772 9.39606 47.2423 9.25443 47.3145C9.21535 47.2808 9.17872 47.2423 9.14454 47.1989C9.11523 47.1555 9.10058 47.1074 9.10058 47.0544C9.10058 46.9869 9.11768 46.9315 9.15186 46.8881C9.18605 46.8448 9.23977 46.8038 9.31303 46.7653C9.4449 46.6978 9.5963 46.6472 9.76723 46.6135C9.93817 46.575 10.1238 46.5557 10.324 46.5557ZM21.2924 49.5911C21.6196 49.5911 21.8662 49.5189 22.0323 49.3743C22.2032 49.225 22.2887 49.0346 22.2887 48.8034C22.2887 48.601 22.2228 48.4372 22.0909 48.3119C21.9639 48.1866 21.7612 48.083 21.4828 48.0011L20.8455 47.8132C20.5329 47.7217 20.2863 47.5868 20.1056 47.4085C19.9298 47.2302 19.8419 46.9893 19.8419 46.6858C19.8419 46.5027 19.876 46.3389 19.9444 46.1943C20.0177 46.045 20.1202 45.9197 20.2521 45.8185C20.384 45.7173 20.5402 45.6402 20.721 45.5872C20.9065 45.5294 21.1141 45.5005 21.3437 45.5005C21.539 45.5005 21.7197 45.5174 21.8858 45.5511C22.0567 45.58 22.2032 45.6234 22.3253 45.6812C22.4523 45.7342 22.55 45.7944 22.6183 45.8619C22.6867 45.9293 22.7209 45.9992 22.7209 46.0715C22.7209 46.1389 22.7038 46.1967 22.6696 46.2449C22.6354 46.2931 22.5915 46.3316 22.5378 46.3605C22.4108 46.2642 22.2447 46.1799 22.0396 46.1076C21.8394 46.0353 21.6147 45.9992 21.3656 45.9992C21.0775 45.9992 20.8504 46.0594 20.6843 46.1799C20.5232 46.3003 20.4426 46.469 20.4426 46.6858C20.4426 46.8544 20.5012 46.9917 20.6184 47.0977C20.7356 47.2037 20.931 47.2953 21.2045 47.3724L21.6513 47.5025C22.0372 47.6133 22.34 47.7699 22.5597 47.9722C22.7844 48.1698 22.8967 48.4468 22.8967 48.8034C22.8967 49.184 22.7575 49.4924 22.4792 49.7285C22.2008 49.9645 21.8052 50.0826 21.2924 50.0826C21.0677 50.0826 20.8626 50.0633 20.677 50.0248C20.4963 49.9862 20.34 49.9356 20.2081 49.873C20.0812 49.8104 19.981 49.7429 19.9078 49.6706C19.8394 49.5935 19.8052 49.5189 19.8052 49.4466C19.8052 49.3647 19.8296 49.2972 19.8785 49.2442C19.9322 49.1864 19.9933 49.1455 20.0616 49.1214C20.1154 49.1744 20.1813 49.2298 20.2594 49.2876C20.3376 49.3406 20.4279 49.3912 20.5305 49.4394C20.633 49.4827 20.7478 49.5189 20.8748 49.5478C21.0018 49.5767 21.141 49.5911 21.2924 49.5911ZM27.931 49.6128C28.1362 49.6128 28.3047 49.5935 28.4365 49.555C28.5733 49.5116 28.671 49.4707 28.7296 49.4321V48.3842L27.8212 48.4781C27.5672 48.5022 27.3792 48.56 27.2571 48.6516C27.135 48.7383 27.0739 48.8684 27.0739 49.0419C27.0739 49.225 27.1447 49.3671 27.2864 49.4683C27.428 49.5646 27.6429 49.6128 27.931 49.6128ZM27.9237 46.5557C28.3486 46.5557 28.6856 46.6496 28.9347 46.8375C29.1838 47.0255 29.3083 47.3218 29.3083 47.7265V49.4394C29.3083 49.5454 29.2863 49.6273 29.2424 49.6851C29.2033 49.7381 29.1423 49.7887 29.0592 49.8369C28.942 49.9043 28.7857 49.9621 28.5904 50.0103C28.3999 50.0633 28.1801 50.0898 27.931 50.0898C27.472 50.0898 27.1154 50.0007 26.8615 49.8224C26.6124 49.6441 26.4879 49.3864 26.4879 49.0491C26.4879 48.7311 26.5929 48.4926 26.8029 48.3336C27.0129 48.1698 27.3084 48.0686 27.6893 48.03L28.7296 47.9289V47.7265C28.7296 47.4856 28.6563 47.3097 28.5098 47.1989C28.3633 47.0881 28.1655 47.0327 27.9164 47.0327C27.7113 47.0327 27.5184 47.0616 27.3377 47.1194C27.157 47.1772 26.9958 47.2423 26.8542 47.3145C26.8151 47.2808 26.7785 47.2423 26.7443 47.1989C26.715 47.1555 26.7003 47.1074 26.7003 47.0544C26.7003 46.9869 26.7174 46.9315 26.7516 46.8881C26.7858 46.8448 26.8395 46.8038 26.9128 46.7653C27.0446 46.6978 27.196 46.6472 27.367 46.6135C27.5379 46.575 27.7235 46.5557 27.9237 46.5557ZM35.5794 47.8132C35.5794 47.5434 35.5013 47.3459 35.345 47.2206C35.1936 47.0953 34.9885 47.0327 34.7296 47.0327C34.5343 47.0327 34.3609 47.0568 34.2095 47.105C34.0581 47.1531 33.9287 47.2085 33.8212 47.2712V49.9742C33.7968 49.9838 33.7602 49.9935 33.7113 50.0031C33.6625 50.0175 33.6088 50.0248 33.5502 50.0248C33.3401 50.0248 33.2351 49.938 33.2351 49.7646V47.3001C33.2351 47.1989 33.2547 47.117 33.2937 47.0544C33.3377 46.9869 33.411 46.9219 33.5135 46.8592C33.6405 46.7821 33.809 46.7123 34.019 46.6496C34.229 46.587 34.4659 46.5557 34.7296 46.5557C35.174 46.5557 35.5232 46.6545 35.7772 46.852C36.0361 47.0495 36.1655 47.3603 36.1655 47.7843V49.9742C36.1411 49.9838 36.102 49.9935 36.0483 50.0031C35.9994 50.0175 35.9481 50.0248 35.8944 50.0248C35.6844 50.0248 35.5794 49.938 35.5794 49.7646V47.8132ZM41.2775 50.0826C40.9356 50.0826 40.6573 50.0079 40.4424 49.8585C40.2324 49.7092 40.1274 49.461 40.1274 49.1141V45.6812C40.1518 45.6715 40.1884 45.6619 40.2372 45.6523C40.291 45.6378 40.3471 45.6306 40.4057 45.6306C40.6109 45.6306 40.7134 45.7173 40.7134 45.8908V46.7219H41.9149C41.9295 46.746 41.9442 46.7797 41.9588 46.8231C41.9735 46.8616 41.9808 46.905 41.9808 46.9532C41.9808 47.117 41.9075 47.1989 41.761 47.1989H40.7134V49.078C40.7134 49.2707 40.7671 49.408 40.8746 49.49C40.9869 49.567 41.1432 49.6056 41.3434 49.6056C41.4265 49.6056 41.5193 49.5911 41.6218 49.5622C41.7244 49.5333 41.8099 49.4996 41.8782 49.461C41.9075 49.49 41.9344 49.5261 41.9588 49.5695C41.9832 49.6128 41.9954 49.6634 41.9954 49.7212C41.9954 49.8272 41.932 49.914 41.805 49.9814C41.678 50.0489 41.5022 50.0826 41.2775 50.0826ZM46.0131 48.6588C46.1449 49.29 46.5649 49.6056 47.2731 49.6056C47.4782 49.6056 47.6638 49.5719 47.8299 49.5044C47.9959 49.437 48.1278 49.3647 48.2255 49.2876C48.3427 49.355 48.4013 49.4466 48.4013 49.5622C48.4013 49.6297 48.3695 49.6947 48.306 49.7574C48.2474 49.82 48.1644 49.8754 48.057 49.9236C47.9544 49.9718 47.8323 50.0103 47.6907 50.0392C47.5539 50.0681 47.405 50.0826 47.2438 50.0826C46.6773 50.0826 46.228 49.9308 45.8958 49.6273C45.5686 49.3237 45.405 48.8805 45.405 48.2975C45.405 48.0228 45.4441 47.7795 45.5222 47.5675C45.6053 47.3507 45.7176 47.1676 45.8592 47.0182C46.0057 46.8689 46.1791 46.7556 46.3794 46.6785C46.5796 46.5966 46.7969 46.5557 47.0314 46.5557C47.2511 46.5557 47.4538 46.5918 47.6394 46.6641C47.825 46.7364 47.9837 46.84 48.1156 46.9749C48.2523 47.105 48.3573 47.2615 48.4306 47.4446C48.5087 47.6229 48.5478 47.8205 48.5478 48.0373C48.5478 48.1433 48.5234 48.2204 48.4745 48.2685C48.4257 48.3119 48.3573 48.3384 48.2694 48.348L46.0131 48.6588ZM47.024 47.0255C46.7261 47.0255 46.4795 47.129 46.2841 47.3362C46.0888 47.5386 45.9862 47.8301 45.9764 48.2107L47.991 47.9361C47.9666 47.6711 47.8714 47.4543 47.7053 47.2856C47.5442 47.1122 47.3171 47.0255 47.024 47.0255ZM47.6467 45.0235C47.7542 45.0283 47.8396 45.0596 47.9031 45.1175C47.9715 45.1705 48.0057 45.2307 48.0057 45.2981C48.0057 45.3656 47.991 45.421 47.9617 45.4644C47.9324 45.5029 47.8836 45.5535 47.8152 45.6161L47.1486 46.2594C47.0509 46.2594 46.9727 46.2353 46.9141 46.1871C46.8555 46.1341 46.8262 46.0763 46.8262 46.0136C46.8262 45.9751 46.8384 45.939 46.8629 45.9052C46.8873 45.8715 46.9117 45.8402 46.9361 45.8113L47.6467 45.0235ZM59.8058 46.7002C59.8058 46.9074 59.7545 47.1001 59.652 47.2784C59.5543 47.4519 59.3882 47.5868 59.1538 47.6831C59.4322 47.7747 59.6397 47.9192 59.7765 48.1168C59.9132 48.3095 59.9816 48.5287 59.9816 48.7745C59.9816 49.2129 59.8204 49.5381 59.4981 49.7501C59.1807 49.9621 58.7265 50.0681 58.1355 50.0681C57.9304 50.0681 57.7301 50.0585 57.5348 50.0392C57.3443 50.0248 57.1612 49.9935 56.9853 49.9453C56.7802 49.8875 56.6777 49.7766 56.6777 49.6128V45.9125C56.6777 45.7727 56.7582 45.6812 56.9194 45.6378C57.0855 45.5896 57.2613 45.5583 57.4469 45.5439C57.6325 45.5246 57.8351 45.515 58.0549 45.515C58.6068 45.515 59.0366 45.6113 59.3443 45.804C59.6519 45.9968 59.8058 46.2955 59.8058 46.7002ZM57.2637 47.9433V49.5044C57.3809 49.5285 57.5152 49.5478 57.6666 49.5622C57.8229 49.5767 57.9792 49.5839 58.1355 49.5839C58.5409 49.5839 58.8485 49.5189 59.0586 49.3888C59.2686 49.2539 59.3736 49.0443 59.3736 48.76C59.3736 48.5095 59.2783 48.3119 59.0879 48.1674C58.9023 48.018 58.6263 47.9433 58.26 47.9433H57.2637ZM57.2637 47.4663H58.26C58.5677 47.4663 58.7997 47.3989 58.956 47.264C59.1172 47.129 59.1977 46.946 59.1977 46.7147C59.1977 46.2377 58.8168 45.9992 58.0549 45.9992C57.884 45.9992 57.735 46.0064 57.608 46.0209C57.4859 46.0305 57.3712 46.045 57.2637 46.0642V47.4663ZM64.4404 49.9742C64.416 49.9838 64.3794 49.9935 64.3305 50.0031C64.2817 50.0175 64.228 50.0248 64.1694 50.0248C63.9594 50.0248 63.8544 49.938 63.8544 49.7646V46.6641C63.8788 46.6545 63.9154 46.6448 63.9642 46.6352C64.018 46.6207 64.0741 46.6135 64.1327 46.6135C64.3379 46.6135 64.4404 46.7026 64.4404 46.8809V49.9742ZM63.7664 45.5945C63.7664 45.4933 63.8006 45.409 63.869 45.3415C63.9423 45.2692 64.0351 45.2331 64.1474 45.2331C64.2597 45.2331 64.3501 45.2692 64.4184 45.3415C64.4868 45.409 64.521 45.4933 64.521 45.5945C64.521 45.6956 64.4868 45.7824 64.4184 45.8546C64.3501 45.9221 64.2597 45.9558 64.1474 45.9558C64.0351 45.9558 63.9423 45.9221 63.869 45.8546C63.8006 45.7824 63.7664 45.6956 63.7664 45.5945ZM68.8591 48.6588C68.991 49.29 69.411 49.6056 70.1192 49.6056C70.3243 49.6056 70.5099 49.5719 70.6759 49.5044C70.842 49.437 70.9739 49.3647 71.0715 49.2876C71.1887 49.355 71.2474 49.4466 71.2474 49.5622C71.2474 49.6297 71.2156 49.6947 71.1521 49.7574C71.0935 49.82 71.0105 49.8754 70.903 49.9236C70.8005 49.9718 70.6784 50.0103 70.5367 50.0392C70.4 50.0681 70.251 50.0826 70.0899 50.0826C69.5233 50.0826 69.074 49.9308 68.7419 49.6273C68.4147 49.3237 68.2511 48.8805 68.2511 48.2975C68.2511 48.0228 68.2902 47.7795 68.3683 47.5675C68.4513 47.3507 68.5637 47.1676 68.7053 47.0182C68.8518 46.8689 69.0252 46.7556 69.2254 46.6785C69.4257 46.5966 69.643 46.5557 69.8774 46.5557C70.0972 46.5557 70.2999 46.5918 70.4855 46.6641C70.6711 46.7364 70.8298 46.84 70.9616 46.9749C71.0984 47.105 71.2034 47.2615 71.2767 47.4446C71.3548 47.6229 71.3939 47.8205 71.3939 48.0373C71.3939 48.1433 71.3694 48.2204 71.3206 48.2685C71.2718 48.3119 71.2034 48.3384 71.1155 48.348L68.8591 48.6588ZM69.8701 47.0255C69.5722 47.0255 69.3255 47.129 69.1302 47.3362C68.9348 47.5386 68.8323 47.8301 68.8225 48.2107L70.8371 47.9361C70.8127 47.6711 70.7175 47.4543 70.5514 47.2856C70.3902 47.1122 70.1631 47.0255 69.8701 47.0255ZM77.442 47.8132C77.442 47.5434 77.3638 47.3459 77.2075 47.2206C77.0561 47.0953 76.851 47.0327 76.5922 47.0327C76.3968 47.0327 76.2234 47.0568 76.072 47.105C75.9206 47.1531 75.7912 47.2085 75.6838 47.2712V49.9742C75.6593 49.9838 75.6227 49.9935 75.5739 50.0031C75.525 50.0175 75.4713 50.0248 75.4127 50.0248C75.2027 50.0248 75.0977 49.938 75.0977 49.7646V47.3001C75.0977 47.1989 75.1172 47.117 75.1563 47.0544C75.2003 46.9869 75.2735 46.9219 75.3761 46.8592C75.5031 46.7821 75.6715 46.7123 75.8816 46.6496C76.0916 46.587 76.3284 46.5557 76.5922 46.5557C77.0366 46.5557 77.3858 46.6545 77.6398 46.852C77.8986 47.0495 78.028 47.3603 78.028 47.7843V49.9742C78.0036 49.9838 77.9645 49.9935 77.9108 50.0031C77.862 50.0175 77.8107 50.0248 77.757 50.0248C77.547 50.0248 77.442 49.938 77.442 49.7646V47.8132ZM88.8923 48.8178H86.9289C86.8947 48.9142 86.8581 49.0202 86.819 49.1358C86.78 49.2466 86.7409 49.3575 86.7018 49.4683C86.6676 49.5743 86.6335 49.6755 86.5993 49.7718C86.5651 49.8634 86.5382 49.9405 86.5187 50.0031C86.4503 50.032 86.3697 50.0465 86.2769 50.0465C86.1988 50.0465 86.128 50.0272 86.0645 49.9886C86.0059 49.9453 85.9766 49.8778 85.9766 49.7863C85.9766 49.7429 85.9839 49.6995 85.9986 49.6562C86.0132 49.608 86.0303 49.5574 86.0498 49.5044C86.1231 49.302 86.2159 49.0419 86.3282 48.7239C86.4454 48.4059 86.57 48.0686 86.7018 47.712C86.8386 47.3507 86.9753 46.9893 87.1121 46.628C87.2537 46.2618 87.3831 45.9341 87.5003 45.645C87.5394 45.6258 87.598 45.6065 87.6762 45.5872C87.7543 45.568 87.8349 45.5583 87.9179 45.5583C88.0156 45.5583 88.1084 45.5728 88.1963 45.6017C88.2891 45.6306 88.3477 45.6788 88.3721 45.7462C88.4893 46.0257 88.6139 46.3461 88.7457 46.7075C88.8825 47.064 89.0192 47.4302 89.156 47.806C89.2927 48.1818 89.4222 48.5528 89.5443 48.919C89.6712 49.2804 89.7836 49.608 89.8812 49.9019C89.8422 49.9453 89.7958 49.979 89.7421 50.0031C89.6883 50.032 89.6273 50.0465 89.5589 50.0465C89.4661 50.0465 89.3953 50.0272 89.3465 49.9886C89.2976 49.9453 89.2561 49.8754 89.2219 49.779L88.8923 48.8178ZM87.9106 46.0498C87.8569 46.1943 87.7958 46.3605 87.7274 46.5485C87.6591 46.7315 87.5882 46.9243 87.515 47.1266C87.4417 47.329 87.3685 47.5338 87.2952 47.741C87.222 47.9481 87.1536 48.1457 87.0901 48.3336H88.7384C88.6652 48.1168 88.5895 47.9 88.5113 47.6831C88.4332 47.4615 88.3575 47.2495 88.2842 47.0471C88.2158 46.8448 88.1499 46.6593 88.0864 46.4906C88.0278 46.3172 87.979 46.1702 87.9399 46.0498H87.9106ZM95.0808 47.0399C94.9147 47.0399 94.7609 47.0688 94.6192 47.1266C94.4776 47.1796 94.3555 47.2615 94.2529 47.3724C94.1504 47.4784 94.0698 47.6133 94.0112 47.7771C93.9526 47.9361 93.9233 48.1192 93.9233 48.3264C93.9233 48.7407 94.0283 49.0587 94.2383 49.2804C94.4483 49.4972 94.7291 49.6056 95.0808 49.6056C95.2859 49.6056 95.4568 49.5791 95.5936 49.5261C95.7303 49.4683 95.8524 49.4032 95.9599 49.331C96.0136 49.3599 96.0575 49.396 96.0917 49.4394C96.1259 49.4827 96.143 49.5357 96.143 49.5984C96.143 49.6658 96.1161 49.7285 96.0624 49.7863C96.0087 49.8441 95.933 49.8947 95.8353 49.938C95.7425 49.9814 95.6302 50.0151 95.4983 50.0392C95.3713 50.0681 95.2322 50.0826 95.0808 50.0826C94.8268 50.0826 94.5924 50.0465 94.3775 49.9742C94.1626 49.9019 93.977 49.7935 93.8207 49.649C93.6644 49.5044 93.5423 49.3237 93.4544 49.1069C93.3665 48.8853 93.3226 48.6251 93.3226 48.3264C93.3226 48.0325 93.3689 47.7771 93.4617 47.5603C93.5545 47.3386 93.6791 47.1531 93.8354 47.0038C93.9916 46.8544 94.1748 46.7436 94.3848 46.6713C94.5997 46.5942 94.8268 46.5557 95.0661 46.5557C95.2175 46.5557 95.3567 46.5701 95.4837 46.599C95.6155 46.6231 95.7279 46.6593 95.8207 46.7075C95.9135 46.7556 95.9843 46.811 96.0331 46.8737C96.0868 46.9315 96.1137 46.9917 96.1137 47.0544C96.1137 47.1122 96.0966 47.1628 96.0624 47.2061C96.0282 47.2495 95.9843 47.2832 95.9306 47.3073C95.8231 47.235 95.7059 47.1724 95.5789 47.1194C95.4519 47.0664 95.2859 47.0399 95.0808 47.0399ZM101.35 47.0399C101.184 47.0399 101.031 47.0688 100.889 47.1266C100.747 47.1796 100.625 47.2615 100.523 47.3724C100.42 47.4784 100.34 47.6133 100.281 47.7771C100.222 47.9361 100.193 48.1192 100.193 48.3264C100.193 48.7407 100.298 49.0587 100.508 49.2804C100.718 49.4972 100.999 49.6056 101.35 49.6056C101.556 49.6056 101.727 49.5791 101.863 49.5261C102 49.4683 102.122 49.4032 102.23 49.331C102.283 49.3599 102.327 49.396 102.361 49.4394C102.396 49.4827 102.413 49.5357 102.413 49.5984C102.413 49.6658 102.386 49.7285 102.332 49.7863C102.278 49.8441 102.203 49.8947 102.105 49.938C102.012 49.9814 101.9 50.0151 101.768 50.0392C101.641 50.0681 101.502 50.0826 101.35 50.0826C101.097 50.0826 100.862 50.0465 100.647 49.9742C100.432 49.9019 100.247 49.7935 100.09 49.649C99.9341 49.5044 99.812 49.3237 99.7241 49.1069C99.6362 48.8853 99.5923 48.6251 99.5923 48.3264C99.5923 48.0325 99.6387 47.7771 99.7314 47.5603C99.8242 47.3386 99.9488 47.1531 100.105 47.0038C100.261 46.8544 100.445 46.7436 100.655 46.6713C100.869 46.5942 101.097 46.5557 101.336 46.5557C101.487 46.5557 101.626 46.5701 101.753 46.599C101.885 46.6231 101.998 46.6593 102.09 46.7075C102.183 46.7556 102.254 46.811 102.303 46.8737C102.357 46.9315 102.383 46.9917 102.383 47.0544C102.383 47.1122 102.366 47.1628 102.332 47.2061C102.298 47.2495 102.254 47.2832 102.2 47.3073C102.093 47.235 101.976 47.1724 101.849 47.1194C101.722 47.0664 101.556 47.0399 101.35 47.0399ZM109.195 48.3191C109.195 48.589 109.156 48.8323 109.078 49.0491C109 49.2659 108.888 49.4514 108.741 49.6056C108.599 49.7598 108.426 49.8778 108.221 49.9597C108.016 50.0416 107.786 50.0826 107.532 50.0826C107.278 50.0826 107.049 50.0416 106.844 49.9597C106.639 49.8778 106.463 49.7598 106.316 49.6056C106.17 49.4514 106.057 49.2659 105.979 49.0491C105.901 48.8323 105.862 48.589 105.862 48.3191C105.862 48.0493 105.901 47.806 105.979 47.5892C106.062 47.3724 106.177 47.1869 106.323 47.0327C106.47 46.8785 106.646 46.7605 106.851 46.6785C107.056 46.5966 107.283 46.5557 107.532 46.5557C107.781 46.5557 108.008 46.5966 108.214 46.6785C108.419 46.7605 108.592 46.8785 108.734 47.0327C108.88 47.1869 108.993 47.3724 109.071 47.5892C109.154 47.806 109.195 48.0493 109.195 48.3191ZM107.532 47.0327C107.2 47.0327 106.939 47.1459 106.748 47.3724C106.558 47.5988 106.463 47.9144 106.463 48.3191C106.463 48.7287 106.555 49.0467 106.741 49.2731C106.932 49.4948 107.195 49.6056 107.532 49.6056C107.869 49.6056 108.131 49.4924 108.316 49.2659C108.502 49.0395 108.594 48.7239 108.594 48.3191C108.594 47.9144 108.499 47.5988 108.309 47.3724C108.123 47.1459 107.864 47.0327 107.532 47.0327ZM117.252 47.7193C117.252 47.4832 117.183 47.3097 117.047 47.1989C116.91 47.0881 116.727 47.0327 116.497 47.0327C116.18 47.0327 115.897 47.1435 115.647 47.3651C115.677 47.4615 115.691 47.5651 115.691 47.6759V49.9742C115.667 49.9838 115.628 49.9935 115.574 50.0031C115.525 50.0175 115.474 50.0248 115.42 50.0248C115.21 50.0248 115.105 49.938 115.105 49.7646V47.7193C115.105 47.4832 115.037 47.3097 114.9 47.1989C114.763 47.0881 114.578 47.0327 114.343 47.0327C114.187 47.0327 114.038 47.0568 113.897 47.105C113.76 47.1531 113.643 47.2085 113.545 47.2712V49.9742C113.521 49.9838 113.484 49.9935 113.435 50.0031C113.386 50.0175 113.332 50.0248 113.274 50.0248C113.064 50.0248 112.959 49.938 112.959 49.7646V47.3001C112.959 47.2037 112.978 47.1242 113.017 47.0616C113.061 46.9941 113.135 46.9267 113.237 46.8592C113.369 46.7773 113.535 46.7075 113.735 46.6496C113.941 46.587 114.146 46.5557 114.351 46.5557C114.59 46.5557 114.803 46.5918 114.988 46.6641C115.174 46.7315 115.315 46.8255 115.413 46.946C115.54 46.8351 115.699 46.7436 115.889 46.6713C116.08 46.5942 116.297 46.5557 116.541 46.5557C116.937 46.5557 117.252 46.6496 117.486 46.8375C117.721 47.0206 117.838 47.3049 117.838 47.6904V49.9742C117.813 49.9838 117.774 49.9935 117.721 50.0031C117.672 50.0175 117.621 50.0248 117.567 50.0248C117.357 50.0248 117.252 49.938 117.252 49.7646V47.7193ZM123.239 50.0826C123.069 50.0826 122.907 50.0633 122.756 50.0248C122.605 49.9862 122.48 49.9405 122.382 49.8875V51.2896C122.358 51.2992 122.321 51.3088 122.272 51.3185C122.224 51.3329 122.17 51.3401 122.111 51.3401C121.901 51.3401 121.796 51.251 121.796 51.0727V47.2567C121.796 47.1604 121.813 47.0833 121.848 47.0255C121.882 46.9676 121.953 46.9074 122.06 46.8448C122.192 46.7725 122.348 46.7075 122.529 46.6496C122.714 46.587 122.924 46.5557 123.159 46.5557C123.398 46.5557 123.623 46.5894 123.833 46.6569C124.048 46.7243 124.231 46.8303 124.382 46.9749C124.539 47.1146 124.661 47.2953 124.749 47.5169C124.841 47.7385 124.888 48.0035 124.888 48.3119C124.888 48.6106 124.846 48.8708 124.763 49.0925C124.685 49.3141 124.573 49.4996 124.426 49.649C124.28 49.7935 124.104 49.9019 123.899 49.9742C123.699 50.0465 123.479 50.0826 123.239 50.0826ZM123.159 49.6056C123.501 49.6056 123.774 49.5044 123.979 49.302C124.189 49.0949 124.294 48.7648 124.294 48.3119C124.294 48.0758 124.263 47.8759 124.199 47.712C124.141 47.5482 124.058 47.4157 123.95 47.3145C123.848 47.2134 123.728 47.1411 123.591 47.0977C123.454 47.0544 123.31 47.0327 123.159 47.0327C122.983 47.0327 122.834 47.0544 122.712 47.0977C122.59 47.1411 122.48 47.1893 122.382 47.2423V49.3743C122.475 49.4418 122.585 49.4972 122.712 49.5405C122.839 49.5839 122.988 49.6056 123.159 49.6056ZM129.876 49.6128C130.081 49.6128 130.25 49.5935 130.382 49.555C130.518 49.5116 130.616 49.4707 130.675 49.4321V48.3842L129.766 48.4781C129.512 48.5022 129.324 48.56 129.202 48.6516C129.08 48.7383 129.019 48.8684 129.019 49.0419C129.019 49.225 129.09 49.3671 129.231 49.4683C129.373 49.5646 129.588 49.6128 129.876 49.6128ZM129.869 46.5557C130.294 46.5557 130.631 46.6496 130.88 46.8375C131.129 47.0255 131.253 47.3218 131.253 47.7265V49.4394C131.253 49.5454 131.231 49.6273 131.187 49.6851C131.148 49.7381 131.087 49.7887 131.004 49.8369C130.887 49.9043 130.731 49.9621 130.535 50.0103C130.345 50.0633 130.125 50.0898 129.876 50.0898C129.417 50.0898 129.06 50.0007 128.807 49.8224C128.557 49.6441 128.433 49.3864 128.433 49.0491C128.433 48.7311 128.538 48.4926 128.748 48.3336C128.958 48.1698 129.253 48.0686 129.634 48.03L130.675 47.9289V47.7265C130.675 47.4856 130.601 47.3097 130.455 47.1989C130.308 47.0881 130.111 47.0327 129.861 47.0327C129.656 47.0327 129.463 47.0616 129.283 47.1194C129.102 47.1772 128.941 47.2423 128.799 47.3145C128.76 47.2808 128.723 47.2423 128.689 47.1989C128.66 47.1555 128.645 47.1074 128.645 47.0544C128.645 46.9869 128.662 46.9315 128.697 46.8881C128.731 46.8448 128.785 46.8038 128.858 46.7653C128.99 46.6978 129.141 46.6472 129.312 46.6135C129.483 46.575 129.669 46.5557 129.869 46.5557ZM137.444 49.6417C137.361 49.7092 137.246 49.767 137.099 49.8152C136.958 49.8634 136.787 49.8875 136.587 49.8875C136.372 49.8875 136.169 49.8586 135.979 49.8007C135.788 49.7381 135.62 49.6417 135.473 49.5116C135.331 49.3767 135.217 49.2033 135.129 48.9913C135.046 48.7793 135.004 48.5215 135.004 48.218C135.004 47.9433 135.046 47.7024 135.129 47.4952C135.212 47.288 135.326 47.1146 135.473 46.9749C135.624 46.8351 135.803 46.7315 136.008 46.6641C136.213 46.5918 136.44 46.5557 136.689 46.5557C136.914 46.5557 137.119 46.5846 137.304 46.6424C137.495 46.6954 137.654 46.7629 137.781 46.8448C137.854 46.893 137.913 46.9484 137.956 47.011C138.005 47.0688 138.03 47.1411 138.03 47.2278V50.1332C138.03 50.3741 137.988 50.5765 137.905 50.7403C137.827 50.9089 137.715 51.0438 137.568 51.145C137.427 51.251 137.258 51.3281 137.063 51.3763C136.867 51.4245 136.657 51.4486 136.433 51.4486C136.184 51.4486 135.971 51.422 135.795 51.369C135.624 51.3209 135.507 51.2775 135.444 51.239C135.297 51.157 135.224 51.0535 135.224 50.9282C135.224 50.8607 135.239 50.8029 135.268 50.7547C135.302 50.7114 135.344 50.6776 135.392 50.6535C135.495 50.7306 135.639 50.8005 135.825 50.8631C136.01 50.9306 136.213 50.9643 136.433 50.9643C136.76 50.9643 137.009 50.8945 137.18 50.7547C137.356 50.6198 137.444 50.4006 137.444 50.097V49.6417ZM136.652 49.4105C136.848 49.4105 137.007 49.3816 137.129 49.3237C137.256 49.2611 137.361 49.1912 137.444 49.1141V47.235C137.361 47.182 137.256 47.1363 137.129 47.0977C137.007 47.0544 136.86 47.0327 136.689 47.0327C136.357 47.0327 136.091 47.1315 135.891 47.329C135.695 47.5265 135.598 47.8205 135.598 48.2107C135.598 48.4275 135.624 48.613 135.678 48.7672C135.732 48.9166 135.805 49.0395 135.898 49.1358C135.996 49.2322 136.108 49.302 136.235 49.3454C136.367 49.3888 136.506 49.4105 136.652 49.4105ZM144.316 47.8132C144.316 47.5434 144.238 47.3459 144.081 47.2206C143.93 47.0953 143.725 47.0327 143.466 47.0327C143.271 47.0327 143.097 47.0568 142.946 47.105C142.795 47.1531 142.665 47.2085 142.558 47.2712V49.9742C142.533 49.9838 142.497 49.9935 142.448 50.0031C142.399 50.0175 142.345 50.0248 142.287 50.0248C142.077 50.0248 141.972 49.938 141.972 49.7646V47.3001C141.972 47.1989 141.991 47.117 142.03 47.0544C142.074 46.9869 142.147 46.9219 142.25 46.8592C142.377 46.7821 142.546 46.7123 142.756 46.6496C142.966 46.587 143.202 46.5557 143.466 46.5557C143.911 46.5557 144.26 46.6545 144.514 46.852C144.773 47.0495 144.902 47.3603 144.902 47.7843V49.9742C144.878 49.9838 144.838 49.9935 144.785 50.0031C144.736 50.0175 144.685 50.0248 144.631 50.0248C144.421 50.0248 144.316 49.938 144.316 49.7646V47.8132ZM149.274 48.6588C149.406 49.29 149.826 49.6056 150.534 49.6056C150.739 49.6056 150.925 49.5719 151.091 49.5044C151.257 49.437 151.389 49.3647 151.487 49.2876C151.604 49.355 151.663 49.4466 151.663 49.5622C151.663 49.6297 151.631 49.6947 151.567 49.7574C151.509 49.82 151.426 49.8754 151.318 49.9236C151.216 49.9718 151.094 50.0103 150.952 50.0392C150.815 50.0681 150.666 50.0826 150.505 50.0826C149.939 50.0826 149.489 49.9308 149.157 49.6273C148.83 49.3237 148.666 48.8805 148.666 48.2975C148.666 48.0228 148.705 47.7795 148.783 47.5675C148.866 47.3507 148.979 47.1676 149.12 47.0182C149.267 46.8689 149.44 46.7556 149.641 46.6785C149.841 46.5966 150.058 46.5557 150.293 46.5557C150.512 46.5557 150.715 46.5918 150.901 46.6641C151.086 46.7364 151.245 46.84 151.377 46.9749C151.514 47.105 151.619 47.2615 151.692 47.4446C151.77 47.6229 151.809 47.8205 151.809 48.0373C151.809 48.1433 151.785 48.2204 151.736 48.2685C151.687 48.3119 151.619 48.3384 151.531 48.348L149.274 48.6588ZM150.285 47.0255C149.987 47.0255 149.741 47.129 149.545 47.3362C149.35 47.5386 149.247 47.8301 149.238 48.2107L151.252 47.9361C151.228 47.6711 151.133 47.4543 150.967 47.2856C150.805 47.1122 150.578 47.0255 150.285 47.0255ZM150.908 45.0235C151.015 45.0283 151.101 45.0596 151.164 45.1175C151.233 45.1705 151.267 45.2307 151.267 45.2981C151.267 45.3656 151.252 45.421 151.223 45.4644C151.194 45.5029 151.145 45.5535 151.076 45.6161L150.41 46.2594C150.312 46.2594 150.234 46.2353 150.175 46.1871C150.117 46.1341 150.087 46.0763 150.087 46.0136C150.087 45.9751 150.1 45.939 150.124 45.9052C150.148 45.8715 150.173 45.8402 150.197 45.8113L150.908 45.0235ZM155.93 48.6588C156.062 49.29 156.482 49.6056 157.19 49.6056C157.396 49.6056 157.581 49.5719 157.747 49.5044C157.913 49.437 158.045 49.3647 158.143 49.2876C158.26 49.355 158.319 49.4466 158.319 49.5622C158.319 49.6297 158.287 49.6947 158.223 49.7574C158.165 49.82 158.082 49.8754 157.974 49.9236C157.872 49.9718 157.75 50.0103 157.608 50.0392C157.471 50.0681 157.322 50.0826 157.161 50.0826C156.595 50.0826 156.145 49.9308 155.813 49.6273C155.486 49.3237 155.322 48.8805 155.322 48.2975C155.322 48.0228 155.361 47.7795 155.44 47.5675C155.523 47.3507 155.635 47.1676 155.777 47.0182C155.923 46.8689 156.096 46.7556 156.297 46.6785C156.497 46.5966 156.714 46.5557 156.949 46.5557C157.169 46.5557 157.371 46.5918 157.557 46.6641C157.742 46.7364 157.901 46.84 158.033 46.9749C158.17 47.105 158.275 47.2615 158.348 47.4446C158.426 47.6229 158.465 47.8205 158.465 48.0373C158.465 48.1433 158.441 48.2204 158.392 48.2685C158.343 48.3119 158.275 48.3384 158.187 48.348L155.93 48.6588ZM156.941 47.0255C156.643 47.0255 156.397 47.129 156.201 47.3362C156.006 47.5386 155.904 47.8301 155.894 48.2107L157.908 47.9361C157.884 47.6711 157.789 47.4543 157.623 47.2856C157.462 47.1122 157.234 47.0255 156.941 47.0255Z" fill="#454545"/>
<path d="M159.337 41.5568H0.610352V42.1591H159.337V41.5568Z" fill="#454545" fill-opacity="0.2"/>
</svg>
