<svg width="563" height="545" viewBox="0 0 563 545" fill="none" xmlns="http://www.w3.org/2000/svg">
<path opacity="0.1" d="M242.072 166.256C217.903 184.577 189.314 195.222 161.186 204.304C133.059 213.386 104.388 221.416 77.8494 235.703C60.783 244.884 43.5814 258.229 38.1448 275.832C32.9089 292.772 39.9279 308.939 47.8813 322.767C53.867 333.171 60.8713 343.544 71.9637 348.817C79.6698 352.469 88.8066 353.376 96.9571 356.25C125.312 366.252 136.704 397.786 139.367 427.956C140.622 442.112 140.527 456.63 143.663 470.215C146.799 483.8 153.644 496.714 165.875 503.213C177.991 509.648 193.846 509.002 208.739 505.492C238.978 498.355 266.969 480.564 293.28 462.006C351.487 420.884 405.585 374.11 459.532 327.459C479.494 310.191 499.546 292.845 517.085 273.284C526.827 262.422 536.094 250.232 538.72 236.885C542.049 219.941 532.808 203.374 517.166 198.264C490.935 189.697 455.285 211.291 431.464 198.569C418.356 191.565 413.285 175.997 411.73 160.866C408.392 128.413 416.558 90.9023 398.095 65.728C385.417 48.4353 360.688 40.9213 336.987 47.1527C312.142 53.6749 287.843 75.1935 285.561 99.7109C283.217 124.965 263.407 150.08 242.072 166.256Z" fill="#05ACF7"/>
</svg>
